<svg width="48" height="49" viewBox="0 0 48 49" fill="none" xmlns="http://www.w3.org/2000/svg">
<g id="lucide/calendar-heart">
<path id="Vector" d="M6 20.5H42V12.5C42 11.4391 41.5786 10.4217 40.8284 9.67157C40.0783 8.92143 39.0609 8.5 38 8.5H10C8.93913 8.5 7.92172 8.92143 7.17157 9.67157C6.42143 10.4217 6 11.4391 6 12.5V40.5C6 41.5609 6.42143 42.5783 7.17157 43.3284C7.92172 44.0786 8.93913 44.5 10 44.5H24M16 4.5V12.5M32 4.5V12.5M42.58 29.9C41.8985 29.2219 41.0312 28.7611 40.0878 28.576C39.1444 28.3908 38.1672 28.4897 37.28 28.86C36.68 29.1 36.14 29.46 35.68 29.92L35 30.6L34.3 29.92C33.6207 29.2385 32.7545 28.774 31.8109 28.5853C30.8674 28.3966 29.8891 28.4922 29 28.86C28.4 29.1 27.88 29.46 27.42 29.92C25.52 31.8 25.42 34.98 27.82 37.4L35 44.5L42.2 37.4C44.6 34.98 44.48 31.8 42.58 29.92V29.9Z" stroke="#234735" stroke-width="2" stroke-linecap="round" strokeLinejoin="round"/>
</g>
</svg>
