<svg width="48" height="49" viewBox="0 0 48 49" fill="none" xmlns="http://www.w3.org/2000/svg">
<g id="lucide/ticket">
<path id="Vector" d="M26 10.5V14.5M26 34.5V38.5M26 22.5V26.5M4 18.5C5.5913 18.5 7.11742 19.1321 8.24264 20.2574C9.36786 21.3826 10 22.9087 10 24.5C10 26.0913 9.36786 27.6174 8.24264 28.7426C7.11742 29.8679 5.5913 30.5 4 30.5V34.5C4 35.5609 4.42143 36.5783 5.17157 37.3284C5.92172 38.0786 6.93913 38.5 8 38.5H40C41.0609 38.5 42.0783 38.0786 42.8284 37.3284C43.5786 36.5783 44 35.5609 44 34.5V30.5C42.4087 30.5 40.8826 29.8679 39.7574 28.7426C38.6321 27.6174 38 26.0913 38 24.5C38 22.9087 38.6321 21.3826 39.7574 20.2574C40.8826 19.1321 42.4087 18.5 44 18.5V14.5C44 13.4391 43.5786 12.4217 42.8284 11.6716C42.0783 10.9214 41.0609 10.5 40 10.5H8C6.93913 10.5 5.92172 10.9214 5.17157 11.6716C4.42143 12.4217 4 13.4391 4 14.5V18.5Z" stroke="#234735" stroke-width="2" stroke-linecap="round" strokeLinejoin="round"/>
</g>
</svg>
