<svg width="48" height="49" viewBox="0 0 48 49" fill="none" xmlns="http://www.w3.org/2000/svg">
<g id="lucide/users">
<path id="Vector" d="M32 42.5V38.5C32 36.3783 31.1571 34.3434 29.6569 32.8431C28.1566 31.3429 26.1217 30.5 24 30.5H12C9.87827 30.5 7.84344 31.3429 6.34315 32.8431C4.84285 34.3434 4 36.3783 4 38.5V42.5M44 42.5V38.5C43.9987 36.7275 43.4087 35.0055 42.3227 33.6046C41.2368 32.2037 39.7163 31.2031 38 30.76M32 6.76C33.7208 7.2006 35.2461 8.2014 36.3353 9.60462C37.4245 11.0078 38.0157 12.7337 38.0157 14.51C38.0157 16.2863 37.4245 18.0122 36.3353 19.4154C35.2461 20.8186 33.7208 21.8194 32 22.26M26 14.5C26 18.9183 22.4183 22.5 18 22.5C13.5817 22.5 10 18.9183 10 14.5C10 10.0817 13.5817 6.5 18 6.5C22.4183 6.5 26 10.0817 26 14.5Z" stroke="#234735" stroke-width="2" stroke-linecap="round" stroke-linejoin="round"/>
</g>
</svg>
