<svg width="48" height="49" viewBox="0 0 48 49" fill="none" xmlns="http://www.w3.org/2000/svg">
<g id="lucide/boxes">
<path id="Vector" d="M24 38.4999L16.06 43.2599C15.4379 43.6337 14.7258 43.8312 14 43.8312C13.2742 43.8312 12.5621 43.6337 11.94 43.2599L5.94 39.6599C5.34952 39.3052 4.86066 38.8039 4.52077 38.2048C4.18089 37.6056 4.00151 36.9288 4 36.2399V29.7599C4.00151 29.0711 4.18089 28.3943 4.52077 27.7951C4.86066 27.1959 5.34952 26.6947 5.94 26.3399L14 21.4999M24 38.4999V27.4999M24 38.4999L31.94 43.2599C32.5621 43.6337 33.2742 43.8312 34 43.8312C34.7258 43.8312 35.4379 43.6337 36.06 43.2599L42.06 39.6599C42.6505 39.3052 43.1393 38.8039 43.4792 38.2048C43.8191 37.6056 43.9985 36.9288 44 36.2399V29.7599C43.9985 29.0711 43.8191 28.3943 43.4792 27.7951C43.1393 27.1959 42.6505 26.6947 42.06 26.3399L34 21.4999M24 27.4999L14 21.4999M24 27.4999L14 33.4999M24 27.4999L34 21.4999M24 27.4999L34 33.4999M24 27.4999V16.4999M14 21.4999V12.7599C14.0015 12.0711 14.1809 11.3943 14.5208 10.7951C14.8607 10.1959 15.3495 9.6947 15.94 9.33994L21.94 5.73994C22.5621 5.36617 23.2742 5.1687 24 5.1687C24.7258 5.1687 25.4379 5.36617 26.06 5.73994L32.06 9.33994C32.6505 9.6947 33.1393 10.1959 33.4792 10.7951C33.8191 11.3943 33.9985 12.0711 34 12.7599V21.4999M14 33.4999L4.52 27.7999M14 33.4999V43.8399M34 33.4999L43.48 27.7999M34 33.4999V43.8399M24 16.4999L14.52 10.7999M24 16.4999L33.48 10.7999" stroke="#234735" stroke-width="2" stroke-linecap="round" stroke-linejoin="round"/>
</g>
</svg>
