<svg width="115" height="30" viewBox="0 0 115 30" fill="none" xmlns="http://www.w3.org/2000/svg">
<path fill-rule="evenodd" clip-rule="evenodd" d="M49.8515 11.7953H54.8692C55.3123 11.7953 55.669 11.4063 55.6146 10.9528C55.5689 10.5724 55.2325 10.2935 54.8493 10.2935H48.6115C48.1984 10.2935 47.8606 10.6313 47.8606 11.0445V18.5536C47.8606 18.9668 48.1984 19.3046 48.6115 19.3046H54.8692C55.3123 19.3046 55.669 18.9155 55.6146 18.462C55.5689 18.0817 55.2325 17.8028 54.8493 17.8028H49.8515C49.5813 17.8028 49.3623 17.5838 49.3623 17.3136V16.039C49.3623 15.7689 49.5813 15.5499 49.8515 15.5499H53.6176C54.0607 15.5499 54.4174 15.1609 54.363 14.7075C54.3173 14.327 53.9809 14.0481 53.5979 14.0481H49.8515C49.5813 14.0481 49.3623 13.8292 49.3623 13.559V12.2844C49.3623 12.0143 49.5813 11.7953 49.8515 11.7953ZM41.219 11.7953C42.0576 11.7953 42.7584 12.0957 43.3342 12.6839C43.4719 12.8216 43.6596 12.8967 43.8723 12.8967C44.2853 12.8967 44.6233 12.5588 44.6233 12.1458C44.6233 11.933 44.5232 11.7327 44.3103 11.545C43.4217 10.7065 42.383 10.2935 41.219 10.2935C39.98 10.2935 38.9162 10.7316 38.0276 11.6202C37.1516 12.4962 36.7136 13.56 36.7136 14.799C36.7136 16.0381 37.1516 17.1019 38.0276 17.9905C38.9162 18.8665 39.98 19.3046 41.219 19.3046C42.4582 19.3046 43.5219 18.8665 44.398 17.9905C44.6983 17.6901 44.6983 17.2145 44.398 16.9266C44.11 16.6263 43.6346 16.6263 43.3342 16.9266C42.746 17.5149 42.0452 17.8028 41.219 17.8028C40.393 17.8028 39.6797 17.5149 39.0914 16.9266C38.5032 16.3385 38.2154 15.6251 38.2154 14.799C38.2154 13.973 38.5032 13.2722 39.0914 12.6839C39.6797 12.0957 40.393 11.7953 41.219 11.7953ZM65.6879 17.8028H60.691C60.4204 17.8028 60.201 17.5834 60.201 17.3128V11.0641C60.201 10.6809 59.9219 10.3445 59.5415 10.2989C59.0881 10.2446 58.6992 10.6013 58.6992 11.0444V18.5536C58.6992 18.9668 59.037 19.3046 59.4502 19.3046H65.7078C66.151 19.3046 66.5077 18.9154 66.4533 18.462C66.4075 18.0817 66.071 17.8028 65.6879 17.8028ZM97.2859 10.2935H89.7965C89.3533 10.2935 88.9967 10.6826 89.0511 11.136C89.0968 11.5164 89.4333 11.7953 89.8163 11.7953H92.3111C92.5811 11.7953 92.8002 12.0143 92.8002 12.2845V18.5536C92.8002 18.9969 93.1893 19.3536 93.6429 19.2991C94.0231 19.2533 94.3021 18.9169 94.3021 18.5337V12.2845C94.3021 12.0143 94.5211 11.7953 94.7913 11.7953H97.3057C97.7489 11.7953 98.1057 11.4063 98.0513 10.9528C98.0055 10.5724 97.6691 10.2935 97.2859 10.2935ZM101.255 10.2935C100.842 10.2935 100.504 10.6313 100.504 11.0445V18.5536C100.504 18.9668 100.842 19.3046 101.255 19.3046C101.668 19.3046 102.006 18.9668 102.006 18.5536V11.0445C102.006 10.6313 101.668 10.2935 101.255 10.2935ZM86.2299 14.7115C85.5414 14.2733 84.6154 14.0481 83.4514 14.0481C81.9121 14.0481 81.1361 13.6726 81.1361 12.9216C81.1361 12.1708 81.9121 11.7953 83.4514 11.7953C84.3024 11.7953 85.116 11.958 85.892 12.2709C86.3424 12.4086 86.6554 12.2459 86.8306 11.8079C86.9807 11.4199 86.7806 11.0445 86.3676 10.8567C85.504 10.4812 84.5403 10.2935 83.4514 10.2935C82.3124 10.2935 81.399 10.5313 80.6855 10.9943C79.9847 11.4575 79.6342 12.1082 79.6342 12.9216C79.6342 13.7853 79.9847 14.4486 80.6731 14.8866C81.3614 15.3246 82.2875 15.5499 83.4514 15.5499C84.9908 15.5499 85.7668 15.9253 85.7668 16.6763C85.7668 17.4272 84.9908 17.8028 83.4514 17.8028H83.076C82.3001 17.8028 81.4865 17.6401 80.6478 17.3271C80.2601 17.1895 79.8595 17.3646 79.6968 17.7778C79.5465 18.1658 79.7718 18.6162 80.1598 18.7539C81.0235 19.1168 81.9871 19.3046 83.076 19.3046H83.4514C84.5904 19.3046 85.504 19.0668 86.2048 18.6036C86.9183 18.1406 87.2687 17.4898 87.2687 16.6763C87.2687 15.8128 86.9183 15.1495 86.2299 14.7115ZM70.8882 11.7953H75.9071C76.3503 11.7953 76.707 11.4063 76.6526 10.9528C76.6069 10.5724 76.2705 10.2935 75.8873 10.2935H69.6495C69.2363 10.2935 68.8985 10.6313 68.8985 11.0445V18.5536C68.8985 18.9668 69.2363 19.3046 69.6495 19.3046H75.9071C76.3503 19.3046 76.707 18.9155 76.6526 18.462C76.6068 18.0817 76.2705 17.8028 75.8873 17.8028H70.8882C70.6188 17.8028 70.4003 17.5843 70.4003 17.3149V16.0379C70.4003 15.7684 70.6188 15.5499 70.8882 15.5499H74.6556C75.0989 15.5499 75.4553 15.1609 75.401 14.7075C75.3553 14.327 75.0189 14.0481 74.6357 14.0481H70.8882C70.6188 14.0481 70.4003 13.8297 70.4003 13.5602V12.2832C70.4003 12.0137 70.6188 11.7953 70.8882 11.7953ZM28.5238 14.9522C28.521 15.0423 28.3984 15.0661 28.363 14.9831C28.3478 14.9473 28.3322 14.9113 28.3164 14.8753C28.2875 14.8096 28.2956 14.7331 28.3388 14.6756C28.3477 14.6638 28.3658 14.64 28.3876 14.6116C28.4459 14.5354 28.5299 14.5468 28.5299 14.6314C28.5299 14.7424 28.5273 14.8385 28.5238 14.9522ZM27.8787 13.1874C27.7792 13.3666 27.5241 13.3748 27.4136 13.202C27.3964 13.1753 27.3791 13.1486 27.3617 13.1218C26.9635 12.5103 26.5052 11.9101 25.9934 11.3268C25.8677 11.1836 25.9705 10.9588 26.1611 10.9587H26.1657C27.3617 10.9587 27.9888 11.2542 28.1802 11.6149C28.3399 11.9167 28.2909 12.4443 27.8787 13.1874ZM27.6117 19.4428C27.5475 19.606 27.4804 19.7682 27.4098 19.9288C27.3988 19.951 27.3885 19.9733 27.3771 19.9953C26.9368 20.8427 26.1982 21.5099 25.211 21.9742C24.9895 22.0783 24.7472 21.8756 24.8132 21.64C25.141 20.4669 25.389 19.1946 25.5498 17.8608C25.5798 17.6121 25.7024 17.3838 25.892 17.2199C26.2979 16.8687 26.677 16.518 27.0257 16.1698L27.0295 16.1659C27.2011 15.9946 27.4938 16.0683 27.5637 16.3006C27.9083 17.4459 27.9274 18.5126 27.6117 19.4428ZM24.9267 23.6774C24.8263 23.7848 24.7238 23.8908 24.6193 23.9953C24.4374 24.177 24.2511 24.3528 24.0608 24.5225C23.9407 24.6295 23.7591 24.4957 23.8271 24.3499C23.8465 24.3083 23.8657 24.2664 23.8848 24.2241C23.9648 24.0478 24.042 23.8668 24.1172 23.6825C24.135 23.6391 24.1724 23.6066 24.218 23.595C24.4073 23.5469 24.5918 23.4939 24.7716 23.4359C24.9173 23.389 25.0314 23.5656 24.9267 23.6774ZM22.9554 22.6193C22.5569 22.677 22.1379 22.7143 21.6995 22.7298C20.6299 22.7672 19.4989 22.6749 18.3371 22.461C18.1954 22.435 18.1682 22.2435 18.2966 22.1785C18.5501 22.0503 18.8036 21.9191 19.0571 21.7848C20.8347 20.8425 22.4934 19.8126 23.9454 18.7566C24.0543 18.6774 24.2043 18.7708 24.1822 18.9037C23.9809 20.1139 23.7021 21.2532 23.3519 22.2873C23.2922 22.4635 23.1396 22.5926 22.9554 22.6193ZM22.5448 24.2316C21.5917 26.1061 20.4179 27.1586 19.28 27.1374C18.0434 27.1154 16.8103 25.8276 15.8971 23.6044L15.896 23.6019C15.838 23.4608 15.9047 23.2993 16.0445 23.2385C16.0542 23.2342 16.0638 23.23 16.0735 23.2257C16.1335 23.1997 16.2008 23.1949 16.2639 23.2127C17.972 23.6921 19.6551 23.9423 21.2319 23.9423C21.4033 23.9423 21.5735 23.9394 21.7422 23.9335C21.9397 23.9264 22.1341 23.9153 22.3251 23.9001C22.5022 23.8861 22.6254 24.0732 22.5448 24.2316ZM16.9021 27.7963C16.3354 27.8691 15.7603 27.9064 15.1796 27.9064C12.5846 27.9064 10.1025 27.171 7.97153 25.7987C7.82492 25.7042 7.88723 25.4767 8.06146 25.4687C8.09759 25.467 8.13136 25.4652 8.16108 25.4634C8.70263 25.4282 9.29641 25.3488 9.93981 25.2249C11.3084 24.9616 12.8298 24.51 14.4227 23.9018C14.5656 23.8474 14.725 23.9182 14.7831 24.0596C14.7835 24.0605 14.7838 24.0613 14.7842 24.062C15.4015 25.5651 16.1613 26.7008 17.0144 27.4233C17.1554 27.5428 17.0853 27.7728 16.9021 27.7963ZM9.18168 18.4411C10.3581 17.4831 11.7365 16.5272 13.2486 15.6223C13.2811 17.5563 13.4931 19.413 13.8684 21.0902C13.3076 20.851 12.7486 20.5876 12.1943 20.2998C11.1208 19.7418 10.1107 19.1169 9.18168 18.4411ZM5.52317 23.6233C5.24251 23.0938 5.60525 21.8672 7.44799 20.003L7.4489 20.0021C7.64133 19.8077 7.62288 19.4887 7.40806 19.3194C7.33423 19.2614 7.26093 19.2028 7.18814 19.1441C7.00462 18.9958 6.73901 19.0094 6.57237 19.1763C6.53585 19.2129 6.50862 19.2404 6.50063 19.2486C5.57946 20.1941 4.93476 21.0694 4.57359 21.8566C4.47123 22.0797 4.16203 22.1038 4.02668 21.899C2.59707 19.7379 1.82919 17.2056 1.82919 14.5549C1.82919 13.6073 1.92763 12.6747 2.11914 11.7689C2.14807 11.6318 2.34142 11.623 2.382 11.7571C2.65899 12.6716 3.10982 13.6175 3.7328 14.574C4.57137 15.8619 5.67725 17.0998 6.98773 18.2354C7.43503 18.623 7.90746 18.9979 8.40018 19.3596C9.39898 20.0925 10.4843 20.7689 11.639 21.3689C12.1509 21.6349 12.6493 21.8887 13.1599 22.1185C13.4441 22.2464 13.7675 22.2564 14.0576 22.1425C14.2983 22.0483 14.5408 21.9502 14.7846 21.8482C15.0499 21.7376 15.1937 21.4485 15.1234 21.1698C15.1147 21.1349 15.1077 21.1069 15.1038 21.0904C14.7018 19.3986 14.4783 17.4941 14.452 15.4993L14.4512 15.4996C14.451 15.4759 14.4511 15.4519 14.4508 15.4279C14.4497 15.3189 14.4503 15.209 14.4483 15.1003C14.4477 15.0656 14.4487 15.0068 14.4491 14.972C14.4494 14.9581 14.4491 14.9443 14.4491 14.9306C14.4493 14.9306 14.4495 14.9305 14.4497 14.9305C14.4503 14.8056 14.4512 14.6808 14.4535 14.5556C14.4596 14.2134 14.4719 13.8737 14.4896 13.5367C14.4893 13.5369 14.4892 13.537 14.4889 13.5371C14.6129 11.1299 15.0211 8.86804 15.6705 6.96535C15.7306 6.78928 15.6367 6.59816 15.4606 6.53807C15.289 6.47943 15.1175 6.4234 14.9463 6.36973C14.7731 6.31541 14.588 6.40887 14.5295 6.58075C13.8256 8.64707 13.3913 11.0985 13.2754 13.6926C13.2607 14.0217 13.0816 14.3212 12.7982 14.4892C11.2618 15.3998 9.85073 16.365 8.63175 17.3381C8.3778 17.5408 8.01506 17.5331 7.76949 17.3201C6.54776 16.2609 5.51951 15.1103 4.7422 13.9166C3.21468 11.5711 2.85168 9.36142 3.72036 7.69579C3.72272 7.69186 3.72481 7.68781 3.72704 7.68401C3.83778 7.50022 3.95298 7.31892 4.07289 7.1401C5.07103 5.81889 6.92882 5.05323 9.3927 4.9667C9.54861 4.9612 9.70556 4.95845 9.86396 4.95845C11.3752 4.95845 12.9971 5.20783 14.6467 5.68379L14.6471 5.6834C14.6832 5.69387 14.7193 5.70474 14.7555 5.71534C14.7833 5.72359 14.8112 5.73131 14.8391 5.73969C14.839 5.73982 14.839 5.73982 14.839 5.73995C15.2202 5.85384 15.6025 5.9799 15.9853 6.11761C15.9854 6.11748 15.9854 6.11748 15.9854 6.11735C15.9943 6.12049 16.0032 6.12403 16.0121 6.12717C16.1119 6.16317 16.2115 6.20008 16.3111 6.23765C16.3423 6.24943 16.3736 6.26134 16.4047 6.27339C16.4347 6.28491 16.4647 6.29603 16.4948 6.30768L16.4944 6.30821C17.3 6.62002 18.1049 6.98263 18.8997 7.39576C20.4383 8.19506 21.8465 9.13207 23.0721 10.1601C20.7332 10.6959 18.0146 11.7295 15.2812 13.1231C15.1551 13.1875 15.0721 13.3142 15.0641 13.4556C15.0546 13.625 15.042 13.9656 15.033 14.2363C15.0273 14.4062 15.2071 14.5188 15.3576 14.4397L15.3592 14.4388C18.0655 13.0177 20.7664 11.9555 23.0859 11.3942C23.5195 11.2894 23.8001 10.873 23.7393 10.4312C23.6966 10.1225 23.6486 9.81866 23.5954 9.5202C23.5286 9.14529 23.3234 8.81005 23.0205 8.57939C21.9341 7.75182 20.7369 6.99271 19.4552 6.32666C18.5915 5.87793 17.7151 5.48469 16.8368 5.14931C16.649 5.07758 16.5685 4.85556 16.6665 4.68002C17.5713 3.06139 18.6475 2.15488 19.6959 2.15488C19.7068 2.15488 19.7176 2.15501 19.7285 2.15514C20.9652 2.17727 22.1983 3.46497 23.1115 5.68811C23.5737 6.8135 23.9318 8.11128 24.1766 9.52164C24.1753 9.52046 24.174 9.51942 24.1728 9.51824C24.2773 10.1201 24.3615 10.7422 24.4239 11.3804C24.4185 11.3838 24.4128 11.3868 24.4074 11.3902C24.4147 11.3976 24.4225 11.4051 24.4299 11.4127C24.5335 12.4835 24.5772 13.5985 24.5568 14.7363C24.5439 15.4561 24.5056 16.1658 24.4435 16.8603C22.789 18.1973 20.7434 19.528 18.4949 20.7196C17.7559 21.1112 17.0171 21.4758 16.2855 21.8114C16.2741 21.8167 16.2628 21.8218 16.2514 21.827C16.1955 21.8526 16.1395 21.8785 16.0836 21.9037C16.0831 21.9036 16.0827 21.9035 16.0823 21.9033C15.4761 22.1776 14.8756 22.4313 14.2851 22.663C14.2852 22.6631 14.2852 22.6634 14.2854 22.6635C14.252 22.6766 14.2189 22.6892 14.1856 22.7021C14.1441 22.7184 14.1026 22.7343 14.0613 22.7503C13.9622 22.7883 13.8635 22.8257 13.765 22.8625C13.7379 22.8726 13.7107 22.8832 13.6836 22.8931C13.5641 22.9375 13.4452 22.9806 13.3268 23.023C13.312 23.0282 13.2972 23.0338 13.2825 23.0391C13.2823 23.0389 13.2821 23.0389 13.282 23.0388C12.0165 23.4895 10.811 23.83 9.7125 24.0414C7.05789 24.5525 5.80789 24.1604 5.52317 23.6233ZM7.42747 3.68182C9.67431 2.07287 12.3592 1.20472 15.1777 1.20472C15.9216 1.20472 16.656 1.26559 17.3755 1.38432C17.5682 1.41613 17.6329 1.6621 17.4792 1.78266C16.7819 2.32932 16.134 3.13817 15.5607 4.18711C15.4207 4.44303 15.124 4.56817 14.8433 4.4891C12.9438 3.95436 11.0749 3.70276 9.3481 3.76337C8.71112 3.78576 8.10791 3.85029 7.54123 3.95475C7.38205 3.98408 7.29592 3.77594 7.42747 3.68182ZM25.7549 13.4116C25.751 13.2586 25.9473 13.1933 26.0361 13.3179C26.1451 13.4709 26.2502 13.6247 26.3509 13.7793C26.4847 13.9849 26.6092 14.1892 26.7249 14.3922C26.797 14.5188 26.7798 14.6776 26.6816 14.7852C26.5257 14.9564 26.3565 15.1334 26.1729 15.3169C26.1059 15.3838 26.0375 15.4508 25.9679 15.518C25.8815 15.6015 25.7366 15.5379 25.7413 15.4177C25.7498 15.1987 25.7561 14.9789 25.76 14.7581C25.7681 14.3057 25.7662 13.8566 25.7549 13.4116ZM24.3724 4.8718C24.4564 4.95139 24.5393 5.03229 24.6214 5.11436C25.908 6.40089 26.8989 7.90419 27.5615 9.54141C27.6284 9.70648 27.4882 9.87928 27.3129 9.84773C26.9295 9.77887 26.4981 9.74811 26.0204 9.7561C25.6893 9.76159 25.4016 9.52963 25.3435 9.20368C25.0839 7.74816 24.7086 6.40364 24.2266 5.23021C24.1991 5.16332 24.1714 5.09722 24.1432 5.03176C24.082 4.88895 24.2597 4.76472 24.3724 4.8718ZM29.4202 11.5281C28.845 8.79519 27.4925 6.28418 25.4714 4.26302C22.7222 1.51391 19.0671 0 15.1791 0C11.2913 0 7.63605 1.51391 4.88693 4.26302C4.21828 4.93168 3.62358 5.65414 3.10507 6.42019C2.95086 6.62545 2.81276 6.84223 2.68997 7.06909C1.3431 9.30715 0.623779 11.876 0.623779 14.5554C0.623779 18.4433 2.13782 22.0985 4.88693 24.8476C7.63605 27.5967 11.2913 29.1109 15.1791 29.1109C19.0671 29.1109 22.7222 27.5967 25.4714 24.8476C26.7689 23.5502 27.7908 22.0508 28.5087 20.4205C28.5964 20.2399 28.673 20.0549 28.7389 19.8663C29.3923 18.1965 29.7346 16.4023 29.7346 14.5554C29.7346 13.5388 29.6302 12.5385 29.4282 11.5658C29.4254 11.5532 29.423 11.5406 29.4202 11.5281ZM110.952 15.9247H108.199C107.94 15.9247 107.778 15.6444 107.908 15.4203L109.289 13.0365C109.419 12.8127 109.742 12.8132 109.871 13.0373L111.243 15.4212C111.372 15.6452 111.21 15.9247 110.952 15.9247ZM114.575 18.1902L110.232 10.6559C109.919 10.1677 109.243 10.1677 108.93 10.6559L104.587 18.1902C104.535 18.2846 104.509 18.3789 104.502 18.4882C104.474 18.9137 104.805 19.294 105.231 19.3038C105.528 19.3107 105.76 19.1608 105.939 18.841L106.61 17.6736C106.698 17.5209 106.861 17.4266 107.037 17.4266H112.112C112.288 17.4266 112.451 17.5209 112.539 17.6736L113.21 18.841C113.38 19.1439 113.608 19.2945 113.884 19.3035C114.306 19.3175 114.662 18.9748 114.662 18.553C114.662 18.4405 114.637 18.3278 114.575 18.1902Z" fill="black"/>
</svg>
