<svg width="136" height="17" viewBox="0 0 136 17" fill="none" xmlns="http://www.w3.org/2000/svg">
<g id="Group 9">
<path id="Vector" d="M8.69046 12.1675H8.59123L2.50499 3.62243V16.5554H0.662109V0.55542H2.57587L8.66211 9.28598L14.7483 0.55542H16.6621V16.5554H14.7767V3.59528L8.69046 12.1675Z" fill="black"/>
<path id="Vector_2" d="M33.3461 2.66659L29.4974 10.7699H37.1758L33.3461 2.66659ZM41.939 16.5554H39.8956L37.9236 12.36H28.7544L26.7538 16.5554H24.8057L32.484 0.55542H34.2702L41.9485 16.5554H41.9437H41.939Z" fill="black"/>
<path id="Vector_3" d="M59.0697 0.55542H61.0903L53.9264 16.5554H52.259L45.0903 0.55542H47.1863L53.1115 14.2421L59.065 0.55542H59.0697Z" fill="black"/>
<path id="Vector_4" d="M82.6885 2.20654H72.1766V7.66653H81.5783V9.31312H72.1766V14.9088H82.8053V16.5554H70.2339V0.55542H82.6787V2.20201L82.6885 2.20654Z" fill="black"/>
<path id="Vector_5" d="M101.879 0.55542H103.662V16.5554H102.205L91.7313 3.43696V16.5554H89.9482V0.55542H91.6625L101.879 13.3753V0.55542Z" fill="black"/>
<path id="Vector_6" d="M119.064 0.55542H120.52V16.5554H118.558V2.41505L115.278 3.34936L114.806 1.89399L119.064 0.55542Z" fill="black"/>
<path id="Vector_7" d="M133.921 0.55542H135.376V16.5554H133.414V2.41505L130.134 3.34936L129.662 1.89399L133.921 0.55542Z" fill="black"/>
</g>
</svg>
