<svg width="344" height="86" viewBox="0 0 344 86" fill="none" xmlns="http://www.w3.org/2000/svg">
<path d="M163.603 75.9073V10.1849H177.547L197.088 59.211L216.714 10.1849H230.836V75.9073H216.892V62.1412C216.892 47.9327 216.892 44.8244 217.605 39.9347L203.66 75.9073H190.515L176.663 39.9347C177.461 44.8183 177.547 50.3284 177.547 57.5217V75.9073H163.603Z" fill="white"/>
<path d="M260.617 8.93787C274.739 8.93787 283.622 16.7516 283.622 29.1909H269.321C269.321 24.5714 265.857 21.7273 260.439 21.7273C254.578 21.7273 250.844 24.3933 250.844 28.7424C250.844 32.7414 252.889 34.6949 257.502 35.6716L267.362 37.7172C279.082 40.1129 284.678 45.709 284.678 56.1027C284.678 68.8062 274.733 77.0621 259.634 77.0621C244.977 77.0621 235.474 69.1563 235.474 56.8092H249.775C249.775 61.6067 253.325 64.2727 259.72 64.2727C266.207 64.2727 270.292 61.6989 270.292 57.5217C270.292 53.879 268.603 52.0177 264.253 51.127L254.216 49.0814C242.495 46.6857 236.451 40.0207 236.451 29.2769C236.463 17.3782 246.501 8.93787 260.617 8.93787Z" fill="white"/>
<path d="M301.995 44.9964V35.7637C302.173 35.5856 302.351 35.4996 302.53 35.3214L316.83 22.7962H292.05V10.1849H334.859V21.6413L321.001 33.8103C329.884 36.4763 337.077 43.5774 337.077 54.7697C337.077 68.628 325.885 77.0622 312.561 77.0622C299.771 77.0622 289.021 69.2484 289.021 54.4134H303.236C303.236 60.9003 307.143 64.3587 312.917 64.3587C318.513 64.3587 322.334 60.5379 322.334 54.6776C322.334 49.4377 319.312 44.9964 311.584 44.9964H301.995Z" fill="white"/>
<path d="M28.417 32.9215L6.9248 54.4137L28.417 75.9059L49.9092 54.4137L28.417 32.9215Z" fill="white"/>
<path d="M52.0845 9.25029L30.5923 30.7425L52.0845 52.2347L73.5767 30.7425L52.0845 9.25029Z" fill="white"/>
<path d="M75.76 32.9223L54.2678 54.4145L75.76 75.9067L97.2522 54.4145L75.76 32.9223Z" fill="white"/>
<path d="M99.4317 9.24654L77.9395 30.7387L99.4317 52.2309L120.924 30.7387L99.4317 9.24654Z" fill="white"/>
<path d="M123.103 32.9227L101.611 54.4149L123.103 75.9071L144.595 54.4149L123.103 32.9227Z" fill="white"/>
<path opacity="0.45" d="M28.4167 75.9073H47.6193L59.518 64.0147L49.9106 54.4135L28.4167 75.9073Z" fill="white"/>
<path opacity="0.45" d="M123.103 75.9073H103.9L92.0078 64.0147L101.609 54.4135L123.103 75.9073Z" fill="white"/>
</svg>
