<svg width="2048" height="2048" viewBox="0 0 2048 2048" fill="none" xmlns="http://www.w3.org/2000/svg">
<rect width="2048" height="2048" fill="white"/>
<path fill-rule="evenodd" clip-rule="evenodd" d="M1599.38 1103.71L1599.38 1103.71C1418.71 1168.46 1208.93 1128.48 1064.23 983.771C919.515 839.061 879.536 629.281 944.289 448.619L944.311 448.557C949.632 433.721 952.297 426.288 959.097 418.348C964.198 412.394 974.056 405.352 981.345 402.464C991.066 398.61 999.211 398.499 1015.47 398.277L1015.53 398.276C1178.49 396.083 1342.15 457.162 1466.49 581.506C1590.84 705.852 1651.91 869.508 1649.72 1032.47C1649.5 1048.77 1649.39 1056.92 1645.53 1066.65C1642.64 1073.94 1635.6 1083.8 1629.65 1088.9C1621.7 1095.71 1614.26 1098.37 1599.38 1103.71ZM1586.03 1299.56L1586.03 1299.57C1556.47 1359.85 1516.62 1416.36 1466.5 1466.49C1222.12 1710.87 825.895 1710.87 581.514 1466.49C337.134 1222.11 337.133 825.883 581.514 581.503C631.64 531.376 688.152 491.534 748.432 461.972C772.113 450.358 783.954 444.551 793.481 446.513C801.777 448.225 808.881 453.543 812.858 461.022C817.424 469.611 814.821 484.74 809.611 514.995C776.282 708.554 834.337 914.779 983.779 1064.22C1133.22 1213.66 1339.45 1271.72 1533.01 1238.39C1563.26 1233.18 1578.39 1230.58 1586.98 1235.14C1594.45 1239.12 1599.78 1246.22 1601.49 1254.52C1603.45 1264.05 1597.64 1275.89 1586.03 1299.56Z" fill="black"/>
</svg>
