<svg width="474" height="194" viewBox="0 0 474 194" fill="none" xmlns="http://www.w3.org/2000/svg">
<g clip-path="url(#clip0_1003_2796)">
<path d="M84.8352 8.24493C93.5611 13.3644 101.264 19.9388 105.573 29.2616L140.907 8.24493L182.113 28.0222L191.485 64.1816L107.135 169.319L89.1443 186.455L21.9225 104.059C18.4752 100.125 15.0818 95.6527 11.7961 90.6949C8.34886 85.791 5.54795 80.6177 3.44727 75.1749C1.13114 69.7322 0 64.3972 0 59.116C0 47.0988 2.26227 36.7522 6.89455 28.0222C11.3114 19.2922 17.6673 12.556 25.8545 7.75993C34.0957 3.01771 43.7911 0.592712 54.9948 0.592712C66.0368 0.592712 75.9477 3.17938 84.8352 8.24493Z" fill="#F9347B"/>
<path d="M92.3763 93.5511H36.4658V162.852H92.3763V93.5511Z" fill="#F9347B"/>
<path d="M91.3519 189.689C93.8297 192.114 96.8999 193.353 100.509 193.353L191.808 192.06C195.47 192.06 198.81 191.575 200.964 188.342C203.765 184.138 196.332 168.025 186.529 166.894C176.78 165.708 149.363 165.654 133.743 164.253C132.504 164.145 132.181 162.367 132.611 161.182C133.743 157.84 179.204 104.005 179.204 104.005C182.651 100.072 186.044 95.5988 189.33 90.6949C192.777 85.7372 195.578 80.5638 197.733 75.121C199.995 69.6783 201.18 64.3433 201.18 59.0622C201.18 47.0449 198.864 36.6983 194.232 27.9683C189.815 19.2383 183.459 12.5022 175.271 7.75993C167.03 2.96382 157.335 0.592712 146.131 0.592712C135.143 0.592712 125.178 3.12549 116.291 8.24493C107.565 13.3105 99.8624 19.9388 95.5533 29.2077C93.0217 34.6505 91.5674 43.4883 93.0217 49.4699C94.2606 54.3738 95.4994 55.6133 99.216 56.8527C102.933 58.0922 104.118 55.3977 105.356 49.4699C106.595 43.5422 108.642 36.8599 111.551 32.1716C115.267 26.2438 122.108 21.8788 127.602 19.831C132.234 18.1066 139.937 16.6516 146.131 17.3522C157.173 18.5916 164.984 22.5255 170.747 29.2077C176.564 35.8899 181.035 46.991 179.742 55.3977L179.688 55.6672C178.934 60.8405 177.857 67.8999 175.271 72.9116C172.632 78.031 164.606 88.1083 159.651 93.8744L91.3519 171.905C89.0897 174.223 87.9047 177.133 87.9047 180.797C87.9047 184.246 89.0897 187.21 91.3519 189.689Z" fill="#1B1B1B"/>
<path d="M23.7004 122.327C23.7004 121.735 23.7004 119.633 23.7004 116.13C23.862 112.412 23.9159 108.262 23.9159 103.682C24.0775 98.9397 24.0775 94.3052 23.9159 89.8864C23.9159 85.3058 23.7543 81.7491 23.485 79.2164C23.1618 75.983 23.1079 73.073 23.2695 70.5402C23.5388 68.0614 23.7004 65.2052 23.7004 62.1336C23.7004 60.0319 23.7543 58.1997 23.9159 56.583C24.0775 54.8047 24.4545 53.2958 25.047 52.1102C25.6395 50.763 26.5552 49.8469 27.9018 49.2541C29.2484 48.4997 31.1875 48.1225 33.6652 48.1225C36.0352 48.1225 38.3513 48.9308 40.5597 50.5475C42.9297 52.218 44.3302 54.4275 44.7611 57.2297L48.1006 101.419L48.8009 157.894L78.5336 156.978C79.557 156.978 81.0652 157.517 83.0043 158.541C85.0511 159.403 86.0745 160.535 86.0745 161.882C86.0745 163.067 85.5897 164.091 84.5125 164.954C83.4891 165.708 82.2502 166.409 80.742 167.001C79.4493 167.432 77.995 167.81 76.5406 168.079C75.1941 168.241 74.2245 168.295 73.632 168.295C72.447 168.456 70.6695 168.618 68.2995 168.78C65.9295 168.78 63.4518 168.78 60.7586 168.78C58.2809 168.78 55.8031 168.78 53.4331 168.78C51.0631 168.78 49.2856 168.78 48.1006 168.78C46.6463 169.48 44.8688 169.804 42.7681 169.642C40.7213 169.48 38.9977 169.426 37.705 169.426H30.8104C29.6254 169.426 28.2788 169.103 26.8245 168.51C25.4779 167.81 24.4545 167.001 23.7004 166.085V122.327Z" fill="#1B1B1B"/>
<path d="M216.855 157.409C216.855 154.607 216.909 151.913 217.07 149.38C217.339 146.901 217.501 144.314 217.501 141.62V134.938C217.501 134.345 217.447 133.321 217.286 131.866C217.124 130.249 216.962 128.579 216.855 126.962C216.855 125.184 216.747 123.567 216.585 122.058C216.478 120.603 216.37 119.579 216.37 118.986V95.6525V73.1809C216.37 69.0314 216.585 65.0436 217.07 61.2175C217.663 57.2297 217.77 53.2959 217.501 49.4159C220.464 46.0209 224.019 43.9731 228.166 43.2186C232.314 42.3025 236.515 41.8714 240.824 41.8714C247.018 41.8714 252.674 43.1109 257.683 45.6436C262.746 48.0147 266.948 52.3259 270.341 58.5231C272.873 63.427 274.65 68.0075 275.674 72.3186C276.697 76.4681 277.236 81.2642 277.236 86.7609V92.9581C276.051 96.6764 274.704 100.071 273.25 103.197C271.903 106.161 269.749 108.909 266.786 111.388C265.763 112.143 264.524 112.897 263.016 113.651C261.561 114.244 260.484 114.891 259.892 115.645C265.547 118.879 269.587 122.759 272.119 127.178C274.812 131.65 276.105 136.985 276.105 143.183V148.949C275.835 150.727 275.081 152.721 273.896 154.984C272.711 157.032 271.526 158.649 270.341 159.834C267.379 162.367 264.793 164.199 262.585 165.385C260.376 166.57 258.114 167.486 255.906 168.079C253.697 168.672 251.327 168.941 248.796 168.941C246.318 168.941 243.248 168.941 239.693 168.941H231.721C230.536 168.672 229.62 168.349 229.028 168.079C228.597 167.756 228.166 167.486 227.735 167.163C227.412 166.732 226.981 166.355 226.389 166.085C225.958 165.6 225.204 165.169 224.18 164.738C223.264 164.307 222.456 163.984 221.702 163.822C221.11 163.714 220.517 163.553 219.925 163.391C219.494 163.229 218.955 163.014 218.363 162.744C217.932 162.421 217.447 161.936 216.855 161.181V157.409ZM235.491 153.853L235.922 156.709C236.838 157.032 237.646 157.409 238.4 157.84C239.1 158.164 239.801 158.433 240.393 158.756C240.986 159.026 241.578 159.241 242.171 159.403H242.601C245.133 159.403 247.611 158.433 250.142 156.493C252.674 154.607 253.913 152.074 253.913 148.949C253.913 147.332 254.074 145.608 254.344 143.829C254.829 142.051 254.667 139.41 253.913 135.854C253.159 131.543 251.112 128.363 247.719 126.315C244.271 124.214 240.824 123.19 237.269 123.19H235.922C235.653 127.501 235.491 131.327 235.491 134.722C235.491 138.171 235.491 141.943 235.491 146.093V153.853ZM235.491 110.526C241.847 107.993 246.318 104.544 248.796 100.071C251.489 95.6525 252.782 90.102 252.782 83.4197C252.782 80.887 252.728 77.8153 252.566 74.097C252.459 70.3786 251.92 66.822 251.058 63.427C250.142 60.032 248.742 57.122 246.803 54.7509C244.864 52.2181 242.171 50.9786 238.616 50.9786C235.491 50.9786 232.367 51.5714 229.243 52.757V54.5353C229.243 56.9064 229.513 59.1159 229.944 61.2175C230.536 63.2653 230.967 65.2053 231.29 66.9836L235.491 110.526ZM287.847 148.086C287.524 141.835 286.985 135.315 286.285 128.525C285.692 121.681 284.938 115.214 284.076 108.963V92.527V75.8753C284.076 75.552 284.076 74.6897 284.076 73.1809C284.184 71.7259 284.292 70.1092 284.292 68.3309C284.4 66.5525 284.561 64.8281 284.723 63.2114C284.884 61.4331 284.992 60.1936 285.154 59.4392C285.585 55.7209 287.47 52.9725 290.702 51.1942C294.095 49.4159 297.973 48.2303 302.282 47.6375C306.699 46.937 311.116 46.6136 315.587 46.7753C320.004 46.7753 323.559 46.7753 326.252 46.7753H324.905C325.929 46.7753 327.329 46.9909 329.106 47.422C331.046 47.7453 332.015 48.5536 332.015 49.847C332.015 50.9247 331.584 51.7331 330.669 52.3259C329.968 52.757 329.053 52.9725 328.029 52.9725C328.029 52.9725 327.114 53.1342 325.336 53.4036C323.559 53.5653 321.512 53.8886 319.142 54.3197C316.933 54.5892 314.671 54.9664 312.463 55.4514C310.416 55.7209 309.123 55.9364 308.692 56.0981C306.753 56.5292 305.514 57.5531 304.922 59.2236V64.7742V70.7559C305.083 73.127 305.245 76.1447 305.353 79.8631C305.676 83.5814 305.891 87.2459 306.053 90.9642C306.161 94.5209 306.322 97.7003 306.484 100.503C306.645 103.197 306.699 104.598 306.699 104.76L307.615 107.185C310.524 107.185 313.594 107.131 316.718 106.969C319.788 106.7 322.697 106.43 325.336 106.323C327.598 106.161 329.591 106.538 331.369 107.4C333.254 108.316 334.224 109.502 334.224 110.957C334.224 112.143 333.793 113.113 332.877 113.867C332.177 114.46 331.207 114.945 330.022 115.43C328.837 115.699 327.652 116.023 326.467 116.292C325.282 116.454 324.366 116.615 323.774 116.723C321.566 117.046 319.95 117.316 318.926 117.639C317.903 117.801 316.933 117.909 316.018 118.07C315.156 118.07 314.079 118.07 312.894 118.07C311.87 118.07 310.254 118.07 308.046 118.07C308.046 123.836 307.938 129.549 307.83 135.207C307.669 140.65 307.615 146.308 307.615 152.074C309.823 152.074 311.493 152.074 312.678 152.074C313.863 151.913 314.994 151.859 316.018 151.859C317.041 151.697 318.172 151.643 319.357 151.643C320.704 151.481 322.481 151.428 324.69 151.428C325.444 151.428 326.467 151.481 327.814 151.643C329.268 151.751 330.669 152.074 332.015 152.505C333.469 152.829 334.762 153.314 335.786 154.068C336.809 154.823 337.348 155.846 337.348 157.194C337.348 158.379 336.917 159.403 336.001 160.265C335.139 161.02 334.008 161.72 332.661 162.313C331.476 162.744 330.291 163.175 329.106 163.606C327.921 163.93 327.06 164.145 326.467 164.307H312.463H307.615C307.292 164.307 306.645 164.307 305.568 164.307C304.706 164.145 303.683 164.091 302.498 164.091C301.421 163.93 300.397 163.822 299.374 163.822C298.458 163.714 297.812 163.606 297.381 163.606C295.765 163.606 293.987 163.337 292.048 162.744C290.109 161.99 288.709 160.966 287.847 159.619V148.086ZM339.718 162.044C339.718 159.565 339.879 156.17 340.149 151.859C340.633 147.386 341.064 143.129 341.495 138.979C341.926 134.668 342.303 130.95 342.626 127.878C343.057 124.753 343.273 123.136 343.273 122.974L351.729 60.517C351.729 60.4092 351.783 59.8164 351.945 58.7386C352.214 57.7147 352.537 56.5292 352.806 55.182C353.13 53.8886 353.399 52.5953 353.722 51.4097C353.991 50.1164 354.261 49.1464 354.369 48.5536C354.53 47.7992 354.692 46.9909 354.853 46.0747C355.123 45.0509 355.392 44.0809 355.715 43.2186C355.984 42.3025 356.469 41.602 357.062 41.0092C357.654 40.4164 358.462 40.0931 359.486 40.0931H367.942C369.127 40.0931 370.151 40.6859 371.012 41.8714C371.928 43.057 372.574 44.1886 373.059 45.2125C373.49 46.5597 374.083 48.2303 374.837 50.332C375.698 52.2181 376.614 54.1581 377.476 56.0981C378.392 58.0381 379.092 59.8164 379.684 61.4331C380.277 62.8881 380.6 63.6964 380.6 63.8581C385.609 80.2942 390.673 96.6225 395.682 112.735C400.745 128.902 404.785 144.53 407.909 159.619V160.75C407.909 163.121 406.778 164.9 404.569 166.085C402.523 167.271 400.637 167.864 399.021 167.864C398.429 167.864 397.459 167.864 396.113 167.864C394.82 167.702 393.366 167.54 391.911 167.379C390.565 167.109 389.326 166.678 388.141 166.085C387.118 165.493 386.525 164.684 386.364 163.606L380.115 129.387C377.207 129.387 373.544 129.495 369.235 129.656C365.141 129.764 361.478 129.872 358.354 129.872L357.493 130.519C356.9 142.374 355.5 154.122 353.291 165.87L352.376 167.163C352.106 167.486 351.406 168.133 350.383 169.157C349.521 170.073 348.928 170.666 348.605 170.935H347.959C345.589 170.935 343.596 170.289 341.926 168.941C340.472 167.648 339.718 166.139 339.718 164.523V162.044ZM376.83 117.208V113.867C376.668 113.274 376.453 112.304 376.129 110.957C376.022 109.502 375.752 107.993 375.483 106.538C375.16 105.029 374.891 103.736 374.567 102.55C374.46 101.203 374.298 100.287 374.136 99.8559C373.867 98.5086 373.275 96.4609 372.359 93.6586C371.605 90.6947 370.743 87.6231 369.72 84.5514C368.804 81.4259 367.942 78.462 367.026 75.6597C366.165 72.8036 365.464 70.7559 365.033 69.4086L358.839 117.208H376.83ZM428.646 159.403V153.853C428.646 152.074 428.646 149.272 428.646 145.392C428.808 141.404 428.916 136.985 428.916 132.081C429.023 127.178 429.185 122.058 429.347 116.723C429.508 111.28 429.616 106.107 429.778 101.203C429.939 96.2992 430.101 91.9342 430.209 88.1081C430.37 84.2281 430.532 81.372 430.693 79.432C430.693 75.7136 430.909 72.1031 431.34 68.5464C431.932 64.9897 432.148 61.2175 431.986 57.2297H413.996C412.972 57.2297 411.787 56.9603 410.441 56.5292C409.256 55.9364 408.663 55.0742 408.663 53.8886C408.663 52.8109 408.932 52.1103 409.363 51.6253C409.956 51.1942 410.818 50.7631 412.003 50.332C416.473 50.332 420.675 50.1703 424.661 49.847C428.808 49.5775 432.902 49.2542 436.888 48.9847C440.874 48.5536 444.967 48.1764 449.115 47.8531C453.262 47.5836 457.625 47.422 462.203 47.422H469.744L474 49.6314V51.1942C474 52.7031 473.084 53.727 471.306 54.3197C469.691 54.9125 467.698 55.3436 465.328 55.667C462.365 56.0981 459.241 56.2597 456.009 56.0981C452.885 55.9364 450.784 56.0981 449.761 56.5292V75.1747C449.761 83.6353 449.976 91.9881 450.461 100.287C450.892 108.586 451.108 116.723 451.108 124.753C451.108 128.579 451.108 132.243 451.108 135.638C451.269 139.033 451.323 142.374 451.323 145.608C451.323 148.895 451.161 152.128 450.892 155.415C450.731 158.649 450.353 162.151 449.761 165.87C449.007 166.732 448.091 167.486 446.906 168.079C445.721 168.51 444.59 168.888 443.567 169.157H438.019C436.349 169.157 434.679 169.157 432.902 169.157C431.124 169.049 429.724 167.918 428.646 165.87V159.403Z" fill="#1B1B1B"/>
</g>
<defs>
<clipPath id="clip0_1003_2796">
<rect width="474" height="194" fill="white"/>
</clipPath>
</defs>
</svg>
