<?xml version="1.0" encoding="UTF-8"?>
<svg id="Layer_1" data-name="Layer 1" xmlns="http://www.w3.org/2000/svg" version="1.1" viewBox="0 0 1813 356">
  <defs>
    <style>
      .cls-1 {
        fill: #000;
        stroke-width: 0px;
      }
    </style>
  </defs>
  <path class="cls-1" d="M22.1,176.6h20.3c5.4.4,10.8-.6,15.6-2.8,1.5-1,2.7-2.5,3.5-4.1.8-1.7,1.1-3.5.9-5.3.2-1.8,0-3.6-.7-5.3-.7-1.7-1.8-3.1-3.2-4.3-4.6-2.3-9.7-3.2-14.8-2.7h-21.7v24.6ZM0,222v-88h52.3c8.7-.5,17.3,2.3,24,8,2.9,2.8,5.2,6.3,6.7,10.1,1.5,3.8,2.1,7.9,1.9,12,.2,4.1-.4,8.1-1.9,11.9-1.5,3.8-3.8,7.2-6.7,10-6.7,5.6-15.3,8.4-24,7.9h-30.1v28.1H0ZM123.3,185.6h23.3l-11.9-27.2-11.5,27.2ZM83.9,222l41.9-88h21.2l40.2,88h-24.6l-8.1-18.6h-38.9l-7.9,18.6h-23.9ZM215,171.5h25c4.8.4,9.6-.5,13.9-2.4,1.3-.8,2.4-2,3.1-3.4.7-1.4,1-3,.9-4.5.1-1.5-.1-3-.8-4.3-.7-1.3-1.7-2.4-3-3.2-4.8-1.8-10-2.6-15.2-2.1h-24v20ZM192.9,222v-88h54.2c9.1-.7,18.1,1.3,26,5.8,2.8,2,5,4.7,6.5,7.9,1.5,3.1,2.1,6.6,1.8,10,0,4.8-1.3,9.6-3.9,13.7-2.6,3.9-6.4,6.9-10.8,8.6,3.3,1.2,6.1,3.3,8.2,6,1.9,3.9,2.9,8.3,2.8,12.7,0,.6,0,1.4.1,2.4.5,10.9,2,17.9,4.7,20.9h-24.8c-.6-1-1.1-2-1.3-3.2-.3-1.2-.5-2.4-.4-3.7v-5.9c.6-5.5-.5-11-3.1-15.9-1.7-1.5-3.6-2.5-5.7-3.2-2.1-.6-4.3-.8-6.5-.6h-25.6v32.4h-22.1ZM339.1,151.8v70.2h-22v-70.2h-30.2v-17.8h82.4v17.8h-30.2ZM378.9,222v-88h22.1v88h-22.1ZM520.1,187.9c-.5,5.3-2.1,10.4-4.8,15-2.7,4.6-6.4,8.5-10.8,11.5-10.4,7-22.7,10.4-35.2,9.9-14,.7-27.7-3.8-38.6-12.6-4.8-4.2-8.5-9.4-11-15.2-2.5-5.8-3.6-12.1-3.4-18.5-.3-6.3.9-12.7,3.4-18.5,2.5-5.8,6.2-11,11-15.3,10.8-8.8,24.6-13.3,38.6-12.6,12.3-.5,24.5,2.8,34.9,9.5,4.3,2.7,7.9,6.4,10.6,10.7,2.7,4.3,4.4,9.2,4.9,14.2h-24.1c-1.2-5.1-4.4-9.4-8.9-12.2-5.3-3-11.4-4.4-17.5-4.1-3.8-.2-7.6.4-11.2,1.7-3.6,1.3-6.9,3.3-9.7,5.9-2.6,2.7-4.6,6-6,9.5-1.3,3.6-1.9,7.3-1.7,11.1-.2,3.8.4,7.5,1.7,11.1,1.3,3.5,3.3,6.8,6,9.5,2.8,2.6,6.1,4.6,9.7,5.9,3.6,1.3,7.4,1.9,11.2,1.6,6.5.3,13-1.4,18.5-4.8,2.3-1.5,4.1-3.5,5.5-5.8,1.4-2.3,2.3-4.9,2.5-7.6h24.2ZM534.9,222v-88h22.1v69.5h45.4v18.5h-67.6ZM615.9,222v-88h78.3v17.8h-56.2v14.9h50.1v17.9h-50.1v18.9h56.2v18.5h-78.4ZM753.3,222v-88h27.2l44.1,62v-62h21.2v88h-26.9l-44.5-62.6v62.6h-21.1ZM865.6,222v-88h78.3v17.8h-56.2v14.9h50.1v17.9h-50.1v18.9h56.2v18.5h-78.4ZM1000,151.8v70.2h-22v-70.2h-30.2v-17.8h82.4v17.8h-30.2ZM1055.7,222l-28.1-88h23l17.6,59.2,20.8-59.2h21.8l20.1,59.2,18.1-59.2h23l-28.6,88h-22.5l-21.1-64.1-22.1,64.1h-21.8ZM1227.9,206.1c3.8.2,7.6-.4,11.2-1.6,3.6-1.3,6.9-3.3,9.7-5.9,2.6-2.7,4.6-6,5.9-9.5,1.3-3.5,1.9-7.3,1.7-11.1.2-3.8-.3-7.6-1.7-11.1-1.3-3.6-3.3-6.8-6-9.6-5.9-4.9-13.3-7.5-20.9-7.5s-15,2.7-20.9,7.6c-2.6,2.7-4.7,6-6,9.6-1.3,3.6-1.9,7.4-1.7,11.1-.2,3.8.4,7.5,1.7,11.1,1.3,3.5,3.3,6.8,6,9.5,2.8,2.6,6.1,4.6,9.7,5.9,3.6,1.3,7.4,1.8,11.2,1.6h0ZM1175,178c-.3-6.3.9-12.6,3.4-18.5,2.5-5.8,6.2-11,11-15.2,11.2-8.2,24.7-12.6,38.5-12.6s27.4,4.4,38.5,12.6c4.8,4.2,8.5,9.4,11,15.3,2.5,5.8,3.6,12.1,3.3,18.5.3,6.3-.9,12.6-3.3,18.5-2.5,5.8-6.2,11-11,15.2-11.2,8.2-24.7,12.6-38.5,12.6s-27.3-4.4-38.5-12.6c-4.8-4.2-8.5-9.4-11-15.2-2.5-5.8-3.6-12.1-3.4-18.5ZM1318,171.5h25c4.8.4,9.6-.5,13.9-2.4,1.3-.8,2.4-2,3.1-3.4.7-1.4,1-3,.9-4.5.1-1.5-.1-3-.8-4.3-.7-1.3-1.7-2.4-3-3.2-4.8-1.8-10-2.6-15.2-2.1h-24v20ZM1295.9,222v-88h54.2c9-.7,18.1,1.3,26,5.8,2.8,2,5,4.7,6.5,7.9,1.5,3.1,2.1,6.6,1.8,10,0,4.8-1.3,9.6-3.9,13.7-2.6,3.9-6.3,6.9-10.8,8.6,3.3,1.2,6.1,3.3,8.2,6,1.9,3.9,2.9,8.3,2.8,12.7,0,.6,0,1.4.1,2.4.5,10.9,2,17.9,4.6,20.9h-24.8c-.6-1-1.1-2-1.3-3.2-.3-1.2-.5-2.4-.5-3.7v-5.9c.6-5.5-.5-11-3.1-15.9-1.7-1.5-3.6-2.5-5.7-3.2-2.1-.6-4.3-.8-6.5-.6h-25.6v32.4h-22.1ZM1400.5,222v-88h22.1v33.8l37.1-33.8h28.5l-38.8,34.1,43.6,53.8h-27.1l-32.1-40.3-11.2,9.9v30.5h-22.1Z"/>
  <path class="cls-1" d="M1645.4,351.6c-4.8-3.6-8.1-9-9-14.9-.9-6,.5-12.1,4-17,1.7-2.4,3.9-4.5,6.4-6,2.5-1.6,5.3-2.6,8.3-3.1,2.9-.5,5.9-.4,8.8.3,2.9.7,5.6,2,8,3.7,4.9,3.6,8.1,9,9,14.9.9,6-.5,12.1-4,17-1.7,2.4-3.9,4.5-6.4,6-2.5,1.6-5.3,2.6-8.3,3.1-2.9.5-5.9.4-8.8-.3-2.9-.7-5.6-2-8-3.7ZM1591.8,345.8c-3.5-4.9-5-11-4-17,.9-6,4.2-11.3,9-14.9,2.4-1.8,5.1-3,8-3.7,2.9-.7,5.9-.8,8.8-.3,2.9.5,5.8,1.5,8.3,3.1,2.5,1.6,4.7,3.6,6.4,6,3.5,4.9,5,11,4,17-.9,6-4.2,11.3-9,14.9-2.4,1.8-5.1,3-8,3.7-2.9.7-5.9.8-8.8.4-2.9-.5-5.8-1.5-8.3-3.1-2.5-1.6-4.7-3.6-6.4-6.1h0ZM1698.1,340.4c-5.7-1.9-10.5-6-13.2-11.4-2.7-5.4-3.2-11.6-1.3-17.4.9-2.8,2.3-5.5,4.3-7.7,1.9-2.3,4.3-4.1,6.9-5.5,2.6-1.4,5.5-2.2,8.5-2.4,3-.2,5.9.1,8.8,1,5.7,1.9,10.5,6,13.2,11.4,2.7,5.4,3.2,11.6,1.3,17.4-1.4,4.6-4.3,8.5-8.2,11.4-3.9,2.8-8.5,4.4-13.3,4.4-2.4,0-4.7-.4-7-1.1ZM1542.7,323.6c-1.9-5.7-1.4-12,1.3-17.4,2.7-5.4,7.4-9.5,13.2-11.4,2.8-.9,5.8-1.3,8.8-1,3,.2,5.9,1.1,8.5,2.4,2.6,1.4,5,3.2,6.9,5.5,1.9,2.3,3.4,4.9,4.3,7.7,1.9,5.7,1.4,12-1.3,17.4-2.7,5.4-7.4,9.5-13.2,11.4-2.2.7-4.6,1.1-7,1.1-4.8,0-9.5-1.6-13.3-4.4s-6.7-6.8-8.2-11.4ZM1722.2,290.5c0-4.4,1.4-8.8,3.9-12.4,2.5-3.7,6.1-6.5,10.2-8.2,4.1-1.7,8.7-2.1,13-1.2,4.4.9,8.4,3.1,11.5,6.2,3.1,3.2,5.3,7.2,6.1,11.5.9,4.4.4,8.9-1.3,13-1.7,4.1-4.6,7.6-8.3,10.1-3.7,2.5-8.1,3.8-12.5,3.8-3,0-5.9-.6-8.7-1.8-2.8-1.2-5.2-2.8-7.3-5-2.1-2.1-3.8-4.6-4.9-7.4-1.1-2.8-1.7-5.7-1.7-8.7ZM1502.5,287.1c0-3,.6-5.9,1.8-8.7,1.2-2.7,2.8-5.2,5-7.3,2.1-2.1,4.6-3.7,7.4-4.9,2.8-1.1,5.7-1.7,8.7-1.7,6,0,11.7,2.4,16,6.6,4.2,4.2,6.6,10,6.6,15.9s-2.4,11.7-6.6,15.9c-4.2,4.2-10,6.6-16,6.6-3,0-5.9-.5-8.7-1.7-2.8-1.1-5.3-2.8-7.4-4.9-2.1-2.1-3.8-4.6-5-7.3-1.2-2.7-1.8-5.7-1.8-8.7ZM1611,281.7c-2.1-2.9-3-6.6-2.4-10.2.6-3.6,2.5-6.8,5.4-9,1.4-1.1,3.1-1.8,4.8-2.2,1.7-.4,3.5-.5,5.3-.2,1.8.3,3.4.9,5,1.9,1.5.9,2.8,2.2,3.9,3.6,2.1,2.9,3,6.6,2.4,10.2-.6,3.6-2.5,6.8-5.4,9-1.4,1.1-3.1,1.8-4.8,2.2-1.7.4-3.5.5-5.3.2-1.8-.3-3.5-.9-5-1.9-1.5-.9-2.8-2.2-3.9-3.6ZM1644.5,284.6c-2.9-2.2-4.8-5.4-5.4-8.9-.6-3.6.3-7.2,2.4-10.2,1-1.5,2.3-2.7,3.9-3.6,1.5-.9,3.2-1.6,5-1.9,1.8-.3,3.6-.2,5.3.2,1.7.4,3.4,1.2,4.8,2.2,2.9,2.2,4.8,5.4,5.4,9,.6,3.6-.3,7.2-2.4,10.2-1,1.5-2.3,2.7-3.9,3.6-1.5.9-3.2,1.6-5,1.9-1.8.3-3.6.2-5.3-.2-1.7-.4-3.4-1.2-4.8-2.2h0ZM1579.9,268.4c-1.1-3.4-.8-7.2.8-10.4,1.6-3.2,4.5-5.7,7.9-6.8,1.7-.6,3.5-.8,5.3-.6,1.8.1,3.5.6,5.1,1.5,1.6.8,3,1.9,4.1,3.3,1.2,1.4,2,2.9,2.6,4.6,1.1,3.4.8,7.2-.8,10.4-1.6,3.2-4.5,5.7-7.9,6.8-1.3.4-2.8.7-4.2.7-2.9,0-5.7-.9-8-2.6-2.3-1.7-4-4.1-4.9-6.8ZM1677.3,276.9c-3.4-1.2-6.3-3.6-7.9-6.8-1.6-3.2-1.9-7-.8-10.4.5-1.7,1.4-3.3,2.5-4.6,1.2-1.4,2.6-2.5,4.2-3.3,1.6-.8,3.3-1.3,5.1-1.5,1.8-.1,3.6,0,5.3.6,3.4,1.2,6.3,3.6,7.9,6.8,1.6,3.2,1.9,7,.8,10.4-.9,2.7-2.6,5.1-4.9,6.8-2.3,1.7-5.1,2.6-8,2.6-1.4,0-2.8-.2-4.2-.7ZM1752.4,258.3c-1.9-5.7-1.4-12,1.3-17.4,2.7-5.4,7.5-9.5,13.2-11.4,2.8-.9,5.8-1.3,8.8-1,3,.2,5.9,1.1,8.5,2.4,2.7,1.4,5,3.2,6.9,5.5,1.9,2.3,3.4,4.9,4.2,7.7,1.9,5.7,1.4,12-1.3,17.4-2.7,5.4-7.5,9.5-13.2,11.4-2.3.7-4.6,1.1-7,1.1-4.8,0-9.4-1.6-13.3-4.4-3.9-2.8-6.7-6.8-8.2-11.4ZM1554.3,246.1c0-2.7.7-5.4,2.2-7.7,1.5-2.3,3.6-4.1,6.1-5.1,2.5-1.1,5.3-1.4,7.9-.9,2.7.5,5.1,1.8,7.1,3.7,1.9,1.9,3.3,4.4,3.8,7,.6,2.7.3,5.4-.8,7.9-1,2.5-2.8,4.7-5.1,6.2-2.3,1.5-4.9,2.3-7.6,2.3-1.8,0-3.6-.3-5.2-1-1.7-.7-3.2-1.7-4.4-2.9-1.3-1.3-2.3-2.8-3-4.4-.7-1.6-1.1-3.4-1.1-5.2ZM1692.7,245.7c0-2.7.9-5.3,2.4-7.5,1.5-2.2,3.6-3.9,6.1-4.9,2.5-1,5.2-1.2,7.8-.7,2.6.5,5,1.8,6.9,3.7,1.9,1.9,3.2,4.3,3.7,6.9.5,2.6.2,5.3-.8,7.8-1,2.5-2.8,4.6-5,6-2.2,1.5-4.8,2.3-7.5,2.3-1.8,0-3.6-.4-5.2-1.1s-3.1-1.7-4.4-3c-1.3-1.3-2.3-2.8-2.9-4.4-.7-1.7-1-3.4-1-5.2ZM1617.2,233.1c-1.1-1.6-1.6-3.5-1.3-5.4.3-1.9,1.4-3.6,2.9-4.8.8-.6,1.6-1,2.6-1.2.9-.2,1.9-.3,2.8-.1.9.2,1.8.5,2.7,1,.8.5,1.5,1.2,2.1,1.9,1.1,1.6,1.6,3.5,1.3,5.4-.3,1.9-1.3,3.6-2.9,4.8-.8.6-1.6,1-2.6,1.2-.9.2-1.9.3-2.8.1-.9-.1-1.8-.5-2.6-1-.8-.5-1.5-1.2-2.1-1.9h0ZM1635.6,234.6c-1.6-1.2-2.6-2.9-2.9-4.8-.3-1.9.2-3.9,1.3-5.4.6-.8,1.2-1.4,2.1-1.9.8-.5,1.7-.8,2.6-1,.9-.2,1.9-.1,2.8.1.9.2,1.8.6,2.6,1.2,1.6,1.2,2.6,2.9,2.9,4.8.3,1.9-.2,3.9-1.3,5.4-.6.8-1.2,1.4-2.1,1.9-.8.5-1.7.8-2.6,1-.9.1-1.9.1-2.8-.1-.9-.2-1.8-.6-2.6-1.2ZM1711.2,224.9c-1.1-3.4-.8-7.2.8-10.4,1.6-3.2,4.5-5.7,7.9-6.8,1.7-.6,3.5-.8,5.3-.6,1.8.1,3.5.6,5.1,1.5,1.6.8,3,1.9,4.1,3.3,1.2,1.4,2,2.9,2.6,4.6,1.1,3.4.8,7.2-.8,10.4-1.6,3.2-4.5,5.7-7.9,6.8-1.4.4-2.8.7-4.2.7-2.9,0-5.7-.9-8-2.6-2.3-1.7-4-4.1-4.9-6.8ZM1600.2,226c-.6-1.8-.4-3.8.4-5.6.9-1.7,2.4-3,4.2-3.6.9-.3,1.9-.4,2.8-.3,1,0,1.9.3,2.7.8.8.4,1.6,1,2.2,1.8.6.7,1.1,1.6,1.4,2.5.6,1.8.4,3.8-.4,5.6-.9,1.7-2.4,3-4.2,3.6-.7.2-1.5.4-2.2.4-1.5,0-3-.5-4.3-1.4-1.2-.9-2.2-2.2-2.6-3.6ZM1653.4,230.3c-1.8-.6-3.3-1.9-4.2-3.6-.9-1.7-1-3.7-.4-5.6.3-.9.8-1.8,1.4-2.5.6-.7,1.4-1.3,2.2-1.8.8-.4,1.8-.7,2.7-.8,1,0,1.9,0,2.8.3,1.8.6,3.3,1.9,4.2,3.6.9,1.7,1,3.7.4,5.6-.5,1.5-1.4,2.7-2.6,3.6-1.2.9-2.7,1.4-4.3,1.4-.8,0-1.5-.1-2.2-.4h0ZM1771.4,218.3c-3.5-4.9-5-11-4-17,.9-6,4.2-11.3,9-14.9,2.4-1.8,5.1-3,8-3.7,2.9-.7,5.9-.8,8.8-.3,2.9.5,5.8,1.5,8.3,3.1,2.5,1.6,4.7,3.6,6.4,6,3.5,4.9,5,11,4,17-.9,6-4.2,11.3-9,14.9-2.4,1.8-5.1,3-8,3.7-2.9.7-5.9.8-8.8.4-2.9-.5-5.8-1.5-8.3-3.1-2.5-1.6-4.7-3.6-6.5-6.1h0ZM1586.2,213.9c0-1.4.4-2.9,1.2-4.1.8-1.2,1.9-2.2,3.3-2.7,1.3-.6,2.8-.7,4.2-.5s2.7,1,3.8,2c1,1,1.7,2.3,2,3.7.3,1.4.2,2.9-.4,4.2-.6,1.3-1.5,2.5-2.7,3.3-1.2.8-2.6,1.2-4.1,1.2-1.9,0-3.8-.7-5.2-2.1-1.4-1.3-2.2-3.2-2.2-5.1ZM1661.9,213.3c0-1.4.5-2.8,1.3-4,.8-1.2,1.9-2.1,3.2-2.6,1.3-.5,2.8-.7,4.2-.4,1.4.3,2.7,1,3.7,2,1,1,1.7,2.3,1.9,3.7.3,1.4.1,2.8-.4,4.1-.5,1.3-1.5,2.4-2.7,3.2-1.2.8-2.6,1.2-4,1.2-1.9,0-3.8-.8-5.1-2.2s-2.1-3.2-2.1-5.1h0ZM1672,201.8c-.6-1.8-.4-3.8.4-5.6.9-1.7,2.4-3,4.2-3.6.9-.3,1.9-.4,2.8-.3.9,0,1.9.3,2.7.8.8.4,1.6,1,2.2,1.8.6.7,1.1,1.6,1.4,2.5.6,1.8.5,3.8-.4,5.6-.9,1.7-2.4,3-4.2,3.6-.7.2-1.5.4-2.2.4-1.5,0-3-.5-4.3-1.4s-2.2-2.2-2.6-3.7h0ZM1722.5,199.3c-2.1-2.9-3-6.6-2.4-10.2.6-3.6,2.5-6.8,5.4-9,1.4-1.1,3.1-1.8,4.8-2.2,1.7-.4,3.5-.5,5.3-.2,1.8.3,3.5.9,5,1.9,1.5.9,2.8,2.2,3.9,3.6,2.1,2.9,3,6.6,2.4,10.2-.6,3.6-2.5,6.8-5.4,9-1.4,1.1-3.1,1.8-4.8,2.2-1.7.4-3.5.5-5.3.2-1.8-.3-3.4-.9-5-1.9s-2.8-2.2-3.9-3.6ZM1678,187.8c-1.1-1.6-1.6-3.5-1.3-5.4.3-1.9,1.3-3.6,2.9-4.8.8-.6,1.6-1,2.6-1.2.9-.2,1.9-.3,2.8-.1.9.2,1.8.5,2.7,1,.8.5,1.5,1.2,2.1,1.9,1.1,1.6,1.6,3.5,1.3,5.4-.3,1.9-1.3,3.6-2.9,4.8-.8.6-1.6,1-2.6,1.2-.9.2-1.9.3-2.8.1-.9-.1-1.8-.5-2.7-1-.8-.5-1.5-1.2-2.1-1.9ZM1777.1,174.3c-4.8-3.6-8.1-9-9-14.9-.9-6,.5-12.1,4-17,1.7-2.4,3.9-4.5,6.5-6,2.5-1.6,5.3-2.6,8.3-3.1,2.9-.5,5.9-.4,8.8.4,2.9.7,5.6,2,8,3.7,4.9,3.6,8.1,9,9,14.9.9,6-.5,12.1-4,17-1.7,2.4-3.9,4.5-6.5,6.1-2.5,1.6-5.3,2.6-8.3,3.1-2.9.5-5.9.4-8.8-.4-2.9-.7-5.6-2-8-3.7ZM1725.4,171.5c-2.9-2.2-4.8-5.4-5.4-9-.6-3.6.3-7.2,2.4-10.2,1-1.5,2.3-2.7,3.9-3.6,1.5-.9,3.2-1.6,5-1.9s3.6-.2,5.3.2c1.7.4,3.4,1.2,4.8,2.2,2.9,2.2,4.8,5.4,5.4,9s-.3,7.2-2.4,10.2c-1,1.5-2.3,2.7-3.9,3.6-1.5.9-3.2,1.6-5,1.9s-3.6.2-5.3-.2c-1.7-.4-3.4-1.2-4.8-2.2ZM1679.5,172.5c-1.6-1.2-2.6-2.9-2.9-4.8-.3-1.9.2-3.9,1.3-5.4.5-.8,1.2-1.4,2.1-1.9.8-.5,1.7-.8,2.7-1,.9-.2,1.9-.1,2.8.1.9.2,1.8.6,2.6,1.2,1.6,1.1,2.6,2.9,2.9,4.8.3,1.9-.2,3.9-1.3,5.4-.5.8-1.2,1.4-2.1,1.9-.8.5-1.7.8-2.7,1-.9.2-1.9.1-2.8-.1-.9-.2-1.8-.6-2.6-1.2ZM1676.2,157.5c-1.8-.6-3.3-1.9-4.2-3.6-.9-1.7-1-3.7-.4-5.6.3-.9.8-1.8,1.4-2.5.6-.7,1.4-1.3,2.2-1.8.8-.4,1.8-.7,2.7-.8.9,0,1.9,0,2.8.3,1.8.6,3.3,1.9,4.2,3.6.9,1.7,1,3.7.4,5.5-.5,1.5-1.4,2.7-2.6,3.6-1.2.9-2.7,1.4-4.3,1.4-.8,0-1.5-.1-2.2-.4h0ZM1585.7,137.6c0-1.4.5-2.8,1.3-4,.8-1.2,1.9-2.1,3.3-2.6,1.3-.5,2.8-.7,4.2-.4,1.4.3,2.7,1,3.7,2,1,1,1.7,2.3,1.9,3.7.3,1.4.1,2.8-.4,4.1-.6,1.3-1.5,2.4-2.7,3.2-1.2.8-2.6,1.2-4,1.2-1,0-1.9-.2-2.8-.6-.9-.4-1.7-.9-2.3-1.6-.7-.7-1.2-1.5-1.6-2.4-.3-.9-.5-1.8-.5-2.8h0ZM1719.7,144c-3.4-1.2-6.3-3.6-7.9-6.8-1.6-3.2-1.9-7-.8-10.4.5-1.7,1.4-3.3,2.6-4.6,1.2-1.4,2.6-2.5,4.2-3.3,1.6-.8,3.3-1.3,5.1-1.5,1.8-.1,3.6,0,5.3.6,3.4,1.1,6.3,3.6,7.9,6.8,1.6,3.2,1.9,7,.8,10.4-.9,2.7-2.6,5.1-4.9,6.8-2.3,1.7-5.1,2.6-8,2.6-1.4,0-2.8-.2-4.2-.7ZM1661.2,136.9c0-1.4.4-2.9,1.2-4.1.8-1.2,1.9-2.2,3.3-2.7,1.3-.6,2.8-.7,4.2-.5,1.4.3,2.7,1,3.8,2,1,1,1.7,2.3,2,3.7.3,1.4.2,2.9-.4,4.2-.6,1.3-1.5,2.5-2.7,3.3-1.2.8-2.6,1.2-4.1,1.2-1.9,0-3.8-.7-5.2-2.1-1.4-1.3-2.2-3.2-2.2-5.1ZM1604.1,134.5c-1.8-.6-3.3-1.9-4.2-3.6-.9-1.7-1-3.7-.4-5.6.3-.9.7-1.8,1.4-2.5.6-.7,1.4-1.3,2.2-1.8.8-.4,1.8-.7,2.7-.8.9,0,1.9,0,2.8.3,1.8.6,3.3,1.9,4.2,3.6s1,3.7.4,5.6c-.5,1.5-1.4,2.7-2.6,3.6-1.2.9-2.7,1.4-4.3,1.4-.8,0-1.5-.1-2.2-.4h0ZM1648,129.4c-.6-1.8-.4-3.8.4-5.6.9-1.7,2.4-3,4.2-3.7.9-.3,1.9-.4,2.8-.3,1,0,1.9.3,2.7.8.8.4,1.6,1,2.2,1.8.6.7,1.1,1.6,1.4,2.5.6,1.8.4,3.8-.4,5.6s-2.4,3-4.2,3.6c-.7.2-1.5.4-2.2.4-1.5,0-3-.5-4.2-1.4-1.2-.9-2.2-2.2-2.6-3.6h0ZM1769.1,130.7c-5.7-1.9-10.5-6-13.2-11.4-2.7-5.4-3.2-11.6-1.3-17.4.9-2.8,2.3-5.5,4.3-7.7,1.9-2.3,4.3-4.1,6.9-5.5,2.6-1.4,5.5-2.2,8.5-2.4,3-.2,6,.1,8.8,1,5.7,1.9,10.5,6,13.2,11.4,2.7,5.4,3.2,11.6,1.3,17.4-1.5,4.6-4.3,8.5-8.2,11.4-3.9,2.8-8.5,4.4-13.3,4.4-2.4,0-4.7-.4-7-1.1h0ZM1617.9,128.1c-1.5-1.2-2.6-2.9-2.9-4.8-.3-1.9.2-3.9,1.3-5.4.6-.8,1.3-1.4,2.1-1.9.8-.5,1.7-.8,2.6-1,.9-.2,1.9-.1,2.8.1.9.2,1.8.6,2.6,1.2,1.6,1.2,2.6,2.9,2.9,4.8.3,1.9-.2,3.9-1.3,5.4-.6.8-1.2,1.4-2.1,1.9-.8.5-1.7.8-2.7,1-.9.1-1.9.1-2.8-.1-.9-.2-1.8-.6-2.6-1.2ZM1633.1,126.3c-1.1-1.6-1.6-3.5-1.3-5.4.3-1.9,1.3-3.6,2.9-4.8.8-.6,1.6-1,2.6-1.2.9-.2,1.9-.3,2.8-.1.9.2,1.8.5,2.6,1,.8.5,1.5,1.2,2.1,1.9,1.1,1.6,1.6,3.5,1.3,5.4-.3,1.9-1.3,3.6-2.9,4.8-.8.6-1.6,1-2.6,1.2-.9.2-1.9.3-2.8.1-.9-.2-1.8-.5-2.6-1-.8-.5-1.5-1.2-2.1-1.9h0ZM1554.1,106.5c0-2.7.9-5.3,2.4-7.5,1.5-2.2,3.6-3.9,6.1-4.9s5.2-1.2,7.8-.7,5,1.8,6.9,3.7c1.9,1.9,3.2,4.3,3.7,6.9.5,2.6.2,5.3-.8,7.8-1,2.5-2.8,4.6-5,6-2.2,1.5-4.8,2.3-7.5,2.3-1.8,0-3.6-.4-5.2-1.1s-3.2-1.7-4.4-3c-1.3-1.3-2.3-2.8-2.9-4.4-.7-1.7-1-3.4-1-5.2ZM1692.1,106.1c0-2.7.7-5.4,2.2-7.7,1.5-2.3,3.6-4.1,6.1-5.1,2.5-1.1,5.3-1.4,7.9-.9,2.7.5,5.1,1.8,7.1,3.7,1.9,1.9,3.3,4.4,3.8,7,.5,2.7.3,5.4-.8,7.9-1,2.5-2.8,4.7-5.1,6.2-2.3,1.5-4.9,2.3-7.6,2.3-1.8,0-3.6-.3-5.2-1-1.7-.7-3.2-1.7-4.4-2.9-1.3-1.3-2.3-2.8-3-4.4-.7-1.6-1.1-3.4-1.1-5.2ZM1588.1,101.3c-3.4-1.2-6.3-3.6-7.9-6.8-1.6-3.2-1.9-7-.8-10.4.5-1.7,1.4-3.3,2.6-4.6,1.2-1.4,2.6-2.5,4.2-3.3,1.6-.8,3.3-1.3,5.1-1.5,1.8-.1,3.6,0,5.3.6,3.4,1.1,6.3,3.6,7.9,6.8,1.6,3.2,1.9,7,.8,10.4-.9,2.7-2.6,5.1-4.9,6.8-2.3,1.7-5.1,2.6-8,2.6-1.4,0-2.8-.2-4.2-.7ZM1668.1,92.2c-1.1-3.4-.8-7.2.8-10.4,1.6-3.2,4.5-5.7,7.9-6.8,1.7-.6,3.5-.8,5.3-.6,1.8.1,3.5.6,5.1,1.5,1.6.8,3,1.9,4.2,3.3,1.2,1.4,2,2.9,2.6,4.6,1.1,3.4.8,7.2-.8,10.4-1.6,3.2-4.5,5.7-7.9,6.8-1.3.4-2.8.7-4.2.7-2.9,0-5.7-.9-8-2.6-2.3-1.7-4-4.1-4.9-6.8ZM1613.4,89.7c-2.9-2.2-4.8-5.4-5.4-9-.6-3.6.3-7.2,2.4-10.2,1-1.5,2.3-2.7,3.9-3.6,1.5-.9,3.2-1.6,5-1.9,1.8-.3,3.6-.2,5.3.2,1.7.4,3.4,1.2,4.8,2.2,2.9,2.2,4.8,5.4,5.4,9,.6,3.6-.3,7.2-2.4,10.2-1,1.5-2.3,2.7-3.9,3.6-1.5.9-3.2,1.6-5,1.9-1.8.3-3.6.2-5.3-.2-1.7-.4-3.4-1.2-4.8-2.2ZM1640.9,86.6c-2.1-2.9-3-6.6-2.4-10.2.6-3.6,2.5-6.8,5.4-9,1.4-1.1,3.1-1.8,4.8-2.2,1.7-.4,3.5-.5,5.3-.2,1.8.3,3.4.9,5,1.9,1.5.9,2.8,2.2,3.9,3.6,2.1,2.9,3,6.6,2.4,10.2-.6,3.6-2.5,6.8-5.4,9-1.4,1.1-3.1,1.8-4.8,2.2-1.7.4-3.5.5-5.3.2-1.8-.3-3.4-.9-5-1.9-1.5-.9-2.8-2.2-3.9-3.6ZM1725.3,68.9c0-4.5,1.2-9,3.7-12.8,2.5-3.8,6-6.8,10.2-8.5,4.2-1.8,8.8-2.3,13.2-1.4,4.5.8,8.6,3,11.8,6.2,3.2,3.2,5.4,7.2,6.3,11.7.9,4.4.5,9-1.2,13.2-1.7,4.2-4.6,7.8-8.4,10.3s-8.2,3.9-12.7,3.9c-3,0-5.9-.6-8.7-1.7-2.8-1.1-5.3-2.8-7.4-4.9-2.1-2.1-3.8-4.6-5-7.3-1.2-2.7-1.8-5.7-1.8-8.7h0ZM1506.2,65.5c0-3,.5-5.9,1.7-8.7,1.1-2.8,2.8-5.3,4.9-7.4,2.1-2.1,4.6-3.8,7.4-5,2.8-1.2,5.7-1.8,8.7-1.8,6.1,0,11.9,2.4,16.2,6.7,4.3,4.3,6.7,10.1,6.7,16.1s-2.4,11.9-6.7,16.1c-4.3,4.3-10.1,6.7-16.2,6.7-3,0-5.9-.6-8.7-1.8-2.8-1.2-5.2-2.8-7.4-5-2.1-2.1-3.8-4.6-4.9-7.4-1.1-2.8-1.7-5.7-1.7-8.7ZM1687.8,46.5c-1.9-5.7-1.4-12,1.3-17.4,2.7-5.4,7.4-9.5,13.2-11.4,2.8-.9,5.8-1.3,8.8-1,3,.2,5.9,1.1,8.5,2.4,2.7,1.4,5,3.2,6.9,5.5,1.9,2.3,3.4,4.9,4.2,7.7,1.9,5.7,1.4,12-1.3,17.4-2.7,5.4-7.5,9.5-13.2,11.4-2.3.7-4.6,1.1-7,1.1-4.8,0-9.4-1.6-13.3-4.4-3.9-2.8-6.7-6.8-8.2-11.4ZM1561.5,58.9c-5.7-1.9-10.5-6-13.2-11.4-2.7-5.4-3.2-11.6-1.3-17.4.9-2.8,2.3-5.5,4.3-7.7,1.9-2.3,4.3-4.1,6.9-5.5,2.6-1.4,5.5-2.2,8.5-2.4,3-.2,5.9.1,8.8,1,5.7,1.9,10.5,6,13.2,11.4,2.7,5.4,3.2,11.6,1.3,17.4-1.4,4.6-4.3,8.5-8.2,11.4-3.9,2.8-8.5,4.4-13.3,4.4-2.4,0-4.7-.4-7-1.1h0ZM1645.2,37c-3.5-4.9-5-11-4.1-17,.9-6,4.2-11.3,9-14.9,2.4-1.8,5.1-3,8-3.7,2.9-.7,5.9-.8,8.8-.4,2.9.5,5.8,1.5,8.3,3.1,2.5,1.6,4.7,3.6,6.4,6,3.5,4.9,5,11,4,17-.9,6-4.2,11.3-9,14.9-2.4,1.8-5.1,3-8,3.7-2.9.7-5.9.8-8.8.4-2.9-.5-5.8-1.5-8.3-3.1-2.5-1.6-4.7-3.6-6.4-6ZM1601.6,41.3c-4.8-3.6-8.1-9-9-14.9-.9-6,.5-12.1,4.1-17,1.7-2.4,3.9-4.5,6.4-6,2.5-1.6,5.3-2.6,8.3-3.1,2.9-.5,5.9-.4,8.8.3,2.9.7,5.6,2,8,3.7,4.9,3.6,8.1,9,9,14.9.9,6-.5,12.1-4.1,17-1.7,2.4-3.9,4.5-6.4,6.1-2.5,1.6-5.3,2.6-8.3,3.1-2.9.5-6,.4-8.8-.4-2.9-.7-5.6-2-8-3.7h0Z"/>
</svg>