<svg width="1813" height="356" viewBox="0 0 1813 356" fill="none" xmlns="http://www.w3.org/2000/svg">
<path d="M22.1374 176.636H42.4249C47.793 177.059 53.1794 176.086 58.0571 173.812C59.5827 172.771 60.8019 171.343 61.589 169.676C62.3761 168.009 62.7026 166.163 62.5346 164.328C62.7284 162.536 62.4748 160.725 61.7964 159.054C61.1179 157.384 60.0357 155.907 58.646 154.755C54.061 152.498 48.9387 151.552 43.847 152.019H22.1374V176.636ZM0 221.959V133.992H52.2742C61.0074 133.472 69.6066 136.32 76.2892 141.948C79.2246 144.793 81.5132 148.232 83.0006 152.033C84.488 155.835 85.1394 159.91 84.9108 163.984C85.1409 168.047 84.4899 172.111 83.0021 175.9C81.5143 179.69 79.2247 183.115 76.2892 185.943C69.5876 191.53 60.9955 194.351 52.2742 193.827H22.1374V221.959H0ZM123.325 185.561H146.657L134.802 158.376L123.325 185.561ZM83.9387 221.959L125.791 133.992H147.034L187.254 221.959H162.672L154.617 203.345H115.764L107.826 221.959H83.9387ZM214.985 171.525H239.984C244.756 171.884 249.543 171.056 253.916 169.117C255.255 168.291 256.34 167.112 257.05 165.712C257.761 164.311 258.07 162.742 257.943 161.177C258.086 159.702 257.809 158.216 257.143 156.89C256.478 155.565 255.452 154.452 254.183 153.68C249.35 151.86 244.173 151.128 239.022 151.538H215.007L214.985 171.525ZM192.892 221.959V133.992H247.111C256.164 133.331 265.213 135.338 273.131 139.761C275.935 141.79 278.172 144.5 279.631 147.632C281.089 150.765 281.72 154.217 281.464 157.661C281.559 162.505 280.206 167.268 277.575 171.343C274.998 175.285 271.209 178.29 266.776 179.908C270.052 181.062 272.909 183.163 274.981 185.943C276.93 189.886 277.883 194.244 277.759 198.638C277.799 199.233 277.838 200.045 277.875 201.075C278.353 211.978 279.905 218.938 282.531 221.953H257.732C257.125 220.978 256.671 219.916 256.388 218.803C256.082 217.598 255.931 216.359 255.938 215.116V209.169C256.542 203.682 255.449 198.141 252.805 193.29C251.145 191.832 249.193 190.743 247.078 190.097C244.963 189.45 242.733 189.261 240.539 189.542H214.985V221.953L192.892 221.959ZM339.127 151.776V221.959H317.167V151.776H286.975V133.992H369.325V151.776H339.127ZM378.868 221.959V133.992H401.006V221.959H378.868ZM520.064 187.903C519.57 193.185 517.916 198.294 515.22 202.868C512.523 207.441 508.849 211.368 504.46 214.368C494.076 221.336 481.731 224.816 469.223 224.301C455.244 225.024 441.495 220.536 430.654 211.711C425.893 207.514 422.132 202.313 419.644 196.484C417.156 190.656 416.004 184.348 416.271 178.02C416.003 171.684 417.154 165.368 419.642 159.532C422.13 153.695 425.892 148.485 430.654 144.279C441.488 135.442 455.237 130.947 469.218 131.672C481.566 131.185 493.765 134.496 504.16 141.156C508.462 143.88 512.095 147.533 514.787 151.847C517.48 156.16 519.164 161.021 519.714 166.072H495.594C494.351 161.006 491.158 156.63 486.705 153.891C481.362 150.93 475.297 149.509 469.19 149.788C465.374 149.582 461.555 150.145 457.961 151.443C454.368 152.74 451.073 154.746 448.275 157.34C445.659 160.085 443.634 163.334 442.323 166.887C441.012 170.44 440.444 174.223 440.653 178.003C440.448 181.776 441.02 185.55 442.333 189.094C443.647 192.639 445.675 195.877 448.292 198.611C451.098 201.202 454.399 203.204 457.998 204.497C461.597 205.789 465.42 206.347 469.24 206.135C475.764 206.448 482.228 204.767 487.767 201.318C490.02 199.813 491.912 197.829 493.306 195.51C494.701 193.191 495.563 190.593 495.833 187.903H520.064ZM534.863 221.981V133.992H557.001V203.461H602.414V221.959L534.863 221.981ZM615.902 221.981V133.992H694.23V151.776H638.04V166.647H688.108V184.548H638.04V203.461H694.252V221.959L615.902 221.981ZM753.276 221.981V133.992H780.43L824.527 196.003V133.992H845.77V221.959H818.916L774.397 159.328V221.959L753.276 221.981ZM865.585 221.981V133.992H943.913V151.776H887.717V166.647H937.786V184.548H887.717V203.461H943.952V221.959L865.585 221.981ZM999.965 151.776V221.959H978.005V151.776H947.807V133.992H1030.16V151.776H999.965ZM1055.7 221.959L1027.6 133.992H1050.57L1068.18 193.235L1088.94 133.992H1110.72L1130.77 193.235L1148.85 133.992H1171.83L1143.24 221.959H1120.75L1099.64 157.905L1077.5 221.959H1055.7ZM1227.91 206.141C1231.72 206.349 1235.52 205.79 1239.11 204.497C1242.69 203.204 1245.97 201.204 1248.76 198.616C1251.37 195.879 1253.4 192.639 1254.7 189.096C1256.01 185.552 1256.58 181.779 1256.37 178.009C1256.59 174.219 1256.02 170.426 1254.72 166.861C1253.41 163.297 1251.38 160.036 1248.76 157.279C1242.9 152.412 1235.5 149.749 1227.87 149.754C1220.24 149.759 1212.85 152.432 1206.99 157.307C1204.36 160.052 1202.33 163.305 1201.01 166.864C1199.69 170.424 1199.12 174.215 1199.32 178.003C1199.12 181.776 1199.69 185.55 1201 189.094C1202.32 192.639 1204.34 195.877 1206.96 198.611C1209.77 201.204 1213.07 203.207 1216.68 204.5C1220.28 205.793 1224.1 206.349 1227.93 206.135L1227.91 206.141ZM1174.99 178.003C1174.73 171.67 1175.88 165.358 1178.37 159.524C1180.85 153.691 1184.61 148.483 1189.37 144.279C1200.54 136.093 1214.03 131.677 1227.89 131.677C1241.75 131.677 1255.25 136.093 1266.41 144.279C1271.16 148.492 1274.9 153.703 1277.38 159.536C1279.86 165.368 1281 171.676 1280.73 178.003C1281 184.326 1279.86 190.629 1277.38 196.456C1274.9 202.283 1271.16 207.488 1266.41 211.694C1255.24 219.866 1241.75 224.273 1227.89 224.273C1214.04 224.273 1200.54 219.866 1189.37 211.694C1184.61 207.498 1180.85 202.296 1178.36 196.468C1175.88 190.64 1174.72 184.331 1174.99 178.003ZM1318.03 171.52H1343.03C1347.8 171.878 1352.59 171.051 1356.96 169.111C1358.3 168.285 1359.39 167.107 1360.1 165.706C1360.81 164.305 1361.12 162.736 1360.99 161.172C1361.13 159.696 1360.86 158.211 1360.19 156.885C1359.52 155.559 1358.5 154.447 1357.23 153.675C1352.4 151.854 1347.22 151.122 1342.07 151.532H1318.02L1318.03 171.52ZM1295.89 221.953V133.992H1350.14C1359.19 133.335 1368.23 135.341 1376.14 139.761C1378.95 141.79 1381.19 144.5 1382.64 147.632C1384.1 150.765 1384.73 154.217 1384.48 157.661C1384.57 162.505 1383.22 167.268 1380.59 171.343C1378.02 175.28 1374.24 178.284 1369.82 179.908C1373.09 181.062 1375.95 183.163 1378.02 185.943C1379.97 189.886 1380.92 194.244 1380.8 198.638C1380.84 199.233 1380.88 200.045 1380.92 201.075C1381.39 211.978 1382.95 218.938 1385.57 221.953H1360.75C1360.14 220.978 1359.68 219.916 1359.4 218.803C1359.1 217.598 1358.94 216.359 1358.95 215.116V209.169C1359.56 203.682 1358.46 198.141 1355.82 193.29C1354.16 191.832 1352.21 190.743 1350.09 190.097C1347.98 189.45 1345.75 189.261 1343.55 189.542H1318V221.953H1295.89ZM1400.5 221.953V133.992H1422.64V167.766L1459.76 133.992H1488.23L1449.38 168.131L1493 221.959H1465.91L1433.86 181.635L1422.64 191.507V221.959L1400.5 221.953Z" fill="white"/>
<path d="M1645.37 351.613C1640.52 348.015 1637.27 342.657 1636.34 336.693C1635.41 330.73 1636.86 324.639 1640.38 319.735C1642.11 317.316 1644.3 315.263 1646.83 313.697C1649.35 312.131 1652.17 311.082 1655.1 310.612C1658.04 310.142 1661.04 310.26 1663.93 310.959C1666.83 311.659 1669.55 312.925 1671.94 314.685C1676.8 318.283 1680.04 323.641 1680.98 329.605C1681.91 335.568 1680.46 341.659 1676.93 346.563C1675.21 348.983 1673.02 351.037 1670.49 352.604C1667.96 354.171 1665.15 355.221 1662.21 355.691C1659.28 356.161 1656.27 356.042 1653.38 355.342C1650.49 354.642 1647.77 353.374 1645.37 351.613ZM1591.83 345.805C1588.3 340.901 1586.85 334.81 1587.78 328.847C1588.72 322.883 1591.96 317.525 1596.82 313.928C1599.21 312.167 1601.94 310.901 1604.83 310.202C1607.72 309.502 1610.72 309.384 1613.66 309.854C1616.59 310.324 1619.41 311.373 1621.93 312.939C1624.46 314.506 1626.65 316.558 1628.38 318.978C1631.9 323.881 1633.35 329.972 1632.42 335.936C1631.49 341.899 1628.24 347.258 1623.39 350.855C1620.99 352.621 1618.27 353.892 1615.37 354.595C1612.48 355.297 1609.47 355.417 1606.53 354.947C1603.59 354.477 1600.77 353.426 1598.25 351.856C1595.72 350.287 1593.53 348.229 1591.8 345.805H1591.83ZM1698.09 340.428C1692.36 338.509 1687.63 334.411 1684.91 329.025C1682.19 323.639 1681.72 317.4 1683.58 311.665C1684.48 308.831 1685.92 306.202 1687.84 303.93C1689.76 301.657 1692.1 299.786 1694.75 298.424C1697.39 297.062 1700.28 296.237 1703.25 295.995C1706.22 295.754 1709.2 296.102 1712.03 297.018C1717.76 298.937 1722.5 303.035 1725.21 308.422C1727.93 313.808 1728.4 320.047 1726.53 325.781C1725.09 330.343 1722.23 334.33 1718.37 337.165C1714.51 340 1709.84 341.538 1705.05 341.557C1702.68 341.551 1700.34 341.17 1698.09 340.428ZM1542.69 323.569C1540.82 317.834 1541.29 311.596 1544.01 306.209C1546.72 300.823 1551.46 296.725 1557.19 294.806C1560.02 293.887 1563.01 293.537 1565.98 293.778C1568.95 294.018 1571.84 294.843 1574.49 296.206C1577.13 297.568 1579.48 299.441 1581.4 301.716C1583.32 303.99 1584.77 306.622 1585.66 309.458C1587.53 315.193 1587.05 321.432 1584.33 326.818C1581.62 332.204 1576.88 336.302 1571.15 338.221C1568.9 338.958 1566.54 339.332 1564.17 339.328C1559.37 339.309 1554.71 337.773 1550.85 334.941C1546.99 332.109 1544.13 328.127 1542.69 323.569ZM1722.18 290.524C1722.23 286.077 1723.6 281.746 1726.12 278.075C1728.63 274.404 1732.18 271.557 1736.31 269.893C1740.45 268.229 1744.98 267.821 1749.34 268.722C1753.7 269.623 1757.7 271.792 1760.83 274.956C1763.97 278.12 1766.09 282.137 1766.94 286.503C1767.79 290.869 1767.32 295.388 1765.61 299.491C1763.89 303.595 1760.99 307.1 1757.29 309.565C1753.58 312.031 1749.22 313.346 1744.77 313.347C1741.78 313.329 1738.83 312.725 1736.08 311.569C1733.33 310.412 1730.83 308.726 1728.74 306.607C1726.64 304.487 1724.98 301.976 1723.85 299.217C1722.73 296.457 1722.16 293.503 1722.18 290.524ZM1502.47 287.062C1502.49 284.082 1503.09 281.136 1504.25 278.39C1505.41 275.645 1507.1 273.154 1509.22 271.06C1511.35 268.966 1513.86 267.311 1516.63 266.188C1519.39 265.065 1522.35 264.497 1525.34 264.516C1531.33 264.516 1537.07 266.891 1541.31 271.119C1545.54 275.347 1547.92 281.082 1547.92 287.062C1547.92 293.041 1545.54 298.776 1541.31 303.004C1537.07 307.232 1531.33 309.608 1525.34 309.608C1522.35 309.626 1519.39 309.058 1516.63 307.935C1513.86 306.812 1511.35 305.157 1509.22 303.063C1507.1 300.969 1505.41 298.478 1504.25 295.733C1503.09 292.987 1502.49 290.041 1502.47 287.062ZM1610.96 281.663C1608.85 278.717 1607.98 275.064 1608.55 271.488C1609.11 267.912 1611.05 264.698 1613.96 262.535C1615.39 261.479 1617.03 260.719 1618.76 260.299C1620.5 259.879 1622.3 259.808 1624.06 260.091C1625.82 260.373 1627.51 261.002 1629.03 261.942C1630.54 262.883 1631.86 264.115 1632.89 265.567C1635.01 268.509 1635.88 272.165 1635.32 275.744C1634.76 279.322 1632.81 282.537 1629.89 284.694C1628.46 285.751 1626.82 286.512 1625.09 286.932C1623.35 287.353 1621.55 287.424 1619.79 287.141C1618.03 286.859 1616.34 286.229 1614.82 285.289C1613.31 284.348 1611.99 283.116 1610.96 281.663ZM1644.53 284.595C1641.63 282.433 1639.69 279.223 1639.13 275.652C1638.57 272.081 1639.43 268.433 1641.53 265.489C1642.57 264.037 1643.88 262.805 1645.4 261.865C1646.91 260.925 1648.6 260.295 1650.36 260.013C1652.13 259.731 1653.93 259.802 1655.66 260.222C1657.4 260.641 1659.03 261.402 1660.47 262.458C1663.38 264.62 1665.32 267.835 1665.88 271.411C1666.44 274.987 1665.57 278.64 1663.47 281.586C1662.43 283.038 1661.12 284.271 1659.6 285.211C1658.09 286.152 1656.4 286.782 1654.63 287.064C1652.87 287.346 1651.07 287.275 1649.34 286.855C1647.6 286.435 1645.97 285.674 1644.53 284.617V284.595ZM1579.93 268.41C1578.81 264.969 1579.1 261.227 1580.73 257.997C1582.36 254.766 1585.2 252.308 1588.64 251.157C1590.34 250.607 1592.13 250.399 1593.91 250.544C1595.69 250.689 1597.43 251.185 1599.02 252.003C1600.6 252.822 1602.01 253.946 1603.16 255.311C1604.31 256.676 1605.18 258.256 1605.72 259.958C1606.83 263.398 1606.55 267.14 1604.92 270.371C1603.29 273.601 1600.45 276.059 1597.01 277.21C1595.66 277.656 1594.24 277.884 1592.82 277.885C1589.94 277.872 1587.14 276.947 1584.83 275.244C1582.51 273.541 1580.8 271.148 1579.93 268.41ZM1677.35 276.923C1673.92 275.772 1671.08 273.314 1669.45 270.083C1667.82 266.853 1667.53 263.111 1668.65 259.67C1669.18 257.969 1670.05 256.39 1671.2 255.026C1672.35 253.661 1673.76 252.538 1675.35 251.72C1676.94 250.903 1678.67 250.408 1680.45 250.264C1682.24 250.12 1684.03 250.33 1685.73 250.881C1689.16 252.032 1692 254.49 1693.63 257.72C1695.26 260.951 1695.55 264.693 1694.43 268.133C1693.57 270.87 1691.85 273.262 1689.53 274.963C1687.22 276.664 1684.42 277.587 1681.54 277.597C1680.12 277.596 1678.7 277.368 1677.35 276.923ZM1752.4 258.348C1750.53 252.614 1751 246.375 1753.72 240.989C1756.44 235.602 1761.17 231.504 1766.9 229.585C1769.73 228.665 1772.72 228.315 1775.69 228.555C1778.66 228.795 1781.55 229.621 1784.2 230.983C1786.85 232.346 1789.2 234.219 1791.12 236.494C1793.03 238.769 1794.48 241.401 1795.37 244.238C1797.24 249.973 1796.76 256.212 1794.05 261.598C1791.33 266.984 1786.59 271.082 1780.87 273.001C1778.61 273.738 1776.25 274.112 1773.88 274.107C1769.09 274.087 1764.43 272.551 1760.57 269.719C1756.71 266.887 1753.85 262.906 1752.4 258.348ZM1554.31 246.091C1554.27 243.372 1555.05 240.705 1556.53 238.428C1558.02 236.151 1560.15 234.366 1562.66 233.302C1565.17 232.237 1567.93 231.94 1570.61 232.449C1573.28 232.958 1575.75 234.249 1577.68 236.159C1579.62 238.068 1580.95 240.51 1581.49 243.174C1582.04 245.837 1581.78 248.602 1580.74 251.117C1579.71 253.632 1577.95 255.783 1575.69 257.298C1573.42 258.812 1570.76 259.62 1568.04 259.62C1566.25 259.632 1564.47 259.291 1562.81 258.618C1561.15 257.944 1559.64 256.951 1558.37 255.694C1557.09 254.438 1556.08 252.943 1555.38 251.295C1554.68 249.648 1554.32 247.879 1554.31 246.091ZM1692.65 245.665C1692.69 242.997 1693.51 240.398 1695.02 238.197C1696.53 235.995 1698.66 234.289 1701.14 233.292C1703.62 232.295 1706.34 232.052 1708.96 232.594C1711.58 233.136 1713.98 234.438 1715.85 236.337C1717.73 238.236 1719.01 240.647 1719.51 243.267C1720.02 245.886 1719.74 248.598 1718.71 251.059C1717.68 253.521 1715.95 255.624 1713.72 257.103C1711.5 258.582 1708.88 259.371 1706.21 259.372C1704.42 259.36 1702.64 258.996 1700.99 258.301C1699.34 257.606 1697.85 256.593 1696.59 255.32C1695.33 254.048 1694.33 252.54 1693.66 250.883C1692.98 249.226 1692.64 247.453 1692.65 245.665ZM1617.22 233.131C1616.1 231.558 1615.64 229.607 1615.94 227.699C1616.24 225.791 1617.29 224.078 1618.84 222.931C1619.61 222.367 1620.48 221.962 1621.41 221.738C1622.33 221.514 1623.29 221.476 1624.23 221.626C1625.17 221.777 1626.07 222.112 1626.88 222.614C1627.69 223.115 1628.39 223.772 1628.94 224.546C1630.07 226.116 1630.53 228.065 1630.23 229.973C1629.93 231.881 1628.89 233.595 1627.34 234.746C1626.57 235.31 1625.7 235.716 1624.78 235.941C1623.85 236.165 1622.89 236.203 1621.95 236.053C1621.01 235.903 1620.11 235.567 1619.3 235.065C1618.49 234.563 1617.79 233.906 1617.24 233.131H1617.22ZM1635.55 234.613C1633.99 233.462 1632.95 231.748 1632.65 229.84C1632.36 227.932 1632.82 225.983 1633.95 224.413C1634.5 223.639 1635.2 222.982 1636.01 222.481C1636.81 221.98 1637.72 221.644 1638.65 221.494C1639.59 221.343 1640.55 221.381 1641.48 221.605C1642.4 221.829 1643.28 222.235 1644.04 222.798C1645.6 223.949 1646.63 225.663 1646.93 227.571C1647.23 229.479 1646.77 231.428 1645.64 232.998C1645.09 233.772 1644.39 234.429 1643.58 234.93C1642.77 235.432 1641.87 235.767 1640.93 235.918C1639.99 236.068 1639.03 236.03 1638.11 235.806C1637.18 235.582 1636.31 235.177 1635.55 234.613ZM1711.22 224.867C1710.1 221.426 1710.39 217.684 1712.02 214.454C1713.65 211.223 1716.49 208.765 1719.92 207.614C1721.62 207.063 1723.41 206.853 1725.2 206.998C1726.98 207.142 1728.71 207.637 1730.3 208.454C1731.89 209.271 1733.3 210.395 1734.45 211.759C1735.6 213.124 1736.47 214.702 1737 216.404C1738.12 219.844 1737.84 223.585 1736.21 226.815C1734.58 230.046 1731.74 232.504 1728.3 233.656C1726.95 234.102 1725.54 234.33 1724.11 234.331C1721.24 234.321 1718.44 233.398 1716.12 231.697C1713.8 229.996 1712.09 227.604 1711.22 224.867ZM1600.25 226.001C1599.65 224.165 1599.8 222.169 1600.67 220.445C1601.54 218.722 1603.06 217.411 1604.89 216.796C1605.8 216.501 1606.75 216.389 1607.7 216.465C1608.65 216.542 1609.58 216.806 1610.43 217.242C1611.28 217.678 1612.03 218.278 1612.64 219.007C1613.25 219.736 1613.72 220.579 1614 221.487C1614.6 223.323 1614.45 225.319 1613.58 227.042C1612.71 228.766 1611.19 230.077 1609.36 230.691C1608.64 230.927 1607.89 231.048 1607.14 231.051C1605.6 231.048 1604.11 230.558 1602.87 229.65C1601.63 228.742 1600.71 227.464 1600.25 226.001ZM1653.45 230.304C1651.61 229.69 1650.1 228.379 1649.23 226.655C1648.36 224.932 1648.21 222.935 1648.8 221.1C1649.09 220.191 1649.55 219.348 1650.16 218.62C1650.78 217.891 1651.53 217.291 1652.38 216.855C1653.22 216.418 1654.15 216.154 1655.1 216.078C1656.05 216.001 1657.01 216.114 1657.91 216.409C1659.75 217.023 1661.26 218.335 1662.13 220.058C1663 221.782 1663.15 223.778 1662.56 225.614C1662.09 227.074 1661.18 228.35 1659.94 229.258C1658.71 230.165 1657.21 230.658 1655.68 230.664C1654.92 230.665 1654.16 230.543 1653.43 230.304H1653.45ZM1771.36 218.312C1767.84 213.408 1766.38 207.318 1767.32 201.354C1768.25 195.391 1771.49 190.032 1776.35 186.435C1778.74 184.675 1781.47 183.408 1784.36 182.709C1787.25 182.009 1790.25 181.891 1793.19 182.361C1796.13 182.831 1798.94 183.88 1801.47 185.447C1803.99 187.013 1806.18 189.066 1807.91 191.485C1811.43 196.389 1812.88 202.479 1811.95 208.443C1811.02 214.406 1807.78 219.764 1802.92 223.362C1800.52 225.128 1797.8 226.399 1794.91 227.102C1792.01 227.805 1789.01 227.924 1786.07 227.454C1783.12 226.984 1780.31 225.933 1777.78 224.364C1775.25 222.794 1773.06 220.737 1771.33 218.312H1771.36ZM1586.2 213.926C1586.18 212.476 1586.59 211.052 1587.38 209.835C1588.17 208.618 1589.31 207.664 1590.64 207.093C1591.98 206.522 1593.45 206.36 1594.88 206.629C1596.31 206.898 1597.62 207.584 1598.66 208.602C1599.69 209.619 1600.4 210.92 1600.7 212.341C1600.99 213.761 1600.85 215.236 1600.3 216.578C1599.75 217.92 1598.81 219.068 1597.6 219.877C1596.4 220.685 1594.98 221.116 1593.52 221.117C1591.6 221.13 1589.75 220.38 1588.37 219.032C1587 217.684 1586.22 215.848 1586.2 213.926ZM1661.89 213.323C1661.91 211.906 1662.35 210.527 1663.16 209.36C1663.96 208.193 1665.1 207.289 1666.41 206.763C1667.73 206.236 1669.18 206.11 1670.57 206.401C1671.96 206.691 1673.23 207.385 1674.22 208.395C1675.22 209.405 1675.89 210.687 1676.16 212.078C1676.43 213.47 1676.28 214.91 1675.73 216.217C1675.19 217.524 1674.26 218.64 1673.08 219.425C1671.9 220.211 1670.51 220.63 1669.09 220.63C1667.17 220.611 1665.33 219.83 1663.98 218.459C1662.63 217.088 1661.88 215.239 1661.89 213.317L1661.89 213.323ZM1671.96 201.834C1671.36 199.999 1671.51 198.003 1672.38 196.279C1673.25 194.555 1674.76 193.244 1676.59 192.63C1677.5 192.335 1678.46 192.222 1679.41 192.299C1680.36 192.375 1681.28 192.639 1682.13 193.075C1682.98 193.512 1683.73 194.112 1684.34 194.84C1684.96 195.569 1685.42 196.412 1685.7 197.321C1686.3 199.155 1686.15 201.152 1685.28 202.875C1684.41 204.599 1682.9 205.911 1681.07 206.525C1680.35 206.76 1679.6 206.882 1678.85 206.884C1677.31 206.88 1675.82 206.388 1674.58 205.479C1673.34 204.57 1672.42 203.292 1671.96 201.829L1671.96 201.834ZM1722.5 199.29C1720.39 196.344 1719.52 192.691 1720.08 189.115C1720.64 185.539 1722.58 182.324 1725.49 180.162C1726.93 179.106 1728.56 178.346 1730.3 177.926C1732.03 177.506 1733.83 177.435 1735.6 177.717C1737.36 177.999 1739.05 178.629 1740.56 179.569C1742.08 180.509 1743.39 181.741 1744.43 183.193C1746.54 186.139 1747.4 189.792 1746.84 193.368C1746.28 196.944 1744.34 200.159 1741.43 202.321C1739.99 203.377 1738.36 204.138 1736.62 204.557C1734.89 204.977 1733.09 205.048 1731.33 204.766C1729.56 204.484 1727.88 203.854 1726.36 202.914C1724.84 201.974 1723.53 200.742 1722.5 199.29ZM1678.03 187.757C1676.9 186.187 1676.44 184.238 1676.74 182.329C1677.04 180.421 1678.08 178.707 1679.63 177.557C1680.4 176.993 1681.27 176.588 1682.19 176.364C1683.12 176.14 1684.08 176.102 1685.02 176.252C1685.96 176.403 1686.86 176.738 1687.67 177.24C1688.48 177.741 1689.18 178.398 1689.73 179.172C1690.85 180.742 1691.32 182.691 1691.02 184.599C1690.72 186.507 1689.68 188.221 1688.13 189.372C1687.36 189.935 1686.49 190.341 1685.56 190.565C1684.64 190.789 1683.68 190.827 1682.74 190.676C1681.8 190.526 1680.9 190.19 1680.09 189.689C1679.28 189.188 1678.58 188.531 1678.03 187.757ZM1777.09 174.327C1772.24 170.729 1768.99 165.371 1768.06 159.407C1767.13 153.444 1768.58 147.353 1772.1 142.449C1773.83 140.026 1776.02 137.97 1778.55 136.401C1781.08 134.832 1783.9 133.782 1786.84 133.312C1789.78 132.842 1792.78 132.961 1795.68 133.663C1798.57 134.365 1801.29 135.635 1803.69 137.399C1808.55 140.996 1811.79 146.355 1812.72 152.318C1813.66 158.282 1812.2 164.373 1808.68 169.276C1806.95 171.701 1804.76 173.758 1802.23 175.328C1799.71 176.898 1796.89 177.948 1793.95 178.418C1791.01 178.889 1788 178.769 1785.11 178.066C1782.21 177.364 1779.49 176.092 1777.09 174.327ZM1725.4 171.456C1722.5 169.294 1720.55 166.079 1719.99 162.503C1719.43 158.927 1720.3 155.274 1722.41 152.328C1723.44 150.876 1724.75 149.644 1726.27 148.704C1727.79 147.764 1729.48 147.134 1731.24 146.852C1733 146.57 1734.8 146.641 1736.54 147.061C1738.27 147.48 1739.9 148.241 1741.34 149.297C1744.25 151.459 1746.19 154.674 1746.75 158.25C1747.31 161.826 1746.45 165.479 1744.34 168.425C1743.31 169.877 1741.99 171.109 1740.48 172.049C1738.96 172.989 1737.27 173.619 1735.51 173.901C1733.75 174.183 1731.95 174.112 1730.21 173.692C1728.48 173.272 1726.84 172.512 1725.4 171.456ZM1679.49 172.496C1677.94 171.345 1676.9 169.631 1676.6 167.723C1676.3 165.815 1676.76 163.866 1677.89 162.296C1678.44 161.522 1679.14 160.865 1679.95 160.363C1680.76 159.862 1681.66 159.527 1682.6 159.376C1683.54 159.226 1684.5 159.264 1685.43 159.488C1686.35 159.712 1687.22 160.117 1687.99 160.681C1689.54 161.83 1690.58 163.545 1690.88 165.453C1691.18 167.361 1690.72 169.311 1689.59 170.881C1689.04 171.656 1688.34 172.313 1687.53 172.815C1686.72 173.317 1685.82 173.653 1684.88 173.803C1683.94 173.953 1682.98 173.915 1682.05 173.691C1681.12 173.466 1680.26 173.06 1679.49 172.496ZM1676.22 157.506C1674.38 156.892 1672.87 155.58 1672 153.857C1671.13 152.133 1670.98 150.137 1671.57 148.301C1671.86 147.393 1672.32 146.55 1672.93 145.821C1673.55 145.093 1674.3 144.493 1675.15 144.056C1675.99 143.62 1676.92 143.356 1677.87 143.279C1678.82 143.203 1679.78 143.316 1680.68 143.611C1682.52 144.222 1684.03 145.529 1684.9 147.249C1685.78 148.969 1685.94 150.963 1685.34 152.798C1684.88 154.258 1683.97 155.533 1682.73 156.441C1681.5 157.348 1680.01 157.841 1678.47 157.849C1677.71 157.85 1676.94 157.729 1676.22 157.489V157.506ZM1585.7 137.593C1585.72 136.176 1586.16 134.797 1586.97 133.63C1587.78 132.463 1588.91 131.559 1590.23 131.033C1591.55 130.506 1592.99 130.38 1594.38 130.671C1595.77 130.961 1597.04 131.655 1598.04 132.665C1599.03 133.675 1599.71 134.957 1599.98 136.348C1600.25 137.74 1600.1 139.18 1599.55 140.487C1599 141.794 1598.08 142.91 1596.89 143.695C1595.71 144.48 1594.32 144.899 1592.9 144.9C1591.95 144.892 1591 144.696 1590.12 144.323C1589.25 143.95 1588.45 143.408 1587.78 142.727C1587.11 142.046 1586.58 141.24 1586.22 140.355C1585.87 139.471 1585.69 138.524 1585.7 137.571V137.593ZM1719.65 144.042C1716.21 142.891 1713.37 140.433 1711.74 137.203C1710.11 133.972 1709.82 130.23 1710.94 126.79C1711.48 125.089 1712.34 123.51 1713.49 122.145C1714.64 120.781 1716.05 119.657 1717.64 118.839C1719.23 118.021 1720.96 117.526 1722.74 117.381C1724.52 117.236 1726.32 117.445 1728.01 117.995C1731.45 119.145 1734.29 121.602 1735.92 124.833C1737.55 128.064 1737.84 131.807 1736.72 135.247C1735.85 137.984 1734.14 140.375 1731.82 142.076C1729.5 143.777 1726.71 144.7 1723.83 144.712C1722.41 144.711 1721 144.485 1719.65 144.042ZM1661.18 136.945C1661.16 135.496 1661.57 134.072 1662.36 132.855C1663.15 131.638 1664.28 130.683 1665.62 130.113C1666.96 129.542 1668.43 129.38 1669.86 129.649C1671.29 129.918 1672.6 130.604 1673.64 131.621C1674.67 132.638 1675.38 133.94 1675.67 135.361C1675.97 136.781 1675.83 138.256 1675.28 139.598C1674.73 140.94 1673.79 142.088 1672.58 142.896C1671.38 143.704 1669.96 144.136 1668.5 144.136C1666.58 144.15 1664.73 143.4 1663.35 142.052C1661.98 140.704 1661.2 138.867 1661.18 136.945ZM1604.1 134.467C1602.27 133.852 1600.76 132.541 1599.89 130.817C1599.02 129.094 1598.87 127.098 1599.47 125.263C1599.75 124.355 1600.21 123.512 1600.83 122.783C1601.44 122.054 1602.19 121.454 1603.04 121.018C1603.89 120.582 1604.81 120.318 1605.76 120.241C1606.71 120.165 1607.67 120.277 1608.58 120.573C1610.41 121.187 1611.92 122.498 1612.79 124.222C1613.66 125.946 1613.81 127.942 1613.21 129.777C1612.75 131.237 1611.84 132.513 1610.6 133.421C1609.36 134.329 1607.87 134.821 1606.34 134.827C1605.59 134.823 1604.84 134.702 1604.13 134.467H1604.1ZM1648 129.39C1647.4 127.555 1647.55 125.558 1648.42 123.835C1649.29 122.111 1650.8 120.799 1652.64 120.185C1653.54 119.89 1654.5 119.778 1655.45 119.854C1656.4 119.931 1657.33 120.195 1658.17 120.631C1659.02 121.067 1659.77 121.667 1660.39 122.396C1661 123.125 1661.46 123.968 1661.75 124.876C1662.35 126.711 1662.2 128.707 1661.33 130.431C1660.46 132.155 1658.94 133.466 1657.11 134.08C1656.39 134.316 1655.65 134.437 1654.89 134.44C1653.36 134.431 1651.87 133.938 1650.64 133.03C1649.4 132.123 1648.49 130.848 1648.03 129.39H1648ZM1769.08 130.701C1763.35 128.781 1758.61 124.683 1755.9 119.297C1753.18 113.911 1752.7 107.673 1754.57 101.937C1755.46 99.101 1756.91 96.4695 1758.83 94.1948C1760.75 91.9201 1763.1 90.0474 1765.75 88.6849C1768.39 87.3224 1771.28 86.4972 1774.25 86.2569C1777.22 86.0165 1780.21 86.3659 1783.04 87.2848C1788.77 89.2038 1793.51 93.3021 1796.22 98.6884C1798.94 104.075 1799.41 110.314 1797.55 116.048C1796.1 120.61 1793.24 124.596 1789.38 127.431C1785.52 130.267 1780.85 131.805 1776.06 131.823C1773.7 131.819 1771.35 131.44 1769.11 130.701H1769.08ZM1617.95 128.084C1616.4 126.934 1615.36 125.219 1615.06 123.311C1614.76 121.403 1615.22 119.454 1616.35 117.884C1616.91 117.114 1617.61 116.46 1618.42 115.962C1619.22 115.463 1620.12 115.129 1621.06 114.979C1622 114.828 1622.96 114.865 1623.88 115.087C1624.81 115.308 1625.68 115.71 1626.45 116.269C1628 117.419 1629.04 119.133 1629.34 121.042C1629.64 122.95 1629.18 124.9 1628.05 126.469C1627.5 127.243 1626.8 127.9 1625.99 128.401C1625.18 128.903 1624.28 129.238 1623.34 129.389C1622.4 129.539 1621.44 129.501 1620.51 129.277C1619.59 129.053 1618.72 128.648 1617.95 128.084ZM1633.08 126.336C1631.96 124.764 1631.5 122.813 1631.8 120.906C1632.11 118.999 1633.15 117.288 1634.71 116.142C1635.48 115.583 1636.35 115.181 1637.27 114.96C1638.2 114.738 1639.16 114.701 1640.1 114.851C1641.03 115.002 1641.93 115.336 1642.74 115.834C1643.55 116.333 1644.25 116.987 1644.81 117.757C1645.93 119.327 1646.4 121.276 1646.1 123.184C1645.8 125.092 1644.76 126.806 1643.21 127.957C1642.44 128.52 1641.57 128.926 1640.64 129.15C1639.72 129.374 1638.76 129.412 1637.82 129.261C1636.88 129.111 1635.98 128.776 1635.17 128.274C1634.36 127.773 1633.66 127.116 1633.11 126.342L1633.08 126.336ZM1554.05 106.512C1554.09 103.844 1554.91 101.246 1556.42 99.044C1557.93 96.8424 1560.06 95.1358 1562.54 94.1389C1565.02 93.142 1567.74 92.8991 1570.36 93.441C1572.98 93.9829 1575.37 95.2852 1577.25 97.1842C1579.13 99.0833 1580.4 101.494 1580.91 104.114C1581.42 106.733 1581.14 109.445 1580.11 111.907C1579.08 114.368 1577.34 116.471 1575.12 117.95C1572.89 119.429 1570.28 120.218 1567.61 120.219C1565.81 120.207 1564.04 119.843 1562.39 119.148C1560.74 118.453 1559.24 117.44 1557.99 116.167C1556.73 114.895 1555.73 113.387 1555.06 111.73C1554.38 110.073 1554.04 108.3 1554.05 106.512ZM1692.07 106.086C1692.04 103.367 1692.81 100.7 1694.3 98.4227C1695.79 96.1453 1697.92 94.361 1700.43 93.2965C1702.93 92.232 1705.7 91.9355 1708.37 92.4447C1711.05 92.9539 1713.51 94.2457 1715.45 96.156C1717.39 98.0662 1718.71 100.509 1719.26 103.172C1719.8 105.836 1719.54 108.602 1718.51 111.116C1717.47 113.631 1715.71 115.782 1713.45 117.296C1711.18 118.809 1708.52 119.617 1705.8 119.616C1704.01 119.627 1702.23 119.287 1700.57 118.613C1698.91 117.939 1697.4 116.946 1696.13 115.689C1694.85 114.433 1693.84 112.938 1693.14 111.29C1692.45 109.643 1692.08 107.874 1692.07 106.086ZM1588.09 101.318C1584.66 100.166 1581.82 97.7066 1580.19 94.475C1578.56 91.2434 1578.27 87.5005 1579.39 84.06C1579.93 82.3579 1580.8 80.7787 1581.95 79.4137C1583.1 78.0487 1584.51 76.9251 1586.1 76.1077C1587.69 75.2904 1589.42 74.7955 1591.2 74.6518C1592.99 74.5082 1594.78 74.7185 1596.48 75.2706C1599.91 76.4204 1602.76 78.8781 1604.39 82.1089C1606.02 85.3398 1606.3 89.0825 1605.18 92.523C1604.32 95.2598 1602.6 97.651 1600.28 99.3519C1597.97 101.053 1595.17 101.976 1592.29 101.987C1590.87 101.989 1589.45 101.763 1588.09 101.318ZM1668.11 92.2464C1666.99 88.8059 1667.28 85.0638 1668.91 81.8334C1670.54 78.6029 1673.38 76.1451 1676.82 74.994C1678.52 74.4419 1680.31 74.2316 1682.09 74.3753C1683.87 74.519 1685.61 75.0138 1687.19 75.8311C1688.78 76.6485 1690.19 77.7722 1691.35 79.1371C1692.5 80.5021 1693.36 82.0813 1693.9 83.7834C1695.02 87.2239 1694.73 90.966 1693.1 94.1965C1691.47 97.4269 1688.63 99.8847 1685.19 101.036C1683.84 101.482 1682.42 101.71 1681 101.711C1678.12 101.699 1675.33 100.776 1673.01 99.0754C1670.69 97.3744 1668.98 94.9832 1668.11 92.2464ZM1613.36 89.7352C1610.45 87.5729 1608.51 84.3587 1607.95 80.7824C1607.39 77.2062 1608.25 73.5532 1610.36 70.6077C1611.4 69.1562 1612.71 67.9247 1614.23 66.985C1615.74 66.0452 1617.43 65.416 1619.19 65.1339C1620.95 64.8518 1622.76 64.9225 1624.49 65.3418C1626.22 65.7612 1627.86 66.5208 1629.3 67.5765C1632.2 69.7387 1634.15 72.953 1634.71 76.5292C1635.27 80.1054 1634.4 83.7584 1632.29 86.704C1631.26 88.1567 1629.95 89.3893 1628.43 90.3299C1626.91 91.2705 1625.23 91.9002 1623.46 92.1824C1621.7 92.4646 1619.9 92.3935 1618.16 91.9733C1616.43 91.5532 1614.8 90.7923 1613.36 89.7352ZM1640.93 86.6099C1638.82 83.6644 1637.95 80.0114 1638.51 76.4352C1639.07 72.8589 1641.02 69.6447 1643.93 67.4824C1645.36 66.4268 1647 65.6671 1648.73 65.2478C1650.47 64.8284 1652.27 64.7578 1654.03 65.0399C1655.79 65.322 1657.48 65.9512 1659 66.891C1660.51 67.8307 1661.83 69.0622 1662.86 70.5136C1664.97 73.4592 1665.84 77.1122 1665.28 80.6884C1664.72 84.2646 1662.77 87.4789 1659.86 89.6411C1658.43 90.6983 1656.79 91.4591 1655.06 91.8793C1653.32 92.2995 1651.52 92.3705 1649.76 92.0884C1648 91.8062 1646.31 91.1764 1644.79 90.2358C1643.28 89.2952 1641.96 88.0626 1640.93 86.6099ZM1725.3 68.8763C1725.25 64.3511 1726.54 59.9117 1729.02 56.1224C1731.5 52.333 1735.05 49.3648 1739.23 47.595C1743.4 45.8251 1748 45.3335 1752.46 46.1826C1756.91 47.0318 1761.01 49.1833 1764.24 52.3638C1767.46 55.5443 1769.67 59.6101 1770.57 64.0446C1771.48 68.4791 1771.04 73.0821 1769.32 77.2685C1767.6 81.4549 1764.67 85.0357 1760.9 87.5559C1757.13 90.0761 1752.7 91.4219 1748.17 91.4222C1745.19 91.4405 1742.23 90.8717 1739.46 89.7484C1736.7 88.6252 1734.18 86.9694 1732.06 84.8758C1729.94 82.7821 1728.25 80.2915 1727.09 77.5463C1725.93 74.8011 1725.33 71.855 1725.31 68.8763H1725.3ZM1506.16 65.4524C1506.14 62.4733 1506.71 59.5196 1507.83 56.7601C1508.96 54.0006 1510.61 51.4895 1512.71 49.37C1514.81 47.2506 1517.31 45.5645 1520.06 44.408C1522.81 43.2515 1525.76 42.6473 1528.74 42.6299C1534.81 42.6299 1540.62 45.0344 1544.91 49.3145C1549.2 53.5945 1551.61 59.3995 1551.61 65.4524C1551.61 71.5053 1549.2 77.3103 1544.91 81.5903C1540.62 85.8704 1534.81 88.2749 1528.74 88.2749C1525.76 88.2575 1522.81 87.6533 1520.06 86.4968C1517.31 85.3403 1514.81 83.6542 1512.71 81.5348C1510.61 79.4154 1508.96 76.9042 1507.83 74.1447C1506.71 71.3852 1506.14 68.4316 1506.16 65.4524ZM1687.85 46.4964C1685.98 40.7612 1686.46 34.5225 1689.18 29.1364C1691.89 23.7504 1696.63 19.6523 1702.36 17.7332C1705.19 16.8144 1708.18 16.4651 1711.14 16.7055C1714.11 16.9459 1717 17.7712 1719.65 19.1337C1722.3 20.4962 1724.65 22.3689 1726.57 24.6436C1728.48 26.9182 1729.93 29.5497 1730.82 32.3858C1732.69 38.121 1732.21 44.3597 1729.5 49.7458C1726.78 55.1319 1722.04 59.2299 1716.32 61.149C1714.06 61.8858 1711.71 62.2593 1709.33 62.2553C1704.54 62.2368 1699.88 60.7009 1696.02 57.869C1692.16 55.037 1689.3 51.055 1687.85 46.4964ZM1561.5 58.942C1555.77 57.0229 1551.04 52.9248 1548.32 47.5388C1545.6 42.1527 1545.13 35.914 1546.99 30.1788C1547.88 27.342 1549.33 24.71 1551.25 22.4349C1553.17 20.1598 1555.52 18.2868 1558.17 16.9243C1560.81 15.5617 1563.71 14.7366 1566.68 14.4966C1569.64 14.2566 1572.63 14.6066 1575.46 15.5262C1581.19 17.4452 1585.93 21.5435 1588.64 26.9298C1591.36 32.3162 1591.84 38.5549 1589.97 44.2894C1588.52 48.8515 1585.66 52.8376 1581.8 55.6729C1577.94 58.5082 1573.28 60.0461 1568.48 60.0649C1566.1 60.0649 1563.74 59.6858 1561.48 58.942H1561.5ZM1645.15 36.9824C1641.62 32.0781 1640.17 25.9879 1641.1 20.0248C1642.03 14.0616 1645.28 8.70334 1650.13 5.10507C1652.53 3.34068 1655.25 2.07053 1658.15 1.36878C1661.04 0.667032 1664.05 0.547742 1666.99 1.01788C1669.93 1.48801 1672.75 2.53815 1675.27 4.10698C1677.8 5.67581 1680 7.7319 1681.72 10.1552C1685.24 15.0595 1686.7 21.1498 1685.76 27.1129C1684.83 33.076 1681.59 38.4343 1676.73 42.0326C1674.34 43.7977 1671.61 45.0684 1668.72 45.7706C1665.82 46.4728 1662.82 46.5922 1659.88 46.1221C1656.94 45.6519 1654.12 44.6015 1651.59 43.0323C1649.06 41.463 1646.87 39.4063 1645.15 36.9824ZM1601.6 41.2692C1596.75 37.6718 1593.5 32.3134 1592.57 26.3499C1591.64 20.3864 1593.09 14.2957 1596.62 9.39189C1598.34 6.97662 1600.53 4.92751 1603.05 3.36371C1605.58 1.7999 1608.39 0.752596 1611.32 0.282684C1614.26 -0.187228 1617.25 -0.070372 1620.14 0.626459C1623.03 1.32329 1625.75 2.58619 1628.14 4.34174C1633 7.93912 1636.24 13.2975 1637.18 19.2611C1638.11 25.2246 1636.66 31.3152 1633.13 36.2191C1631.41 38.6436 1629.22 40.7008 1626.69 42.2705C1624.16 43.8402 1621.34 44.8909 1618.4 45.3611C1615.46 45.8313 1612.45 45.7116 1609.56 45.009C1606.66 44.3064 1603.94 43.0351 1601.54 41.2692H1601.6Z" fill="white"/>
</svg>
