<svg width="179" height="39" viewBox="0 0 179 39" fill="none" xmlns="http://www.w3.org/2000/svg">
<mask id="path-1-inside-1_511_5430" fill="white">
<path fill-rule="evenodd" clip-rule="evenodd" d="M0 6.54502C0 4.34713 0 3.24818 0.402171 2.39786C0.816515 1.5218 1.5218 0.816515 2.39786 0.402171C3.24818 0 4.34712 0 6.54501 0C8.7429 0 9.84185 0 10.6922 0.402171C11.5682 0.816515 12.2735 1.5218 12.6879 2.39786C13.09 3.24818 13.09 4.34712 13.09 6.54501V20.073C13.09 20.9972 13.09 21.4593 12.9945 21.8989C12.9098 22.2888 12.7697 22.6646 12.5787 23.015C12.3633 23.4099 12.061 23.7594 11.4563 24.4582L8.82784 27.4962C6.0984 30.6508 4.73369 32.2281 3.54587 32.3823C2.51684 32.5158 1.48825 32.1326 0.797423 31.3583C0 30.4645 0 28.3788 0 24.2073V6.54502ZM15.708 6.70209C15.708 4.35614 15.708 3.18316 16.1646 2.28713C16.5662 1.49895 17.207 0.858148 17.9952 0.456553C18.8912 0 20.0642 0 22.4101 0H22.6196C24.9655 0 26.1385 0 27.0345 0.456553C27.8227 0.858148 28.4635 1.49895 28.8651 2.28713C29.3217 3.18316 29.3217 4.35614 29.3217 6.70209V16.3364C29.3217 18.6823 29.3217 19.8553 28.8651 20.7513C28.4635 21.5395 27.8227 22.1803 27.0345 22.5819C26.1385 23.0384 24.9655 23.0384 22.6196 23.0384H22.4101C20.0642 23.0384 18.8912 23.0384 17.9952 22.5819C17.207 22.1803 16.5662 21.5395 16.1646 20.7513C15.708 19.8553 15.708 18.6823 15.708 16.3364V6.70209ZM13.7673 25.8125C13.3307 26.0971 12.964 26.4942 12.2307 27.2884L10.4077 29.2628C7.94575 31.9292 6.71476 33.2623 6.65716 34.3986C6.60714 35.3853 7.02422 36.3381 7.78313 36.9708C8.65702 37.6993 10.4716 37.6993 14.1008 37.6993H23.0384C24.9902 37.6993 25.9661 37.6993 26.7358 37.3804C27.7622 36.9553 28.5777 36.1398 29.0028 35.1135C29.3217 34.3437 29.3217 33.3678 29.3217 31.4161C29.3217 29.4643 29.3217 28.4884 29.0028 27.7187C28.5777 26.6923 27.7622 25.8768 26.7358 25.4517C25.9661 25.1328 24.9902 25.1328 23.0384 25.1328H17.1548C16.0739 25.1328 15.5335 25.1328 15.0282 25.2606C14.5803 25.3738 14.1543 25.5603 13.7673 25.8125Z"/>
</mask>
<path fill-rule="evenodd" clip-rule="evenodd" d="M0 6.54502C0 4.34713 0 3.24818 0.402171 2.39786C0.816515 1.5218 1.5218 0.816515 2.39786 0.402171C3.24818 0 4.34712 0 6.54501 0C8.7429 0 9.84185 0 10.6922 0.402171C11.5682 0.816515 12.2735 1.5218 12.6879 2.39786C13.09 3.24818 13.09 4.34712 13.09 6.54501V20.073C13.09 20.9972 13.09 21.4593 12.9945 21.8989C12.9098 22.2888 12.7697 22.6646 12.5787 23.015C12.3633 23.4099 12.061 23.7594 11.4563 24.4582L8.82784 27.4962C6.0984 30.6508 4.73369 32.2281 3.54587 32.3823C2.51684 32.5158 1.48825 32.1326 0.797423 31.3583C0 30.4645 0 28.3788 0 24.2073V6.54502ZM15.708 6.70209C15.708 4.35614 15.708 3.18316 16.1646 2.28713C16.5662 1.49895 17.207 0.858148 17.9952 0.456553C18.8912 0 20.0642 0 22.4101 0H22.6196C24.9655 0 26.1385 0 27.0345 0.456553C27.8227 0.858148 28.4635 1.49895 28.8651 2.28713C29.3217 3.18316 29.3217 4.35614 29.3217 6.70209V16.3364C29.3217 18.6823 29.3217 19.8553 28.8651 20.7513C28.4635 21.5395 27.8227 22.1803 27.0345 22.5819C26.1385 23.0384 24.9655 23.0384 22.6196 23.0384H22.4101C20.0642 23.0384 18.8912 23.0384 17.9952 22.5819C17.207 22.1803 16.5662 21.5395 16.1646 20.7513C15.708 19.8553 15.708 18.6823 15.708 16.3364V6.70209ZM13.7673 25.8125C13.3307 26.0971 12.964 26.4942 12.2307 27.2884L10.4077 29.2628C7.94575 31.9292 6.71476 33.2623 6.65716 34.3986C6.60714 35.3853 7.02422 36.3381 7.78313 36.9708C8.65702 37.6993 10.4716 37.6993 14.1008 37.6993H23.0384C24.9902 37.6993 25.9661 37.6993 26.7358 37.3804C27.7622 36.9553 28.5777 36.1398 29.0028 35.1135C29.3217 34.3437 29.3217 33.3678 29.3217 31.4161C29.3217 29.4643 29.3217 28.4884 29.0028 27.7187C28.5777 26.6923 27.7622 25.8768 26.7358 25.4517C25.9661 25.1328 24.9902 25.1328 23.0384 25.1328H17.1548C16.0739 25.1328 15.5335 25.1328 15.0282 25.2606C14.5803 25.3738 14.1543 25.5603 13.7673 25.8125Z" fill="#000000"/>
<path d="M0.402171 2.39786L0.243306 2.32272L0.243306 2.32272L0.402171 2.39786ZM2.39786 0.402171L2.32272 0.243306L2.32272 0.243306L2.39786 0.402171ZM10.6922 0.402171L10.617 0.561035L10.617 0.561035L10.6922 0.402171ZM12.6879 2.39786L12.529 2.473L12.529 2.473L12.6879 2.39786ZM12.9945 21.8989L13.1662 21.9362L13.1662 21.9362L12.9945 21.8989ZM12.5787 23.015L12.733 23.0991L12.733 23.0991L12.5787 23.015ZM11.4563 24.4582L11.5892 24.5732L11.5892 24.5732L11.4563 24.4582ZM8.82784 27.4962L8.69494 27.3812L8.69494 27.3812L8.82784 27.4962ZM3.54587 32.3823L3.52325 32.208L3.52325 32.208L3.54587 32.3823ZM0.797423 31.3583L0.928553 31.2413L0.928553 31.2413L0.797423 31.3583ZM16.1646 2.28713L16.3212 2.36691L16.3212 2.36691L16.1646 2.28713ZM17.9952 0.456553L18.0749 0.613136L18.0749 0.613136L17.9952 0.456553ZM27.0345 0.456553L27.1143 0.29997L27.1143 0.29997L27.0345 0.456553ZM28.8651 2.28713L28.7085 2.36691L28.7085 2.36691L28.8651 2.28713ZM28.8651 20.7513L29.0217 20.8311L29.0217 20.8311L28.8651 20.7513ZM27.0345 22.5819L27.1143 22.7385L27.1143 22.7385L27.0345 22.5819ZM17.9952 22.5819L17.9154 22.7385L17.9154 22.7385L17.9952 22.5819ZM16.1646 20.7513L16.3212 20.6715L16.3212 20.6715L16.1646 20.7513ZM12.2307 27.2884L12.3599 27.4076L12.3599 27.4076L12.2307 27.2884ZM13.7673 25.8125L13.6713 25.6653L13.6713 25.6653L13.7673 25.8125ZM10.4077 29.2628L10.2786 29.1436L10.2786 29.1436L10.4077 29.2628ZM6.65716 34.3986L6.83267 34.4075L6.83267 34.4075L6.65716 34.3986ZM7.78313 36.9708L7.89565 36.8358L7.89565 36.8358L7.78313 36.9708ZM29.0028 35.1135L29.1652 35.1807L29.1652 35.1807L29.0028 35.1135ZM29.0028 27.7187L29.1652 27.6514L29.1652 27.6514L29.0028 27.7187ZM26.7358 25.4517L26.6686 25.6141L26.6686 25.6141L26.7358 25.4517ZM15.0282 25.2606L15.0712 25.4309L15.0712 25.4309L15.0282 25.2606ZM0.243306 2.32272C0.0292164 2.77538 -0.0739032 3.28676 -0.124952 3.95267C-0.175858 4.61671 -0.175737 5.44879 -0.175737 6.54502H0.175737C0.175737 5.44336 0.175858 4.62702 0.225495 3.97953C0.274989 3.33391 0.372954 2.87066 0.561035 2.473L0.243306 2.32272ZM2.32272 0.243306C1.40991 0.675034 0.675034 1.40991 0.243306 2.32272L0.561035 2.473C0.957997 1.63369 1.63369 0.957997 2.473 0.561035L2.32272 0.243306ZM6.54501 -0.175737C5.44878 -0.175737 4.6167 -0.175858 3.95267 -0.124952C3.28676 -0.0739032 2.77538 0.0292164 2.32272 0.243306L2.473 0.561035C2.87066 0.372954 3.33391 0.274989 3.97953 0.225495C4.62702 0.175858 5.44335 0.175737 6.54501 0.175737V-0.175737ZM10.7673 0.243306C10.3146 0.0292164 9.80326 -0.0739032 9.13736 -0.124952C8.47332 -0.175858 7.64124 -0.175737 6.54501 -0.175737V0.175737C7.64667 0.175737 8.46301 0.175858 9.11049 0.225495C9.75612 0.274989 10.2194 0.372954 10.617 0.561035L10.7673 0.243306ZM12.8467 2.32272C12.415 1.40991 11.6801 0.675034 10.7673 0.243306L10.617 0.561035C11.4563 0.957997 12.132 1.63369 12.529 2.473L12.8467 2.32272ZM13.2658 6.54501C13.2658 5.44878 13.2659 4.6167 13.215 3.95267C13.1639 3.28676 13.0608 2.77538 12.8467 2.32272L12.529 2.473C12.7171 2.87066 12.815 3.33391 12.8645 3.97953C12.9142 4.62702 12.9143 5.44336 12.9143 6.54501H13.2658ZM13.2658 20.073V6.54501H12.9143V20.073H13.2658ZM13.1662 21.9362C13.2667 21.4739 13.2658 20.9897 13.2658 20.073H12.9143C12.9143 21.0047 12.9134 21.4447 12.8228 21.8616L13.1662 21.9362ZM12.733 23.0991C12.932 22.7341 13.0779 22.3425 13.1662 21.9362L12.8228 21.8616C12.7416 22.2351 12.6074 22.5952 12.4244 22.9308L12.733 23.0991ZM11.5892 24.5732C12.189 23.88 12.5064 23.5145 12.733 23.0991L12.4244 22.9308C12.2201 23.3054 11.933 23.6387 11.3234 24.3432L11.5892 24.5732ZM8.96074 27.6111L11.5892 24.5732L11.3234 24.3432L8.69494 27.3812L8.96074 27.6111ZM3.56848 32.5565C4.2248 32.4714 4.89941 31.9993 5.73126 31.1904C6.56886 30.3759 7.59826 29.1859 8.96074 27.6111L8.69494 27.3812C7.32798 28.9611 6.31031 30.1371 5.48623 30.9384C4.65642 31.7453 4.05475 32.139 3.52325 32.208L3.56848 32.5565ZM0.666292 31.4753C1.39576 32.2929 2.48189 32.6975 3.56848 32.5565L3.52325 32.208C2.55178 32.334 1.58073 31.9723 0.928553 31.2413L0.666292 31.4753ZM-0.175737 24.2073C-0.175737 26.2896 -0.175897 27.8631 -0.0754083 29.0271C0.0243922 30.1831 0.225683 30.9815 0.666292 31.4753L0.928553 31.2413C0.571739 30.8414 0.374319 30.15 0.274764 28.9968C0.175897 27.8516 0.175737 26.2965 0.175737 24.2073H-0.175737ZM-0.175737 6.54502V24.2073H0.175737V6.54502H-0.175737ZM16.008 2.20735C15.765 2.68427 15.6479 3.22722 15.5899 3.93658C15.5322 4.64389 15.5323 5.53202 15.5323 6.70209H15.8838C15.8838 5.52622 15.8839 4.65488 15.9403 3.9652C15.9964 3.27758 16.1076 2.78603 16.3212 2.36691L16.008 2.20735ZM17.9154 0.29997C17.0941 0.718413 16.4264 1.3861 16.008 2.20735L16.3212 2.36691C16.7059 1.6118 17.3198 0.997883 18.0749 0.613136L17.9154 0.29997ZM22.4101 -0.175737C21.24 -0.175737 20.3519 -0.175874 19.6446 -0.118085C18.9353 -0.0601276 18.3923 0.0569664 17.9154 0.29997L18.0749 0.613136C18.4941 0.399586 18.9856 0.288404 19.6732 0.232223C20.3629 0.175874 21.2342 0.175737 22.4101 0.175737V-0.175737ZM22.6196 -0.175737H22.4101V0.175737H22.6196V-0.175737ZM27.1143 0.29997C26.6374 0.0569664 26.0944 -0.0601276 25.3851 -0.118085C24.6778 -0.175874 23.7896 -0.175737 22.6196 -0.175737V0.175737C23.7954 0.175737 24.6668 0.175874 25.3565 0.232223C26.0441 0.288404 26.5356 0.399586 26.9547 0.613136L27.1143 0.29997ZM29.0217 2.20735C28.6032 1.3861 27.9356 0.718413 27.1143 0.29997L26.9547 0.613136C27.7099 0.997883 28.3238 1.6118 28.7085 2.36691L29.0217 2.20735ZM29.4974 6.70209C29.4974 5.53202 29.4975 4.64389 29.4397 3.93658C29.3818 3.22722 29.2647 2.68427 29.0217 2.20735L28.7085 2.36691C28.9221 2.78603 29.0333 3.27758 29.0894 3.9652C29.1458 4.65488 29.1459 5.52622 29.1459 6.70209H29.4974ZM29.4974 16.3364V6.70209H29.1459V16.3364H29.4974ZM29.0217 20.8311C29.2647 20.3542 29.3818 19.8112 29.4397 19.1019C29.4975 18.3946 29.4974 17.5064 29.4974 16.3364H29.1459C29.1459 17.5122 29.1458 18.3836 29.0894 19.0732C29.0333 19.7609 28.9221 20.2524 28.7085 20.6715L29.0217 20.8311ZM27.1143 22.7385C27.9356 22.32 28.6032 21.6523 29.0217 20.8311L28.7085 20.6715C28.3238 21.4266 27.7099 22.0406 26.9547 22.4253L27.1143 22.7385ZM22.6196 23.2142C23.7896 23.2142 24.6778 23.2143 25.3851 23.1565C26.0944 23.0986 26.6374 22.9815 27.1143 22.7385L26.9547 22.4253C26.5356 22.6389 26.0441 22.75 25.3565 22.8062C24.6668 22.8626 23.7954 22.8627 22.6196 22.8627V23.2142ZM22.4101 23.2142H22.6196V22.8627H22.4101V23.2142ZM17.9154 22.7385C18.3923 22.9815 18.9353 23.0986 19.6446 23.1565C20.3519 23.2143 21.24 23.2142 22.4101 23.2142V22.8627C21.2342 22.8627 20.3629 22.8626 19.6732 22.8062C18.9856 22.75 18.4941 22.6389 18.0749 22.4253L17.9154 22.7385ZM16.008 20.8311C16.4264 21.6523 17.0941 22.32 17.9154 22.7385L18.0749 22.4253C17.3198 22.0406 16.7059 21.4266 16.3212 20.6715L16.008 20.8311ZM15.5323 16.3364C15.5323 17.5064 15.5322 18.3946 15.5899 19.1019C15.6479 19.8112 15.765 20.3542 16.008 20.8311L16.3212 20.6715C16.1076 20.2524 15.9964 19.7609 15.9403 19.0732C15.8839 18.3836 15.8838 17.5122 15.8838 16.3364H15.5323ZM15.5323 6.70209V16.3364H15.8838V6.70209H15.5323ZM12.3599 27.4076C13.0991 26.6069 13.4492 26.2296 13.8632 25.9597L13.6713 25.6653C13.2121 25.9646 12.8289 26.3815 12.1016 27.1691L12.3599 27.4076ZM10.5368 29.382L12.3599 27.4076L12.1016 27.1691L10.2786 29.1436L10.5368 29.382ZM6.83267 34.4075C6.85856 33.8968 7.15039 33.3164 7.77004 32.5117C8.38677 31.7108 9.30347 30.7177 10.5368 29.382L10.2786 29.1436C9.04998 30.4742 8.12021 31.4809 7.49156 32.2973C6.86583 33.1098 6.51336 33.7642 6.48165 34.3897L6.83267 34.4075ZM7.89565 36.8358C7.1792 36.2385 6.78545 35.339 6.83267 34.4075L6.48165 34.3897C6.42883 35.4316 6.86924 36.4377 7.6706 37.1058L7.89565 36.8358ZM14.1008 37.5235C12.2827 37.5235 10.9312 37.5234 9.9244 37.4332C8.91284 37.3426 8.28844 37.1632 7.89565 36.8358L7.6706 37.1058C8.15171 37.5068 8.87155 37.6917 9.89304 37.7832C10.9193 37.8752 12.2897 37.875 14.1008 37.875V37.5235ZM23.0384 37.5235H14.1008V37.875H23.0384V37.5235ZM26.6686 37.2181C26.3087 37.3671 25.8936 37.4448 25.3184 37.4841C24.7416 37.5234 24.0167 37.5235 23.0384 37.5235V37.875C24.0119 37.875 24.7508 37.8751 25.3423 37.8347C25.9354 37.7943 26.3932 37.7126 26.8031 37.5428L26.6686 37.2181ZM28.8404 35.0462C28.4331 36.0295 27.6519 36.8108 26.6686 37.2181L26.8031 37.5428C27.8725 37.0998 28.7222 36.2501 29.1652 35.1807L28.8404 35.0462ZM29.1459 31.4161C29.1459 32.3943 29.1458 33.1192 29.1065 33.696C29.0672 34.2712 28.9895 34.6863 28.8404 35.0462L29.1652 35.1807C29.3349 34.7708 29.4167 34.3131 29.4571 33.72C29.4975 33.1284 29.4974 32.3895 29.4974 31.4161H29.1459ZM28.8404 27.7859C28.9895 28.1458 29.0672 28.5609 29.1065 29.1361C29.1458 29.7129 29.1459 30.4378 29.1459 31.4161H29.4974C29.4974 30.4426 29.4975 29.7037 29.4571 29.1122C29.4167 28.5191 29.3349 28.0613 29.1652 27.6514L28.8404 27.7859ZM26.6686 25.6141C27.6519 26.0214 28.4331 26.8026 28.8404 27.7859L29.1652 27.6514C28.7222 26.582 27.8725 25.7323 26.8031 25.2893L26.6686 25.6141ZM23.0384 25.3086C24.0167 25.3086 24.7416 25.3087 25.3184 25.348C25.8936 25.3873 26.3087 25.465 26.6686 25.6141L26.8031 25.2893C26.3932 25.1196 25.9354 25.0378 25.3423 24.9974C24.7508 24.957 24.0119 24.9571 23.0384 24.9571V25.3086ZM17.1548 25.3086H23.0384V24.9571H17.1548V25.3086ZM15.0712 25.4309C15.5504 25.3098 16.0651 25.3086 17.1548 25.3086V24.9571C16.0828 24.9571 15.5165 24.9559 14.9851 25.0902L15.0712 25.4309ZM13.8632 25.9597C14.234 25.7181 14.6422 25.5394 15.0712 25.4309L14.9851 25.0902C14.5185 25.2081 14.0745 25.4025 13.6713 25.6653L13.8632 25.9597Z" fill="white" fill-opacity="0.1" mask="url(#path-1-inside-1_511_5430)"/>
<mask id="path-3-inside-2_511_5430" fill="white">
<path d="M37.6992 37.1749V0.214844H54.3114C56.5687 0.214844 58.5262 0.602046 60.1839 1.37645C61.8769 2.11565 63.1819 3.18925 64.0989 4.59725C65.0512 5.97006 65.5273 7.62446 65.5273 9.56046V10.0885C65.5273 11.7781 65.2099 13.1685 64.575 14.2597C63.9402 15.3157 63.1819 16.1429 62.3001 16.7413C61.4536 17.3045 60.6424 17.7093 59.8665 17.9557V18.9061C60.6424 19.1173 61.4889 19.5221 62.4059 20.1205C63.3229 20.6837 64.0989 21.5109 64.7337 22.6021C65.4039 23.6933 65.7389 25.1189 65.7389 26.8789V27.4069C65.7389 29.4485 65.2628 31.2085 64.3105 32.6869C63.3582 34.1301 62.0356 35.2389 60.3426 36.0133C58.6849 36.7877 56.7451 37.1749 54.5231 37.1749H37.6992ZM44.6827 30.8389H53.6766C55.1932 30.8389 56.41 30.4693 57.327 29.7301C58.2793 28.9909 58.7555 27.9349 58.7555 26.5621V26.0341C58.7555 24.6613 58.297 23.6053 57.3799 22.8661C56.4629 22.1269 55.2285 21.7573 53.6766 21.7573H44.6827V30.8389ZM44.6827 15.4213H53.5708C55.0168 15.4213 56.1984 15.0517 57.1154 14.3125C58.0677 13.5733 58.5438 12.5525 58.5438 11.2501V10.7221C58.5438 9.38446 58.0853 8.36366 57.1683 7.65966C56.2513 6.92046 55.0521 6.55086 53.5708 6.55086H44.6827V15.4213Z"/>
<path d="M76.9852 37.9141C75.1158 37.9141 73.4405 37.5973 71.9592 36.9637C70.4778 36.2949 69.2963 35.3445 68.4145 34.1125C67.568 32.8453 67.1448 31.3141 67.1448 29.5189C67.1448 27.7237 67.568 26.2277 68.4145 25.0309C69.2963 23.7989 70.4955 22.8837 72.0121 22.2853C73.564 21.6517 75.3275 21.3349 77.3026 21.3349H84.4977V19.8565C84.4977 18.6245 84.1097 17.6213 83.3338 16.8469C82.5578 16.0373 81.3234 15.6325 79.6304 15.6325C77.9727 15.6325 76.7383 16.0197 75.9271 16.7941C75.1158 17.5333 74.5868 18.5013 74.3399 19.6981L68.2029 17.6389C68.6262 16.3013 69.2963 15.0869 70.2133 13.9957C71.1656 12.8693 72.4177 11.9717 73.9696 11.3029C75.5567 10.5989 77.4789 10.2469 79.7362 10.2469C83.1927 10.2469 85.9261 11.1093 87.9365 12.8341C89.9469 14.5589 90.9521 17.0581 90.9521 20.3317V30.0997C90.9521 31.1557 91.4459 31.6837 92.4335 31.6837H94.5497V37.1749H90.1056C88.8006 37.1749 87.7249 36.8581 86.8784 36.2245C86.0319 35.5909 85.6087 34.7461 85.6087 33.6901V33.6373H84.6035C84.4624 34.0597 84.145 34.6229 83.6512 35.3269C83.1574 35.9957 82.3815 36.5941 81.3234 37.1221C80.2653 37.6501 78.8192 37.9141 76.9852 37.9141ZM78.1491 32.5285C80.0184 32.5285 81.535 32.0181 82.6989 30.9973C83.8981 29.9413 84.4977 28.5509 84.4977 26.8261V26.2981H77.7787C76.5443 26.2981 75.5744 26.5621 74.869 27.0901C74.1636 27.6181 73.8109 28.3573 73.8109 29.3077C73.8109 30.2581 74.1812 31.0325 74.9219 31.6309C75.6625 32.2293 76.7383 32.5285 78.1491 32.5285Z"/>
<path d="M96.6994 37.1749V10.9861H103.26V13.9429H104.212C104.6 12.8869 105.235 12.1125 106.117 11.6197C107.034 11.1269 108.092 10.8805 109.291 10.8805H112.547V13.8373V16.7941H109.185C107.492 16.7941 106.099 17.2517 105.006 18.1669C103.912 19.0469 103.365 20.4197 103.365 22.2853V37.1749H96.6994Z"/>
<path d="M147.733 37.9141C145.123 37.9141 142.813 37.3685 140.803 36.2773C138.828 35.1509 137.276 33.5845 136.147 31.5781C135.054 29.5365 134.507 27.1429 134.507 24.3973V23.7637C134.507 21.0181 135.054 18.6421 136.147 16.6357C137.241 14.5941 138.775 13.0277 140.75 11.9365C142.725 10.8101 145.018 10.2469 147.628 10.2469C150.202 10.2469 152.442 10.8277 154.347 11.9893C156.251 13.1157 157.733 14.6997 158.791 16.7413C159.849 18.7477 160.378 21.0885 160.378 23.7637V26.0341H141.279C141.35 27.8293 142.02 29.2901 143.289 30.4165C144.559 31.5429 146.111 32.1061 147.945 32.1061C149.814 32.1061 151.19 31.7013 152.072 30.8917C152.953 30.0821 153.624 29.1845 154.082 28.1989L159.531 31.0501C159.038 31.9653 158.314 32.9685 157.362 34.0597C156.445 35.1157 155.211 36.0309 153.659 36.8053C152.107 37.5445 150.132 37.9141 147.733 37.9141ZM141.332 21.0709H153.606C153.465 19.5573 152.848 18.3429 151.754 17.4277C150.696 16.5125 149.303 16.0549 147.575 16.0549C145.776 16.0549 144.348 16.5125 143.289 17.4277C142.231 18.3429 141.579 19.5573 141.332 21.0709Z"/>
<path d="M162.305 37.1749V10.9861H168.866V13.9429H169.818C170.206 12.8869 170.841 12.1125 171.723 11.6197C172.64 11.1269 173.698 10.8805 174.897 10.8805H178.071V16.7941H174.791C173.098 16.7941 171.705 17.2517 170.612 18.1669C169.518 19.0469 168.971 20.4197 168.971 22.2853V37.1749H162.305Z"/>
<path d="M125.452 37.1749C123.724 37.1749 122.313 36.6469 121.22 35.5909C120.162 34.4997 119.633 33.0565 119.633 31.2613V16.7941H114.506V13.8373V10.8805H119.633V2.85486H126.299V10.9861H133.494V16.7941H126.299V30.0997C126.299 31.1557 126.792 31.6837 127.78 31.6837H132.859V37.1749H125.452Z"/>
</mask>
<path d="M37.6992 37.1749V0.214844H54.3114C56.5687 0.214844 58.5262 0.602046 60.1839 1.37645C61.8769 2.11565 63.1819 3.18925 64.0989 4.59725C65.0512 5.97006 65.5273 7.62446 65.5273 9.56046V10.0885C65.5273 11.7781 65.2099 13.1685 64.575 14.2597C63.9402 15.3157 63.1819 16.1429 62.3001 16.7413C61.4536 17.3045 60.6424 17.7093 59.8665 17.9557V18.9061C60.6424 19.1173 61.4889 19.5221 62.4059 20.1205C63.3229 20.6837 64.0989 21.5109 64.7337 22.6021C65.4039 23.6933 65.7389 25.1189 65.7389 26.8789V27.4069C65.7389 29.4485 65.2628 31.2085 64.3105 32.6869C63.3582 34.1301 62.0356 35.2389 60.3426 36.0133C58.6849 36.7877 56.7451 37.1749 54.5231 37.1749H37.6992ZM44.6827 30.8389H53.6766C55.1932 30.8389 56.41 30.4693 57.327 29.7301C58.2793 28.9909 58.7555 27.9349 58.7555 26.5621V26.0341C58.7555 24.6613 58.297 23.6053 57.3799 22.8661C56.4629 22.1269 55.2285 21.7573 53.6766 21.7573H44.6827V30.8389ZM44.6827 15.4213H53.5708C55.0168 15.4213 56.1984 15.0517 57.1154 14.3125C58.0677 13.5733 58.5438 12.5525 58.5438 11.2501V10.7221C58.5438 9.38446 58.0853 8.36366 57.1683 7.65966C56.2513 6.92046 55.0521 6.55086 53.5708 6.55086H44.6827V15.4213Z" fill="#000000"/>
<path d="M76.9852 37.9141C75.1158 37.9141 73.4405 37.5973 71.9592 36.9637C70.4778 36.2949 69.2963 35.3445 68.4145 34.1125C67.568 32.8453 67.1448 31.3141 67.1448 29.5189C67.1448 27.7237 67.568 26.2277 68.4145 25.0309C69.2963 23.7989 70.4955 22.8837 72.0121 22.2853C73.564 21.6517 75.3275 21.3349 77.3026 21.3349H84.4977V19.8565C84.4977 18.6245 84.1097 17.6213 83.3338 16.8469C82.5578 16.0373 81.3234 15.6325 79.6304 15.6325C77.9727 15.6325 76.7383 16.0197 75.9271 16.7941C75.1158 17.5333 74.5868 18.5013 74.3399 19.6981L68.2029 17.6389C68.6262 16.3013 69.2963 15.0869 70.2133 13.9957C71.1656 12.8693 72.4177 11.9717 73.9696 11.3029C75.5567 10.5989 77.4789 10.2469 79.7362 10.2469C83.1927 10.2469 85.9261 11.1093 87.9365 12.8341C89.9469 14.5589 90.9521 17.0581 90.9521 20.3317V30.0997C90.9521 31.1557 91.4459 31.6837 92.4335 31.6837H94.5497V37.1749H90.1056C88.8006 37.1749 87.7249 36.8581 86.8784 36.2245C86.0319 35.5909 85.6087 34.7461 85.6087 33.6901V33.6373H84.6035C84.4624 34.0597 84.145 34.6229 83.6512 35.3269C83.1574 35.9957 82.3815 36.5941 81.3234 37.1221C80.2653 37.6501 78.8192 37.9141 76.9852 37.9141ZM78.1491 32.5285C80.0184 32.5285 81.535 32.0181 82.6989 30.9973C83.8981 29.9413 84.4977 28.5509 84.4977 26.8261V26.2981H77.7787C76.5443 26.2981 75.5744 26.5621 74.869 27.0901C74.1636 27.6181 73.8109 28.3573 73.8109 29.3077C73.8109 30.2581 74.1812 31.0325 74.9219 31.6309C75.6625 32.2293 76.7383 32.5285 78.1491 32.5285Z" fill="#000000"/>
<path d="M96.6994 37.1749V10.9861H103.26V13.9429H104.212C104.6 12.8869 105.235 12.1125 106.117 11.6197C107.034 11.1269 108.092 10.8805 109.291 10.8805H112.547V13.8373V16.7941H109.185C107.492 16.7941 106.099 17.2517 105.006 18.1669C103.912 19.0469 103.365 20.4197 103.365 22.2853V37.1749H96.6994Z" fill="#000000"/>
<path d="M147.733 37.9141C145.123 37.9141 142.813 37.3685 140.803 36.2773C138.828 35.1509 137.276 33.5845 136.147 31.5781C135.054 29.5365 134.507 27.1429 134.507 24.3973V23.7637C134.507 21.0181 135.054 18.6421 136.147 16.6357C137.241 14.5941 138.775 13.0277 140.75 11.9365C142.725 10.8101 145.018 10.2469 147.628 10.2469C150.202 10.2469 152.442 10.8277 154.347 11.9893C156.251 13.1157 157.733 14.6997 158.791 16.7413C159.849 18.7477 160.378 21.0885 160.378 23.7637V26.0341H141.279C141.35 27.8293 142.02 29.2901 143.289 30.4165C144.559 31.5429 146.111 32.1061 147.945 32.1061C149.814 32.1061 151.19 31.7013 152.072 30.8917C152.953 30.0821 153.624 29.1845 154.082 28.1989L159.531 31.0501C159.038 31.9653 158.314 32.9685 157.362 34.0597C156.445 35.1157 155.211 36.0309 153.659 36.8053C152.107 37.5445 150.132 37.9141 147.733 37.9141ZM141.332 21.0709H153.606C153.465 19.5573 152.848 18.3429 151.754 17.4277C150.696 16.5125 149.303 16.0549 147.575 16.0549C145.776 16.0549 144.348 16.5125 143.289 17.4277C142.231 18.3429 141.579 19.5573 141.332 21.0709Z" fill="#000000"/>
<path d="M162.305 37.1749V10.9861H168.866V13.9429H169.818C170.206 12.8869 170.841 12.1125 171.723 11.6197C172.64 11.1269 173.698 10.8805 174.897 10.8805H178.071V16.7941H174.791C173.098 16.7941 171.705 17.2517 170.612 18.1669C169.518 19.0469 168.971 20.4197 168.971 22.2853V37.1749H162.305Z" fill="#000000"/>
<path d="M125.452 37.1749C123.724 37.1749 122.313 36.6469 121.22 35.5909C120.162 34.4997 119.633 33.0565 119.633 31.2613V16.7941H114.506V13.8373V10.8805H119.633V2.85486H126.299V10.9861H133.494V16.7941H126.299V30.0997C126.299 31.1557 126.792 31.6837 127.78 31.6837H132.859V37.1749H125.452Z" fill="#000000"/>
<path d="M37.6992 37.1749H37.5235V37.3507H37.6992V37.1749ZM37.6992 0.214844V0.0391064H37.5235V0.214844H37.6992ZM60.1839 1.37645L60.1095 1.53572L60.1136 1.5375L60.1839 1.37645ZM64.0989 4.59725L63.9516 4.6932L63.9545 4.69742L64.0989 4.59725ZM64.575 14.2597L64.7257 14.3502L64.7269 14.348L64.575 14.2597ZM62.3001 16.7413L62.3975 16.8876L62.3988 16.8867L62.3001 16.7413ZM59.8665 17.9557L59.8133 17.7882L59.6907 17.8271V17.9557H59.8665ZM59.8665 18.9061H59.6907V19.0404L59.8203 19.0756L59.8665 18.9061ZM62.4059 20.1205L62.3098 20.2677L62.314 20.2702L62.4059 20.1205ZM64.7337 22.6021L64.5818 22.6905L64.584 22.6941L64.7337 22.6021ZM64.3105 32.6869L64.4572 32.7837L64.4582 32.7821L64.3105 32.6869ZM60.3426 36.0133L60.2695 35.8535L60.2682 35.8541L60.3426 36.0133ZM44.6827 30.8389H44.507V31.0146H44.6827V30.8389ZM57.327 29.7301L57.2193 29.5913L57.2167 29.5933L57.327 29.7301ZM57.3799 22.8661L57.4902 22.7293L57.4902 22.7293L57.3799 22.8661ZM44.6827 21.7573V21.5815H44.507V21.7573H44.6827ZM44.6827 15.4213H44.507V15.597H44.6827V15.4213ZM57.1154 14.3125L57.0076 14.1736L57.0051 14.1757L57.1154 14.3125ZM57.1683 7.65966L57.058 7.79652L57.0613 7.79906L57.1683 7.65966ZM44.6827 6.55086V6.37512H44.507V6.55086H44.6827ZM71.9592 36.9637L71.8868 37.1239L71.8901 37.1253L71.9592 36.9637ZM68.4145 34.1125L68.2683 34.2102L68.2716 34.2148L68.4145 34.1125ZM68.4145 25.0309L68.2716 24.9286L68.2711 24.9294L68.4145 25.0309ZM72.0121 22.2853L72.0766 22.4488L72.0785 22.448L72.0121 22.2853ZM84.4977 21.3349V21.5106H84.6734V21.3349H84.4977ZM83.3338 16.8469L83.2069 16.9685L83.2096 16.9713L83.3338 16.8469ZM75.9271 16.7941L76.0455 16.924L76.0484 16.9212L75.9271 16.7941ZM74.3399 19.6981L74.284 19.8647L74.472 19.9278L74.512 19.7336L74.3399 19.6981ZM68.2029 17.6389L68.0354 17.5859L67.9833 17.7505L68.147 17.8055L68.2029 17.6389ZM70.2133 13.9957L70.0791 13.8822L70.0788 13.8826L70.2133 13.9957ZM73.9696 11.3029L74.0391 11.4643L74.0408 11.4635L73.9696 11.3029ZM87.9365 12.8341L87.8221 12.9674L87.8221 12.9674L87.9365 12.8341ZM94.5497 31.6837H94.7254V31.508H94.5497V31.6837ZM94.5497 37.1749V37.3507H94.7254V37.1749H94.5497ZM86.8784 36.2245L86.7731 36.3652L86.7731 36.3652L86.8784 36.2245ZM85.6087 33.6373H85.7844V33.4616H85.6087V33.6373ZM84.6035 33.6373V33.4616H84.4769L84.4368 33.5816L84.6035 33.6373ZM83.6512 35.3269L83.7926 35.4313L83.7951 35.4278L83.6512 35.3269ZM82.6989 30.9973L82.8148 31.1294L82.8151 31.1292L82.6989 30.9973ZM84.4977 26.2981H84.6734V26.1224H84.4977V26.2981ZM74.869 27.0901L74.9743 27.2308L74.9743 27.2308L74.869 27.0901ZM74.9219 31.6309L74.8114 31.7676L74.8114 31.7676L74.9219 31.6309ZM96.6994 37.1749H96.5237V37.3507H96.6994V37.1749ZM96.6994 10.9861V10.8103H96.5237V10.9861H96.6994ZM103.26 10.9861H103.435V10.8103H103.26V10.9861ZM103.26 13.9429H103.084V14.1186H103.26V13.9429ZM104.212 13.9429V14.1186H104.335L104.377 14.0035L104.212 13.9429ZM106.117 11.6197L106.033 11.4648L106.031 11.4663L106.117 11.6197ZM112.547 10.8805H112.723V10.7047H112.547V10.8805ZM112.547 16.7941V16.9698H112.723V16.7941H112.547ZM105.006 18.1669L105.116 18.3038L105.118 18.3016L105.006 18.1669ZM103.365 37.1749V37.3507H103.541V37.1749H103.365ZM140.803 36.2773L140.716 36.43L140.719 36.4318L140.803 36.2773ZM136.147 31.5781L135.992 31.6611L135.994 31.6643L136.147 31.5781ZM136.147 16.6357L136.302 16.7198L136.302 16.7186L136.147 16.6357ZM140.75 11.9365L140.835 12.0903L140.837 12.0891L140.75 11.9365ZM154.347 11.9893L154.255 12.1393L154.257 12.1405L154.347 11.9893ZM158.791 16.7413L158.635 16.8221L158.635 16.8233L158.791 16.7413ZM160.378 26.0341V26.2098H160.554V26.0341H160.378ZM141.279 26.0341V25.8584H141.096L141.103 26.041L141.279 26.0341ZM154.082 28.1989L154.164 28.0432L154 27.9578L153.923 28.1248L154.082 28.1989ZM159.531 31.0501L159.686 31.1335L159.771 30.9769L159.613 30.8944L159.531 31.0501ZM157.362 34.0597L157.23 33.9442L157.23 33.9445L157.362 34.0597ZM153.659 36.8053L153.734 36.964L153.737 36.9626L153.659 36.8053ZM141.332 21.0709L141.158 21.0426L141.125 21.2466H141.332V21.0709ZM153.606 21.0709V21.2466H153.799L153.781 21.0546L153.606 21.0709ZM151.754 17.4277L151.639 17.5606L151.641 17.5624L151.754 17.4277ZM162.305 37.1749H162.13V37.3507H162.305V37.1749ZM162.305 10.9861V10.8103H162.13V10.9861H162.305ZM168.866 10.9861H169.041V10.8103H168.866V10.9861ZM168.866 13.9429H168.69V14.1186H168.866V13.9429ZM169.818 13.9429V14.1186H169.941L169.983 14.0035L169.818 13.9429ZM171.723 11.6197L171.639 11.4648L171.637 11.4663L171.723 11.6197ZM178.071 10.8805H178.247V10.7047H178.071V10.8805ZM178.071 16.7941V16.9698H178.247V16.7941H178.071ZM170.612 18.1669L170.722 18.3038L170.724 18.3016L170.612 18.1669ZM168.971 37.1749V37.3507H169.147V37.1749H168.971ZM114.506 10.8805V10.7047H114.331V10.8805H114.506ZM114.506 16.7941H114.331V16.9698H114.506V16.7941ZM121.22 35.5909L121.094 35.7133L121.098 35.7173L121.22 35.5909ZM119.633 16.7941H119.808V16.6183H119.633V16.7941ZM119.633 10.8805V11.0562H119.808V10.8805H119.633ZM119.633 2.85486V2.67912H119.457V2.85486H119.633ZM126.299 2.85486H126.474V2.67912H126.299V2.85486ZM126.299 10.9861H126.123V11.1618H126.299V10.9861ZM133.494 10.9861H133.669V10.8103H133.494V10.9861ZM133.494 16.7941V16.9698H133.669V16.7941H133.494ZM126.299 16.7941V16.6183H126.123V16.7941H126.299ZM132.859 31.6837H133.035V31.508H132.859V31.6837ZM132.859 37.1749V37.3507H133.035V37.1749H132.859ZM37.875 37.1749V0.214844H37.5235V37.1749H37.875ZM37.6992 0.390581H54.3114V0.0391064H37.6992V0.390581ZM54.3114 0.390581C56.5489 0.390581 58.4799 0.774381 60.1095 1.53567L60.2583 1.21723C58.5725 0.42971 56.5886 0.0391064 54.3114 0.0391064V0.390581ZM60.1136 1.5375C61.7783 2.26439 63.0552 3.31676 63.9516 4.69316L64.2461 4.50134C63.3085 3.06174 61.9754 1.96691 60.2542 1.21539L60.1136 1.5375ZM63.9545 4.69742C64.8833 6.03634 65.3516 7.6544 65.3516 9.56046H65.7031C65.7031 7.59451 65.2191 5.90378 64.2433 4.49709L63.9545 4.69742ZM65.3516 9.56046V10.0885H65.7031V9.56046H65.3516ZM65.3516 10.0885C65.3516 11.7572 65.038 13.1145 64.4231 14.1713L64.7269 14.348C65.3818 13.2224 65.7031 11.799 65.7031 10.0885H65.3516ZM64.4244 14.1691C63.8006 15.2067 63.059 16.0138 62.2014 16.5959L62.3988 16.8867C63.3047 16.2719 64.0797 15.4247 64.7256 14.3502L64.4244 14.1691ZM62.2028 16.595C61.3667 17.1512 60.5703 17.5478 59.8133 17.7882L59.9197 18.1232C60.7146 17.8708 61.5406 17.4577 62.3975 16.8876L62.2028 16.595ZM59.6907 17.9557V18.9061H60.0422V17.9557H59.6907ZM59.8203 19.0756C60.5735 19.2806 61.4031 19.6759 62.3099 20.2677L62.502 19.9733C61.5747 19.3682 60.7114 18.9539 59.9126 18.7365L59.8203 19.0756ZM62.314 20.2702C63.2023 20.8158 63.9591 21.62 64.5818 22.6905L64.8856 22.5137C64.2387 21.4018 63.4436 20.5516 62.4979 19.9707L62.314 20.2702ZM64.584 22.6941C65.2319 23.7491 65.5632 25.1397 65.5632 26.8789H65.9147C65.9147 25.0981 65.5758 23.6375 64.8835 22.5101L64.584 22.6941ZM65.5632 26.8789V27.4069H65.9147V26.8789H65.5632ZM65.5632 27.4069C65.5632 29.4203 65.094 31.146 64.1628 32.5917L64.4582 32.7821C65.4316 31.271 65.9147 29.4767 65.9147 27.4069H65.5632ZM64.1638 32.5901C63.2311 34.0037 61.9349 35.0917 60.2695 35.8535L60.4157 36.1731C62.1362 35.3861 63.4854 34.2565 64.4572 32.7837L64.1638 32.5901ZM60.2682 35.8541C58.6383 36.6155 56.7248 36.9992 54.5231 36.9992V37.3507C56.7654 37.3507 58.7316 36.9599 60.417 36.1725L60.2682 35.8541ZM54.5231 36.9992H37.6992V37.3507H54.5231V36.9992ZM44.6827 31.0146H53.6766V30.6632H44.6827V31.0146ZM53.6766 31.0146C55.2216 31.0146 56.481 30.6378 57.4373 29.8669L57.2167 29.5933C56.339 30.3008 55.1648 30.6632 53.6766 30.6632V31.0146ZM57.4348 29.8689C58.4363 29.0915 58.9312 27.9806 58.9312 26.5621H58.5797C58.5797 27.8892 58.1223 28.8903 57.2193 29.5913L57.4348 29.8689ZM58.9312 26.5621V26.0341H58.5797V26.5621H58.9312ZM58.9312 26.0341C58.9312 24.618 58.4557 23.5076 57.4902 22.7293L57.2696 23.0029C58.1382 23.703 58.5797 24.7046 58.5797 26.0341H58.9312ZM57.4902 22.7293C56.5333 21.9579 55.2558 21.5815 53.6766 21.5815V21.933C55.2012 21.933 56.3926 22.2959 57.2696 23.0029L57.4902 22.7293ZM53.6766 21.5815H44.6827V21.933H53.6766V21.5815ZM44.507 21.7573V30.8389H44.8584V21.7573H44.507ZM44.6827 15.597H53.5708V15.2455H44.6827V15.597ZM53.5708 15.597C55.0476 15.597 56.2708 15.219 57.2257 14.4493L57.0051 14.1757C56.126 14.8843 54.9861 15.2455 53.5708 15.2455V15.597ZM57.2232 14.4513C58.2222 13.6758 58.7196 12.6017 58.7196 11.2501H58.3681C58.3681 12.5032 57.9132 13.4707 57.0077 14.1736L57.2232 14.4513ZM58.7196 11.2501V10.7221H58.3681V11.2501H58.7196ZM58.7196 10.7221C58.7196 9.33955 58.2428 8.26302 57.2753 7.52026L57.0613 7.79906C57.9278 8.4643 58.3681 9.42937 58.3681 10.7221H58.7196ZM57.2786 7.52284C56.323 6.75254 55.0817 6.37512 53.5708 6.37512V6.72659C55.0225 6.72659 56.1796 7.08838 57.058 7.79648L57.2786 7.52284ZM53.5708 6.37512H44.6827V6.72659H53.5708V6.37512ZM44.507 6.55086V15.4213H44.8584V6.55086H44.507ZM76.9852 37.7384C75.1358 37.7384 73.4846 37.425 72.0283 36.8021L71.8901 37.1253C73.3965 37.7696 75.0959 38.0899 76.9852 38.0899V37.7384ZM72.0315 36.8035C70.5762 36.1465 69.4199 35.2152 68.5574 34.0102L68.2716 34.2148C69.1727 35.4738 70.3794 36.4433 71.8869 37.1239L72.0315 36.8035ZM68.5607 34.0149C67.7367 32.7814 67.3205 31.2857 67.3205 29.5189H66.9691C66.9691 31.3425 67.3994 32.9092 68.2684 34.2101L68.5607 34.0149ZM67.3205 29.5189C67.3205 27.7518 67.7368 26.2934 68.558 25.1324L68.2711 24.9294C67.3993 26.162 66.9691 27.6956 66.9691 29.5189H67.3205ZM68.5574 25.1332C69.418 23.9308 70.5889 23.0357 72.0766 22.4488L71.9476 22.1218C70.402 22.7316 69.1746 23.667 68.2716 24.9286L68.5574 25.1332ZM72.0785 22.448C73.6059 21.8244 75.3463 21.5106 77.3026 21.5106V21.1591C75.3087 21.1591 73.522 21.479 71.9457 22.1226L72.0785 22.448ZM77.3026 21.5106H84.4977V21.1591H77.3026V21.5106ZM84.6734 21.3349V19.8565H84.322V21.3349H84.6734ZM84.6734 19.8565C84.6734 18.5841 84.2711 17.5341 83.4579 16.7225L83.2096 16.9713C83.9483 17.7085 84.322 18.6648 84.322 19.8565H84.6734ZM83.4607 16.7253C82.6379 15.8668 81.3471 15.4567 79.6304 15.4567V15.8082C81.2997 15.8082 82.4778 16.2077 83.2069 16.9685L83.4607 16.7253ZM79.6304 15.4567C77.9489 15.4567 76.6623 15.8492 75.8057 16.667L76.0484 16.9212C76.8142 16.1901 77.9966 15.8082 79.6304 15.8082V15.4567ZM75.8087 16.6642C74.967 17.4312 74.4213 18.4337 74.1678 19.6626L74.512 19.7336C74.7523 18.5688 75.2647 17.6354 76.0454 16.924L75.8087 16.6642ZM74.3958 19.5315L68.2588 17.4723L68.147 17.8055L74.284 19.8647L74.3958 19.5315ZM68.3705 17.6919C68.7866 16.3766 69.4454 15.1826 70.3478 14.1087L70.0788 13.8826C69.1472 14.9912 68.4657 16.2259 68.0354 17.5859L68.3705 17.6919ZM70.3475 14.1091C71.2799 13.0063 72.5086 12.1239 74.0391 11.4643L73.9 11.1415C72.3268 11.8195 71.0513 12.7322 70.0791 13.8822L70.3475 14.1091ZM74.0408 11.4635C75.5999 10.772 77.4964 10.4226 79.7362 10.4226V10.0711C77.4615 10.0711 75.5136 10.4258 73.8983 11.1422L74.0408 11.4635ZM79.7362 10.4226C83.1638 10.4226 85.8522 11.2774 87.8221 12.9674L88.051 12.7007C86 10.9411 83.2217 10.0711 79.7362 10.0711V10.4226ZM87.8221 12.9674C89.7846 14.6512 90.7764 17.0962 90.7764 20.3317H91.1279C91.1279 17.0199 90.1093 14.4666 88.051 12.7007L87.8221 12.9674ZM90.7764 20.3317V30.0997H91.1279V20.3317H90.7764ZM90.7764 30.0997C90.7764 30.652 90.9053 31.0989 91.1941 31.4077C91.485 31.7188 91.9095 31.8594 92.4335 31.8594V31.508C91.9699 31.508 91.6537 31.3846 91.4508 31.1677C91.2459 30.9485 91.1279 30.6034 91.1279 30.0997H90.7764ZM92.4335 31.8594H94.5497V31.508H92.4335V31.8594ZM94.3739 31.6837V37.1749H94.7254V31.6837H94.3739ZM94.5497 36.9992H90.1056V37.3507H94.5497V36.9992ZM90.1056 36.9992C88.8296 36.9992 87.7933 36.6898 86.9837 36.0838L86.7731 36.3652C87.6565 37.0264 88.7717 37.3507 90.1056 37.3507V36.9992ZM86.9837 36.0838C86.1815 35.4834 85.7844 34.6907 85.7844 33.6901H85.433C85.433 34.8016 85.8824 35.6985 86.7731 36.3652L86.9837 36.0838ZM85.7844 33.6901V33.6373H85.433V33.6901H85.7844ZM85.6087 33.4616H84.6035V33.813H85.6087V33.4616ZM84.4368 33.5816C84.304 33.9792 83.9986 34.5255 83.5073 35.226L83.7951 35.4278C84.2913 34.7203 84.6208 34.1402 84.7702 33.693L84.4368 33.5816ZM83.5098 35.2225C83.038 35.8616 82.288 36.4444 81.2449 36.9649L81.4019 37.2794C82.475 36.7439 83.2768 36.1299 83.7926 35.4313L83.5098 35.2225ZM81.2449 36.9649C80.221 37.4758 78.8055 37.7384 76.9852 37.7384V38.0899C78.8329 38.0899 80.3096 37.8244 81.4019 37.2794L81.2449 36.9649ZM78.1491 32.7042C80.0518 32.7042 81.6125 32.1839 82.8148 31.1294L82.583 30.8652C81.4575 31.8523 79.985 32.3528 78.1491 32.3528V32.7042ZM82.8151 31.1292C84.0554 30.0369 84.6734 28.5969 84.6734 26.8261H84.322C84.322 28.5049 83.7408 29.8456 82.5828 30.8654L82.8151 31.1292ZM84.6734 26.8261V26.2981H84.322V26.8261H84.6734ZM84.4977 26.1224H77.7787V26.4738H84.4977V26.1224ZM77.7787 26.1224C76.5212 26.1224 75.5095 26.3911 74.7637 26.9494L74.9743 27.2308C75.6392 26.7331 76.5674 26.4738 77.7787 26.4738V26.1224ZM74.7637 26.9494C74.01 27.5135 73.6351 28.307 73.6351 29.3077H73.9866C73.9866 28.4076 74.3171 27.7227 74.9743 27.2308L74.7637 26.9494ZM73.6351 29.3077C73.6351 30.3113 74.0295 31.1359 74.8114 31.7676L75.0323 31.4942C74.3328 30.9291 73.9866 30.2049 73.9866 29.3077H73.6351ZM74.8114 31.7676C75.5953 32.4009 76.7167 32.7042 78.1491 32.7042V32.3528C76.7598 32.3528 75.7298 32.0577 75.0323 31.4942L74.8114 31.7676ZM96.8752 37.1749V10.9861H96.5237V37.1749H96.8752ZM96.6994 11.1618H103.26V10.8103H96.6994V11.1618ZM103.084 10.9861V13.9429H103.435V10.9861H103.084ZM103.26 14.1186H104.212V13.7671H103.26V14.1186ZM104.377 14.0035C104.752 12.9821 105.361 12.243 106.202 11.7731L106.031 11.4663C105.108 11.9819 104.448 12.7917 104.047 13.8823L104.377 14.0035ZM106.2 11.7745C107.088 11.2974 108.116 11.0562 109.291 11.0562V10.7047C108.067 10.7047 106.98 10.9564 106.033 11.4649L106.2 11.7745ZM109.291 11.0562H112.547V10.7047H109.291V11.0562ZM112.547 16.6183H109.185V16.9698H112.547V16.6183ZM109.185 16.6183C107.459 16.6183 106.023 17.0857 104.893 18.0321L105.118 18.3016C106.174 17.4177 107.525 16.9698 109.185 16.9698V16.6183ZM104.895 18.03C103.748 18.9536 103.19 20.3853 103.19 22.2853H103.541C103.541 20.4541 104.077 19.1402 105.116 18.3038L104.895 18.03ZM103.19 22.2853V37.1749H103.541V22.2853H103.19ZM103.365 36.9992H96.6994V37.3507H103.365V36.9992ZM147.733 37.7384C145.149 37.7384 142.868 37.1982 140.887 36.1229L140.719 36.4318C142.759 37.5388 145.098 38.0899 147.733 38.0899V37.7384ZM140.89 36.1247C138.943 35.0142 137.414 33.471 136.3 31.4919L135.994 31.6643C137.138 33.698 138.713 35.2876 140.716 36.43L140.89 36.1247ZM136.302 31.4951C135.225 29.4834 134.683 27.1193 134.683 24.3973H134.331C134.331 27.1665 134.883 29.5896 135.992 31.6611L136.302 31.4951ZM134.683 24.3973V23.7637H134.331V24.3973H134.683ZM134.683 23.7637C134.683 21.0416 135.225 18.6956 136.302 16.7198L135.993 16.5516C134.883 18.5885 134.331 20.9946 134.331 23.7637H134.683ZM136.302 16.7186C137.38 14.7061 138.89 13.1647 140.835 12.0903L140.665 11.7826C138.659 12.8907 137.101 14.4821 135.992 16.5527L136.302 16.7186ZM140.837 12.0891C142.782 10.98 145.044 10.4226 147.628 10.4226V10.0711C144.992 10.0711 142.668 10.6402 140.663 11.7838L140.837 12.0891ZM147.628 10.4226C150.175 10.4226 152.382 10.997 154.255 12.1393L154.438 11.8392C152.502 10.6584 150.23 10.0711 147.628 10.0711V10.4226ZM154.257 12.1405C156.132 13.2495 157.591 14.8086 158.635 16.8221L158.947 16.6604C157.874 14.5908 156.37 12.9818 154.436 11.838L154.257 12.1405ZM158.635 16.8233C159.678 18.8002 160.202 21.1119 160.202 23.7637H160.554C160.554 21.065 160.02 18.6951 158.946 16.6593L158.635 16.8233ZM160.202 23.7637V26.0341H160.554V23.7637H160.202ZM160.378 25.8584H141.279V26.2098H160.378V25.8584ZM141.103 26.041C141.176 27.8809 141.865 29.3878 143.173 30.548L143.406 30.285C142.174 29.1924 141.523 27.7777 141.455 26.0272L141.103 26.041ZM143.173 30.548C144.477 31.7053 146.072 32.2818 147.945 32.2818V31.9304C146.15 31.9304 144.641 31.3805 143.406 30.285L143.173 30.548ZM147.945 32.2818C149.835 32.2818 151.262 31.8734 152.191 31.0212L151.953 30.7623C151.118 31.5292 149.794 31.9304 147.945 31.9304V32.2818ZM152.191 31.0212C153.088 30.1975 153.772 29.2816 154.241 28.273L153.923 28.1248C153.475 29.0874 152.819 29.9667 151.953 30.7623L152.191 31.0212ZM154.001 28.3546L159.45 31.2058L159.613 30.8944L154.164 28.0432L154.001 28.3546ZM159.377 30.9667C158.891 31.8669 158.177 32.8593 157.23 33.9442L157.495 34.1753C158.452 33.0777 159.184 32.0637 159.686 31.1335L159.377 30.9667ZM157.23 33.9445C156.331 34.9794 155.116 35.8816 153.58 36.6481L153.737 36.9626C155.305 36.1802 156.56 35.252 157.495 34.1749L157.23 33.9445ZM153.583 36.6467C152.062 37.3711 150.115 37.7384 147.733 37.7384V38.0899C150.148 38.0899 152.152 37.718 153.734 36.964L153.583 36.6467ZM141.332 21.2466H153.606V20.8951H141.332V21.2466ZM153.781 21.0546C153.636 19.4982 152.998 18.24 151.867 17.2929L151.641 17.5624C152.697 18.4458 153.294 19.6163 153.431 21.0872L153.781 21.0546ZM151.869 17.2948C150.772 16.3459 149.335 15.8791 147.575 15.8791V16.2306C149.271 16.2306 150.62 16.6791 151.639 17.5606L151.869 17.2948ZM147.575 15.8791C145.746 15.8791 144.273 16.3448 143.174 17.2948L143.404 17.5606C144.422 16.6801 145.806 16.2306 147.575 16.2306V15.8791ZM143.174 17.2948C142.082 18.2396 141.411 19.4925 141.158 21.0426L141.505 21.0992C141.746 19.622 142.381 18.4462 143.404 17.5606L143.174 17.2948ZM162.481 37.1749V10.9861H162.13V37.1749H162.481ZM162.305 11.1618H168.866V10.8103H162.305V11.1618ZM168.69 10.9861V13.9429H169.041V10.9861H168.69ZM168.866 14.1186H169.818V13.7671H168.866V14.1186ZM169.983 14.0035C170.358 12.9821 170.967 12.243 171.808 11.7731L171.637 11.4663C170.714 11.9819 170.054 12.7917 169.653 13.8823L169.983 14.0035ZM171.806 11.7745C172.694 11.2974 173.722 11.0562 174.897 11.0562V10.7047C173.673 10.7047 172.586 10.9564 171.639 11.4649L171.806 11.7745ZM174.897 11.0562H178.071V10.7047H174.897V11.0562ZM177.895 10.8805V16.7941H178.247V10.8805H177.895ZM178.071 16.6183H174.791V16.9698H178.071V16.6183ZM174.791 16.6183C173.065 16.6183 171.629 17.0857 170.499 18.0321L170.724 18.3016C171.78 17.4177 173.131 16.9698 174.791 16.9698V16.6183ZM170.501 18.03C169.354 18.9536 168.796 20.3853 168.796 22.2853H169.147C169.147 20.4541 169.682 19.1402 170.722 18.3038L170.501 18.03ZM168.796 22.2853V37.1749H169.147V22.2853H168.796ZM168.971 36.9992H162.305V37.3507H168.971V36.9992ZM112.371 10.8805V13.8373H112.723V10.8805H112.371ZM112.371 13.8373V16.7941H112.723V13.8373H112.371ZM125.452 36.9992C123.763 36.9992 122.398 36.4845 121.342 35.4645L121.098 35.7173C122.228 36.8094 123.685 37.3507 125.452 37.3507V36.9992ZM121.346 35.4686C120.325 34.416 119.808 33.0197 119.808 31.2613H119.457C119.457 33.0933 119.998 34.5834 121.094 35.7133L121.346 35.4686ZM119.808 31.2613V16.7941H119.457V31.2613H119.808ZM119.633 16.6183H114.506V16.9698H119.633V16.6183ZM114.506 11.0562H119.633V10.7047H114.506V11.0562ZM119.808 10.8805V2.85486H119.457V10.8805H119.808ZM119.633 3.0306H126.299V2.67912H119.633V3.0306ZM126.123 2.85486V10.9861H126.474V2.85486H126.123ZM126.299 11.1618H133.494V10.8103H126.299V11.1618ZM133.318 10.9861V16.7941H133.669V10.9861H133.318ZM133.494 16.6183H126.299V16.9698H133.494V16.6183ZM126.123 16.7941V30.0997H126.474V16.7941H126.123ZM126.123 30.0997C126.123 30.652 126.252 31.0989 126.541 31.4078C126.832 31.7188 127.256 31.8595 127.78 31.8595V31.508C127.316 31.508 127 31.3846 126.797 31.1677C126.592 30.9485 126.474 30.6034 126.474 30.0997H126.123ZM127.78 31.8595H132.859V31.508H127.78V31.8595ZM132.683 31.6837V37.1749H133.035V31.6837H132.683ZM132.859 36.9992H125.452V37.3507H132.859V36.9992ZM114.331 10.8805V13.8373H114.682V10.8805H114.331ZM114.331 13.8373V16.7941H114.682V13.8373H114.331Z" fill="white" fill-opacity="0.1" mask="url(#path-3-inside-2_511_5430)"/>
</svg>
