<?xml version="1.0" encoding="UTF-8"?>
<svg id="Layer_1" data-name="Layer 1" xmlns="http://www.w3.org/2000/svg" viewBox="0 0 146.43 40">
  <defs>
    <style>
      .cls-1, .cls-2 {
        fill: #030112;
      }

      .cls-2 {
        fill-rule: evenodd;
      }
    </style>
  </defs>
  <g>
    <path class="cls-1" d="m50.03,20c0-3.77,2.84-6.69,6.69-6.69,2.48,0,4.63,1.32,5.67,3.27l-2.81,1.65c-.51-1.04-1.6-1.7-2.89-1.7-1.95,0-3.39,1.44-3.39,3.47s1.44,3.44,3.39,3.44c1.32,0,2.41-.63,2.91-1.67l2.84,1.62c-1.09,1.98-3.24,3.29-5.72,3.29-3.85,0-6.69-2.91-6.69-6.69Z"/>
    <path class="cls-1" d="m77.61,13.67v12.66h-3.27v-1.49c-.91,1.14-2.28,1.85-4.13,1.85-3.37,0-6.15-2.91-6.15-6.69s2.79-6.69,6.15-6.69c1.85,0,3.22.71,4.13,1.85v-1.49h3.27Zm-3.27,6.33c0-2.13-1.49-3.57-3.52-3.57s-3.49,1.44-3.49,3.57,1.49,3.57,3.49,3.57,3.52-1.44,3.52-3.57Z"/>
    <path class="cls-1" d="m85.33,16.81v5.27c0,1.37.99,1.39,2.86,1.29v2.96c-4.58.51-6.13-.84-6.13-4.25v-5.27h-2.2v-3.14h2.2v-2.56l3.27-.99v3.55h2.86v3.14h-2.86Z"/>
    <path class="cls-1" d="m103.65,13.67v12.66h-3.27v-1.49c-.91,1.14-2.28,1.85-4.13,1.85-3.37,0-6.15-2.91-6.15-6.69s2.79-6.69,6.15-6.69c1.85,0,3.22.71,4.13,1.85v-1.49h3.27Zm-3.27,6.33c0-2.13-1.49-3.57-3.52-3.57s-3.49,1.44-3.49,3.57,1.49,3.57,3.49,3.57,3.52-1.44,3.52-3.57Z"/>
    <path class="cls-1" d="m106.48,9.55l3.27-.96v17.74h-3.27V9.55Z"/>
    <path class="cls-1" d="m125.12,13.67l-4.61,12.66c-1.32,3.65-3.47,5.24-6.69,5.06v-3.04c1.8.03,2.71-.73,3.32-2.43l-5.19-12.26h3.57l3.29,8.51,2.81-8.51h3.49Z"/>
    <path class="cls-1" d="m136.46,22.63c0,2.74-2.38,4.05-5.09,4.05-2.53,0-4.41-1.06-5.32-3.01l2.84-1.6c.35,1.04,1.22,1.65,2.48,1.65,1.04,0,1.75-.35,1.75-1.09,0-1.85-6.53-.84-6.53-5.29,0-2.58,2.2-4.03,4.81-4.03,2.05,0,3.82.94,4.81,2.68l-2.79,1.52c-.38-.81-1.09-1.29-2.03-1.29-.81,0-1.47.35-1.47,1.04,0,1.87,6.53.71,6.53,5.37Z"/>
    <path class="cls-1" d="m143.57,16.81v5.27c0,1.37.99,1.39,2.86,1.29v2.96c-4.58.51-6.13-.84-6.13-4.25v-5.27h-2.2v-3.14h2.2v-2.56l3.27-.99v3.55h2.86v3.14h-2.86Z"/>
  </g>
  <g>
    <path class="cls-2" d="m25.91,36.04c-2.48-3.6-4.83-7.23-7.05-10.87-3.48-5.69-6.65-11.43-9.49-17.16-2.38,2.3-4.55,4.81-6.48,7.5l21.59,21.59c.49-.35.97-.7,1.44-1.07Z"/>
    <path class="cls-2" d="m21.06,23.95c2.15,3.52,4.43,7.02,6.82,10.51.54-.46,1.07-.92,1.6-1.4-.7-1.77-1.38-3.59-2.03-5.45C24.53,19.31,22.08,10.07,20.03.02c-.01,0-.02-.01-.03-.02-3.11,1.8-6.02,3.89-8.7,6.24,2.9,5.91,6.16,11.83,9.76,17.71Z"/>
    <path class="cls-2" d="m29.82,26.8c.52,1.49,1.06,2.95,1.61,4.38,3.31-3.33,6.19-7.09,8.56-11.18-4.22-7.3-10.08-13.52-17.07-18.18,1.93,9.05,4.24,17.41,6.9,24.98Z"/>
    <path class="cls-2" d="m1.45,17.64c-.5.77-.99,1.56-1.45,2.36,4.8,8.29,11.71,15.2,20,20,.8-.46,1.59-.95,2.36-1.45L1.45,17.64Z"/>
  </g>
</svg>