<?xml version="1.0" encoding="UTF-8"?>
<svg id="Layer_1" data-name="Layer 1" xmlns="http://www.w3.org/2000/svg" version="1.1" viewBox="0 0 372 151">
  <defs>
    <style>
      .cls-1, .cls-2, .cls-3 {
        fill: #000;
        stroke-width: 0px;
      }

      .cls-2 {
        isolation: isolate;
        opacity: .5;
      }

      .cls-3 {
        fill-rule: evenodd;
      }
    </style>
  </defs>
  <path class="cls-2" d="M127.5,134.5s3.1,4,8.8,4,8.5-3.5,8.5-7.5c0-8.4-12-7.5-12-11.9s1.6-2.7,3.7-2.7,3.4.8,3.4,2v1.2h4.2v-2.4c0-3.6-4.6-5-7.6-5-4.9,0-8.5,3.1-8.5,7.2,0,8,12,7.6,12,12s-1.7,3-3.7,3c-3.6,0-6.2-3-6.2-3l-2.7,3.3ZM169.6,138h4.7v-11.2l6-9.5c.5-.7.7-.9,1.5-.9h.8v-4h-2.4c-1.7,0-2.4.3-3.3,1.9l-3.3,5.6c-.9,1.5-1.5,2.9-1.5,2.9h0s-.6-1.4-1.5-2.9l-3.4-5.6c-1-1.6-1.7-1.9-3.3-1.9h-2.4v4h.8c.8,0,1,.1,1.5.9l6,9.5v11.2ZM198.9,134.5s3.1,4,8.8,4,8.5-3.5,8.5-7.5c0-8.4-12-7.5-12-11.9s1.6-2.7,3.7-2.7,3.4.8,3.4,2v1.2h4.2v-2.4c0-3.6-4.6-5-7.6-5-4.9,0-8.5,3.1-8.5,7.2,0,8,12,7.6,12,12s-1.7,3-3.7,3c-3.6,0-6.2-3-6.2-3l-2.7,3.3ZM241.7,138h4.7v-21.6h3.9c.5,0,.8.3.8.8v1.5h4.1v-4c0-1.7-.6-2.3-2.3-2.3h-17.8c-1.7,0-2.3.6-2.3,2.3v4h4.1v-1.5c0-.5.3-.8.8-.8h3.9v21.6ZM274.1,135.6c0,1.7.7,2.4,2.4,2.4h11.6c1.7,0,2.4-.7,2.4-2.4v-3.9h-4.3v1.5c0,.5-.3.8-.8.8h-5.9c-.5,0-.8-.3-.8-.8v-6.1h8.3v-4h-8.3v-6.7h5.8c.5,0,.8.3.8.8v1.5h4.3v-3.9c0-1.7-.8-2.4-2.4-2.4h-15.4v4h2.3v19.1ZM306.8,138h4.1c1.7,0,2.3-.7,2.4-2.4l.8-11.4c.1-1.7,0-4,0-4h0s.8,2.6,1.4,4l4.2,9.4h3.8l4.2-9.4c.6-1.4,1.4-4,1.4-4h0s-.1,2.3,0,4l.9,11.4c.1,1.7.7,2.4,2.4,2.4h4.1v-4h-1.1c-.5,0-.8-.3-.8-.8l-1.7-20.8h-4.9l-5.3,12.2c-.6,1.5-1.3,3.4-1.3,3.4h0s-.6-1.9-1.3-3.4l-5.3-12.2h-4.9l-1.7,20.8c0,.5-.3.8-.8.8h-1.1v4ZM353.4,134.5s3.1,4,8.8,4,8.5-3.5,8.5-7.5c0-8.4-12-7.5-12-11.9s1.6-2.7,3.7-2.7,3.4.8,3.4,2v1.2h4.2v-2.4c0-3.6-4.6-5-7.6-5-4.9,0-8.5,3.1-8.5,7.2,0,8,12,7.6,12,12s-1.7,3-3.7,3c-3.6,0-6.2-3-6.2-3l-2.7,3.3Z"/>
  <path class="cls-1" d="M0,42.4h6.2v-7.4H0v7.4ZM.2,96.5h6v-44H.2v44Z"/>
  <path class="cls-1" d="M25.8,96.5h6v-21.1c0-2.1.2-4.1.7-6,2-7.3,8.5-12.4,16-12.4s9.5,6.1,9.5,13v26.4h6v-28c0-10.9-3.9-17.1-14.7-17.1s-16,7.1-17.6,11.1h-.2s.2-1.6.2-3.5v-6.6h-5.9v44Z"/>
  <path class="cls-1" d="M121,74.2c0,13.3,10.4,23.3,23.3,23.3s23.3-10,23.3-23.3-10.4-22.8-23.3-22.8-23.3,9.8-23.3,22.8ZM127.1,74.2c0-10,7.7-17.4,17.2-17.4s17.2,7.4,17.2,17.4-7.7,17.9-17.2,17.9-17.2-7.7-17.2-17.9Z"/>
  <path class="cls-1" d="M183.9,96.5h6v-18.6c0-2.8.4-5.8,1.2-8.6,1.9-6.5,6.6-11.4,12.8-11.4s2.2.2,2.2.2v-5.9s-1.1-.3-2.4-.3c-6.9,0-11.8,5.1-13.9,11.7h-.2s.2-1.6.2-3.5v-7.8h-5.9v44Z"/>
  <path class="cls-1" d="M220.4,96.5h6v-20.8c0-2,.2-4,.6-5.9,1.8-6.7,7.3-13,14.4-13s9.3,6.5,9.3,13.1v26.5h6v-20.8c0-2.4.2-4.5.8-6.4,1.7-6.5,7.2-12.4,13.9-12.4s9.5,6,9.5,13.1v26.5h6v-28c0-10.9-3.9-17.1-14.6-17.1s-13.8,5.1-16.2,11h-.2c-1.3-7.3-5.5-11-13.7-11s-13.8,5.2-15.9,11.1h-.2s.2-1.6.2-3.5v-6.6h-5.9v44Z"/>
  <path class="cls-1" d="M302.2,84.5c0,8.8,7.6,13,15,13,11,0,14.7-9.5,14.7-9.5h.2s-.2,1.5-.2,3.7v4.8h5.7v-28.2c0-11-5.9-16.9-16.5-16.9s-15.7,5-15.7,5l2.8,4.6s5.2-4.2,12.4-4.2,10.9,2.9,10.9,11.4v1.1h-2.5c-7.6,0-27,.4-27,15.2ZM308.4,84.1c0-9.7,13.8-10,20.8-10h2.5v1.9c0,7.6-5.1,16.4-13.5,16.4s-9.8-4.2-9.8-8.3Z"/>
  <path class="cls-1" d="M356.1,86c0,9.6,6.5,10.8,10.2,10.8s2.2-.2,2.2-.2v-5.3s-.7,0-1.5,0c-2.3,0-4.9-.9-4.9-6.7v-49.8h-6v51.1Z"/>
  <path class="cls-3" d="M113.7,11.7c4.3-2.3,8.4-3.4,12.3-3.4s7.1.9,9.5,2.7h0c2.4,1.7,3.5,3.7,3.5,6.2s-.6,4-1.7,5.5h0c-1,1.6-2.2,2.2-3.3,2.2s-1.2-.3-1.5-.8c-.5-.9-1.3-2.6-2.3-5.1-.8-2.2-1.9-3.9-3.2-5.1-1.3-1.4-3-2.1-5-2.1-3.4,0-6.2,1.9-8.4,5.3h0c-2.1,3.3-4.1,8.5-6.1,15.3-1.1,3.7-2,7.2-2.6,10.4-.2.7-.3,1.3-.4,1.8,0,.4-.2.8-.2,1.1v.3c0,.7.3,1.5.9,2,.6.5,1.4.6,2.1.6,1.7,0,4.1,0,7.1-.3h6.5c0-.1,0,0,0,0h.1c0,.1,0,.1,0,.2,0,0,0,.2,0,.4,0,.4-.3,1.1-1.2,2.4h0s0,0,0,0c-.4.6-.7,1-1,1.2-.3.2-.4.2-.4.2l-11.5.3c-1.5,0-2.9.2-3.8.8h0s0,0,0,0c-.9.6-1.5,1.6-1.8,2.8-5.7,19.5-7,25.5-10.8,44.2-.2.9-.4,1.8-.6,2.7h0s0,0,0,0c-.5,3.3-2,7.3-3.6,11.1-1.6,3.8-3.5,7.2-4.7,9.5-2.5,4.5-5.2,8.1-8,10.8h0c-2.8,2.8-5.4,4.8-8,6.1-2.2,1.1-3.9,1.8-5.2,2.3l-.6-1.4c1.1-.7,2.3-1.6,3.6-2.9,1.7-1.5,3.4-3.6,5-6.2,1.7-2.6,3.2-5.8,4.6-9.5,1.5-3.6,4.5-12.2,5.3-17.2l10.6-48.9c.1-.4.2-.9.2-1.4,0-.8-.3-1.5-1-1.9-.6-.4-1.4-.5-2.1-.5h-8.2c-.6.1-.8,0-.9,0,0-.1-.2-.4-.2-.9s.2-1.3.9-2c.7-.8,1.4-1.2,2.1-1.2l8.9-.4h0c1.6-.2,2.4-1.5,2.8-3l1.1-3.8c2.3-7.8,5.4-14.2,9.1-19.2,3.8-5.1,7.9-8.7,12.1-10.9h0Z"/>
</svg>