<?xml version="1.0" encoding="UTF-8"?>
<svg id="Layer_1" data-name="Layer 1" xmlns="http://www.w3.org/2000/svg" version="1.1" viewBox="0 0 496 200">
  <defs>
    <style>
      .cls-1 {
        fill: #000;
        stroke-width: 0px;
      }
    </style>
  </defs>
  <path class="cls-1" d="M408.1,93c0-3.2,0-6.3-.2-9.4,0-3.1-.2-6.1-.4-9.2,2.2,0,4.3.2,6.4.3,2.2,0,4.3,0,6.5,0s4.3,0,6.4,0c2.1,0,4.3-.2,6.4-.3-.1.7-.2,1.4-.2,2.2s0,1.4.2,2.2c-1.5,0-3-.2-4.3-.3-1.2,0-2.6-.2-4-.3-1.4,0-2.9-.2-4.6-.2-1.7,0-3.7-.1-6.1-.1,0,1.5-.1,3-.2,4.4,0,1.4,0,3,0,4.8v5.5c0,1.8,0,3.1,0,4,2.1,0,4,0,5.7,0,1.7,0,3.2,0,4.6-.1,1.4,0,2.7-.2,3.8-.2,1.2,0,2.3-.2,3.4-.3-.1.7-.2,1.5-.2,2.2s0,1.4.2,2.2c-1.2-.1-2.7-.3-4.4-.4-1.6,0-3.3-.1-5-.1-1.6,0-3.2,0-4.7,0-1.4,0-2.6,0-3.5,0,0,.4,0,.9,0,1.4v15.8c0,1.8,0,3.1.1,4h5c1.8,0,3.6,0,5.3,0,1.8,0,3.4-.2,5-.3,1.6-.1,3-.3,4.1-.6,0,.3-.2.7-.2,1.2v1.1c0,.8,0,1.4.2,1.9-2.2,0-4.3-.1-6.5-.1h-13c-2.2,0-4.3,0-6.6.1.1-3.1.3-6.1.4-9.1.1-3.1.2-6.2.2-9.4v-12.4Z"/>
  <path class="cls-1" d="M350.7,73.5c3.3,6.8,6.7,13.4,10,19.9,3.4,6.4,7,13,10.7,19.8.5-.9,1.2-2.2,2.1-3.9.9-1.7,2-3.7,3.2-5.9,1.2-2.2,2.5-4.6,3.8-7.1,1.4-2.6,2.8-5.2,4.2-7.9,1.4-2.6,2.9-5.2,4.2-7.8,1.4-2.5,2.7-4.9,3.9-7.1h.9c.5,4.6,1,9.1,1.4,13.4.5,4.3,1,8.5,1.4,12.7.5,4.1,1,8.2,1.4,12.3.5,4,1,8,1.6,12-.6,0-1.2-.1-1.7-.1h-3.4c-.5,0-1.1,0-1.7.1-.5-6.4-1.1-12.6-1.6-18.6-.5-6-1.2-12.1-1.9-18.4h-.1c-3.3,6.1-6.6,12.1-9.8,18.1-3.2,6-6.2,12.2-9.1,18.7h-.6c-2.9-6.1-5.9-12.1-9.1-18.2-3.1-6.1-6.3-12.3-9.4-18.7h-.1c-.3,3-.7,6.2-1.2,9.7-.4,3.5-.7,6.9-1.1,10.3-.3,3.4-.6,6.6-.9,9.6-.2,3-.4,5.4-.4,7.3-.8,0-1.6-.1-2.5-.1s-1.8,0-2.5.1c.6-3.9,1.3-8,1.9-12.3.7-4.3,1.3-8.7,1.9-13,.6-4.4,1.2-8.7,1.7-12.9.5-4.3,1-8.3,1.4-12.2h1.2Z"/>
  <path class="cls-1" d="M285.2,99.3c0-4.1.6-7.7,1.9-10.9,1.3-3.2,3.2-5.9,5.5-8.1,2.4-2.2,5.3-3.9,8.6-5,3.3-1.2,6.9-1.7,10.9-1.7s7.6.6,11,1.7c3.3,1.2,6.1,2.8,8.5,5,2.4,2.2,4.2,4.9,5.5,8.1,1.3,3.2,2,6.8,2,10.9s-.7,7.7-2,11c-1.3,3.2-3.1,5.9-5.5,8.1-2.4,2.2-5.2,3.9-8.5,5-3.3,1.1-7,1.6-11,1.6s-7.6-.5-10.9-1.6c-3.3-1.1-6.2-2.8-8.6-5-2.4-2.2-4.2-4.9-5.5-8.1-1.3-3.2-1.9-6.9-1.9-11ZM332.1,99.3c0-4-.5-7.4-1.5-10.3-1-2.9-2.4-5.3-4.3-7.2-1.8-1.9-3.9-3.3-6.3-4.3-2.4-.9-5-1.4-7.9-1.4s-5.4.5-7.9,1.4c-2.4.9-4.5,2.3-6.3,4.3-1.8,1.9-3.2,4.3-4.2,7.2-1,2.9-1.5,6.3-1.5,10.3s.5,7.4,1.5,10.4c1,2.9,2.4,5.3,4.2,7.2,1.8,1.9,3.9,3.3,6.3,4.2,2.4.9,5.1,1.4,7.9,1.4s5.5-.5,7.9-1.4c2.4-.9,4.6-2.3,6.3-4.2,1.8-1.9,3.2-4.3,4.3-7.2,1-2.9,1.5-6.4,1.5-10.4Z"/>
  <path class="cls-1" d="M250.8,93.1c0-3.2,0-6.3-.2-9.3,0-3.1-.2-6.2-.4-9.4,1.4,0,2.8.2,4.1.3,1.3,0,2.7,0,4.1,0s2.8,0,4.1-.1c1.3-.1,2.7-.2,4.1-.2,2,0,3.9.2,5.8.6,1.8.4,3.4,1,4.8,1.9,1.4.9,2.5,2,3.2,3.5.8,1.4,1.2,3.2,1.2,5.4s-.5,4.3-1.6,6c-1,1.6-2.3,3-3.7,4.1-1.5,1.1-3.1,1.9-4.8,2.5-1.7.6-3.2,1-4.6,1.2.6.7,1.4,1.7,2.4,3,1,1.3,2.1,2.7,3.4,4.3,1.2,1.5,2.5,3.2,3.9,4.9,1.3,1.7,2.6,3.3,3.9,4.9,1.2,1.5,2.4,3,3.5,4.3,1.1,1.3,2,2.3,2.7,3-.7,0-1.4-.1-2.2-.1h-4.3c-.7,0-1.4,0-2.1.1-.7-1-1.8-2.5-3.3-4.5-1.4-2-3.1-4.2-4.8-6.5-1.8-2.3-3.6-4.6-5.5-6.8-1.8-2.3-3.5-4.3-5-5.8h-2.7v5.3c0,3.2,0,6.3.1,9.4.1,3.1.3,6.1.4,9.1-1.1,0-2.3-.1-3.5-.1s-2.4,0-3.5.1c.1-3,.3-6,.4-9.1.1-3.1.2-6.2.2-9.4v-12.4ZM256.7,97.2c.7.1,1.4.2,2.2.3.8,0,1.7,0,2.7,0,1.5,0,3-.2,4.6-.5,1.6-.3,3.1-.9,4.5-1.7,1.3-.9,2.4-2,3.3-3.4.9-1.4,1.4-3.2,1.4-5.4s-.4-3.4-1.1-4.6c-.7-1.2-1.6-2.2-2.7-3-1.1-.7-2.3-1.2-3.6-1.4-1.3-.3-2.6-.4-3.8-.4s-3.1,0-4.2.1c-1.1,0-2,.1-2.8.2,0,2.6-.2,5.3-.3,7.9,0,2.6-.1,5.2-.1,7.8v4.1Z"/>
  <path class="cls-1" d="M75.3,57.9c-4.7,0-10.4-.3-10.4-.3,0,0,.3,12.7.6,16.9.2,4.2,1,12.7,1.1,16.9.1,4.2.1,12.7,0,16.9-.1,4.2-.9,12.7-1.1,16.9-.2,4.2-.6,16.9-.6,16.9,0,0,5.7-.2,10.4-.3,4.7,0,14.2-.3,18.9-.3,4.7,0,18.9.6,18.9.6l-2.3-2.2s-12-10-15.7-13.7c-4.1-4-11.8-12.6-15.7-16.8-2.2-2.4-8.9-9.7-8.9-9.7,0,0,6.7-7.3,8.9-9.7,3.9-4.2,11.6-12.5,15.7-16.5,3.8-3.6,15.7-13.9,15.7-13.9l2.3-2.2s.2,15.5.6,22.6c.2,3.5.9,16.2.9,19.8s-.7,16.2-.9,19.8c-.4,7.1-.6,22.6-.6,22.6,0,0,1-1.1,2.2-2.5,1.2-1.3,2.6-2.8,3.3-3.6,2.2-2.4,6.8-7,9.1-9.3,2.2-2.2,6.8-6.6,9.1-8.8,1.2-1.1,4.7-4.1,4.7-4.1,0,0-3.6-3.3-4.7-4.4-2.4-2.4-9.5-9.7-9.5-9.7,0,0,7-7.3,9.5-9.7,1.2-1.1,4.7-4.4,4.7-4.4,0,0-3.5-3.3-4.7-4.4-2.3-2.1-6.9-6.3-9.1-8.5-2.3-2.3-6.8-7.2-9.1-9.6-1.4-1.4-5.5-5.8-5.5-5.8,0,0-14.2.5-18.9.6-4.7,0-14.2-.2-18.9-.3Z"/>
  <path class="cls-1" d="M206.8,142.1c4.7,0,10.4.3,10.4.3,0,0-.3-12.7-.6-16.9-.2-4.2-1-12.7-1.1-16.9-.1-4.2-.1-12.7,0-16.9.1-4.2.9-12.7,1.1-16.9.2-4.2.6-16.9.6-16.9,0,0-5.7.2-10.4.3-4.7,0-14.2.3-18.9.3-4.7,0-18.9-.6-18.9-.6l2.3,2.2s12,10,15.7,13.7c4.1,4,11.8,12.6,15.7,16.8,2.2,2.4,8.9,9.7,8.9,9.7,0,0-6.7,7.3-8.9,9.7-3.9,4.2-11.6,12.5-15.7,16.5-3.8,3.6-15.7,13.9-15.7,13.9l-2.3,2.2s-.2-15.5-.6-22.6c-.2-3.5-.9-16.2-.9-19.8s.7-16.2.9-19.8c.4-7.1.6-22.6.6-22.6,0,0-1,1.1-2.2,2.5-1.2,1.3-2.6,2.8-3.3,3.6-2.2,2.4-6.8,7-9.1,9.3-2.2,2.2-6.8,6.6-9.1,8.8-1.2,1.1-4.7,4.1-4.7,4.1,0,0,3.6,3.3,4.7,4.4,2.4,2.4,9.5,9.7,9.5,9.7,0,0-7,7.3-9.5,9.7-1.2,1.1-4.7,4.4-4.7,4.4,0,0,3.5,3.3,4.7,4.4,2.3,2.1,6.9,6.3,9.1,8.5,2.3,2.3,6.8,7.2,9.1,9.6,1.4,1.4,5.5,5.8,5.5,5.8,0,0,14.2-.5,18.9-.6,4.7,0,14.2.2,18.9.3Z"/>
</svg>