<svg width="1457" height="392" viewBox="0 0 1457 392" fill="none" xmlns="http://www.w3.org/2000/svg">
<rect width="1457" height="392" fill="white"/>
<path d="M467.859 265.465C460.568 265.465 454.48 264.618 449.598 262.926C444.78 261.168 441.004 258.434 438.27 254.723C435.535 251.012 433.582 246.65 432.41 241.637C431.303 236.559 430.75 230.309 430.75 222.887V172.203H413.172L414.148 158.336L432.508 156.676L440.711 127.574L456.336 127.477V156.676H482.996V172.203H456.336V223.375C456.336 231.513 457.508 237.307 459.852 240.758C462.195 244.208 466.525 245.934 472.84 245.934C476.551 245.934 480.522 245.608 484.754 244.957L485.438 263.316C485.307 263.316 484.493 263.479 482.996 263.805C481.564 264.065 480.164 264.293 478.797 264.488C477.495 264.749 475.802 264.977 473.719 265.172C471.635 265.367 469.682 265.465 467.859 265.465ZM503.504 264V117.125L529.09 115.465V146.422C529.09 147.919 528.992 152.086 528.797 158.922C528.602 165.693 528.504 169.143 528.504 169.273C537.033 159.117 548.491 154.039 562.879 154.039C574.858 154.039 584.135 157.49 590.711 164.391C597.352 171.227 600.672 181.773 600.672 196.031V264H575.086V198.863C575.086 190.074 573.686 183.629 570.887 179.527C568.087 175.426 563.335 173.375 556.629 173.375C550.9 173.375 545.822 174.84 541.395 177.77C536.967 180.634 533.647 184.345 531.434 188.902C529.871 194.892 529.09 202.704 529.09 212.34V264H503.504ZM675.574 266.051C658.322 266.051 644.878 261.103 635.242 251.207C625.672 241.246 620.887 227.509 620.887 209.996C620.887 192.939 625.411 179.365 634.461 169.273C643.51 159.182 655.848 154.104 671.473 154.039C686.251 154.039 697.71 158.661 705.848 167.906C714.051 177.151 718.152 189.423 718.152 204.723C718.152 205.829 718.12 207.62 718.055 210.094C718.055 212.568 718.055 214.391 718.055 215.562H646.668C646.928 225.589 649.663 233.368 654.871 238.902C660.145 244.371 667.371 247.105 676.551 247.105C688.27 247.105 699.533 244.046 710.34 237.926L713.953 256.09C703.211 262.73 690.418 266.051 675.574 266.051ZM647.156 199.449H694.031C694.031 190.725 692.046 184.02 688.074 179.332C684.103 174.645 678.602 172.301 671.57 172.301C664.995 172.301 659.428 174.579 654.871 179.137C650.379 183.694 647.807 190.465 647.156 199.449ZM792.078 264V156.676H813.562L816.883 173.082C823.914 161.819 834.103 156.188 847.449 156.188C850.249 156.188 852.527 156.318 854.285 156.578L853.895 177.965C851.29 177.574 848.589 177.379 845.789 177.379C836.349 177.379 829.285 179.885 824.598 184.898C819.975 189.911 817.664 196.878 817.664 205.797V264H792.078ZM915.711 246.617C924.37 246.617 930.88 243.46 935.242 237.145C939.604 230.829 941.785 221.78 941.785 209.996C941.785 198.082 939.604 189 935.242 182.75C930.88 176.5 924.305 173.375 915.516 173.375C906.857 173.375 900.314 176.533 895.887 182.848C891.525 189.098 889.344 198.18 889.344 210.094C889.344 221.812 891.557 230.829 895.984 237.145C900.411 243.46 906.987 246.617 915.711 246.617ZM915.027 266.051C899.142 266.051 886.642 260.908 877.527 250.621C868.413 240.335 863.855 226.793 863.855 209.996C863.855 192.678 868.413 179.039 877.527 169.078C886.642 159.052 899.5 154.039 916.102 154.039C932.117 154.039 944.65 159.15 953.699 169.371C962.814 179.527 967.371 193.069 967.371 209.996C967.371 227.118 962.781 240.758 953.602 250.914C944.422 261.005 931.564 266.051 915.027 266.051ZM1025.87 265.465C1018.51 265.465 1012.39 264.618 1007.51 262.926C1002.69 261.168 998.882 258.401 996.082 254.625C993.283 250.849 991.329 246.357 990.223 241.148C989.116 235.94 988.562 229.462 988.562 221.715V117.125L1014.15 115.465V221.227C1014.15 230.862 1015.29 237.405 1017.57 240.855C1019.85 244.241 1024.27 245.934 1030.85 245.934C1034.1 245.934 1038.24 245.576 1043.25 244.859L1043.93 263.121C1043.87 263.121 1043.05 263.284 1041.49 263.609C1039.99 263.935 1038.53 264.195 1037.1 264.391C1035.73 264.651 1033.97 264.879 1031.82 265.074C1029.68 265.335 1027.69 265.465 1025.87 265.465ZM1094.23 265.465C1086.87 265.465 1080.75 264.618 1075.87 262.926C1071.05 261.168 1067.24 258.401 1064.44 254.625C1061.64 250.849 1059.69 246.357 1058.58 241.148C1057.48 235.94 1056.92 229.462 1056.92 221.715V117.125L1082.51 115.465V221.227C1082.51 230.862 1083.65 237.405 1085.93 240.855C1088.2 244.241 1092.63 245.934 1099.21 245.934C1102.46 245.934 1106.6 245.576 1111.61 244.859L1112.29 263.121C1112.23 263.121 1111.41 263.284 1109.85 263.609C1108.35 263.935 1106.89 264.195 1105.46 264.391C1104.09 264.651 1102.33 264.879 1100.18 265.074C1098.04 265.335 1096.05 265.465 1094.23 265.465ZM1202.43 255.602C1193.9 262.568 1182.67 266.051 1168.74 266.051C1154.81 266.051 1143.58 262.568 1135.05 255.602C1126.58 248.635 1122.35 238.414 1122.35 224.938V156.676H1148.04V223.961C1148.04 231.969 1149.7 237.763 1153.02 241.344C1156.4 244.924 1161.74 246.715 1169.03 246.715C1176.19 246.715 1181.4 244.957 1184.66 241.441C1187.98 237.861 1189.64 232.034 1189.64 223.961V156.676H1215.22V224.938C1215.22 238.349 1210.96 248.57 1202.43 255.602ZM1238.66 308.629V156.676H1260.63L1263.37 171.715C1266.88 166.051 1271.54 161.689 1277.33 158.629C1283.19 155.504 1289.7 153.941 1296.86 153.941C1305.65 153.941 1313.37 156.383 1320.01 161.266C1326.71 166.148 1331.79 172.822 1335.24 181.285C1338.69 189.684 1340.42 199.189 1340.42 209.801C1340.42 226.402 1336.38 239.944 1328.31 250.426C1320.3 260.842 1309.43 266.051 1295.69 266.051C1288.92 266.051 1282.77 264.716 1277.23 262.047C1271.77 259.312 1267.18 255.634 1263.46 251.012C1263.99 260.387 1264.25 265.66 1264.25 266.832V307.359L1238.66 308.629ZM1290.22 246.52C1297.84 246.52 1303.83 243.329 1308.19 236.949C1312.62 230.569 1314.83 221.454 1314.83 209.605C1314.83 197.561 1312.62 188.512 1308.19 182.457C1303.76 176.402 1297.61 173.375 1289.73 173.375C1272.81 173.375 1264.25 184.898 1264.05 207.945C1264.05 221.227 1266.23 230.992 1270.59 237.242C1275.02 243.427 1281.56 246.52 1290.22 246.52Z" fill="black"/>
<path d="M209.944 58.4927C232.096 112.782 216.161 160.635 194.543 211.693C268.669 187.046 328.965 134.568 300.82 96.7054C267.958 69.2402 247.752 62.3463 209.944 58.4927Z" fill="#F59400"/>
<path d="M326.224 126.413C290.285 172.742 249.569 204.885 194.542 211.693C266.077 267.825 332.902 270.271 338.569 224.22C345.923 182.028 341.791 161.082 326.224 126.413Z" fill="#3F69DE"/>
<path d="M326.225 261.272C282.308 265.798 242.663 268.864 194.543 211.693C180.803 292.916 205.346 339.421 247.694 320.867C287.91 306.14 303.984 292.088 326.225 261.272Z" fill="#DF4F4F"/>
<path d="M201.043 329.193C180.744 279.278 174.734 258.636 194.543 211.693C120.795 228.424 92.2617 249.721 117.769 294.059C147.882 319.311 166.398 325.65 201.043 329.193Z" fill="#F59400"/>
<path d="M92.6227 261.273C128.562 214.944 139.517 218.5 194.543 211.693C135.742 149.587 107.11 110.024 80.2781 163.466C72.9234 205.658 77.056 226.603 92.6227 261.273Z" fill="#3F69DE"/>
<path d="M92.6258 126.411C150.718 134.371 161.134 167.442 194.543 211.693C213.122 134.629 230.285 53.7018 171.157 66.8168C130.94 81.5431 114.867 95.5949 92.6258 126.411Z" fill="#DF4F4F"/>
</svg>
