<?xml version="1.0" encoding="UTF-8"?><svg id="Layer_2" xmlns="http://www.w3.org/2000/svg" viewBox="0 0 382.72 100.14"><defs><style>.cls-1{fill:#fff;}.cls-2{stroke:#000;stroke-miterlimit:10;stroke-width:4px;}</style></defs><path d="m116.3,31.78v6.57h-8.69v30.86h-8.21v-30.86h-8.74v-6.57h25.65Z"/><path d="m132.95,69.63c-4.21,0-7.46-1.26-9.75-3.79-2.3-2.53-3.45-5.77-3.45-9.73s1.2-7.53,3.6-10.2c2.4-2.67,5.6-4,9.59-4s7.4,1.29,9.7,3.87c2.3,2.58,3.45,5.87,3.45,9.86s-1.16,7.41-3.47,10.04c-2.32,2.63-5.54,3.95-9.67,3.95Zm-.05-21.62c-1.7,0-2.97.72-3.82,2.17-.85,1.45-1.27,3.32-1.27,5.62s.43,4.18,1.3,5.64c.87,1.47,2.16,2.2,3.89,2.2s2.96-.72,3.79-2.15c.83-1.43,1.25-3.29,1.25-5.59,0-5.26-1.71-7.9-5.14-7.9Z"/><path d="m176.4,69.21h-8.96l-8.59-13.2v13.2h-7.74V31.78h7.74v22.59l8.48-12.03h8.9l-9.33,12.88,9.49,13.99Z"/><path d="m201.26,61.2v6.47c-1.84,1.2-4.65,1.8-8.43,1.8-4.42,0-7.85-1.28-10.31-3.84-2.46-2.56-3.68-5.86-3.68-9.88,0-4.27,1.19-7.62,3.58-10.04,2.38-2.42,5.33-3.63,8.82-3.63s6.45,1.05,8.53,3.15c2.08,2.1,3.13,5.24,3.13,9.41,0,.81-.14,2.21-.42,4.19h-15.79c.53,1.48,1.45,2.63,2.76,3.45,1.31.81,2.88,1.22,4.72,1.22,2.72,0,5.09-.76,7.1-2.28Zm-5.57-7.9v-.64c-.25-3.14-1.63-4.72-4.13-4.72-1.24,0-2.33.45-3.29,1.35-.95.9-1.59,2.23-1.91,4h9.33Z"/><path d="m216.15,42.34v4.56c.67-1.48,1.7-2.66,3.1-3.52,1.4-.87,3.06-1.3,5.01-1.3,2.76,0,4.91.82,6.47,2.46,1.55,1.64,2.33,4.05,2.33,7.23v17.44h-7.74v-16.01c0-1.59-.37-2.8-1.11-3.63-.74-.83-1.78-1.25-3.13-1.25-1.41,0-2.59.56-3.52,1.67-.94,1.11-1.4,2.78-1.4,5.01v14.2h-7.74v-26.87h7.74Z"/><path d="m274.45,38.3h-13.57v9.22h11.82v6.52h-11.82v15.17s-8.21,0-8.21,0V31.78s21.78,0,21.78,0v6.52Z"/><path d="m279.49,69.21V31.74h7.74v37.47h-7.74Z"/><path d="m305.72,69.63c-4.21,0-7.46-1.26-9.75-3.79-2.3-2.53-3.44-5.77-3.44-9.73s1.2-7.53,3.6-10.2c2.4-2.67,5.6-4,9.59-4s7.4,1.29,9.7,3.87c2.3,2.58,3.45,5.87,3.45,9.86s-1.16,7.41-3.47,10.04c-2.31,2.63-5.54,3.95-9.67,3.95Zm-.05-21.62c-1.7,0-2.97.72-3.82,2.17-.85,1.45-1.27,3.32-1.27,5.62s.43,4.18,1.3,5.64c.87,1.47,2.16,2.2,3.9,2.2s2.96-.72,3.79-2.15c.83-1.43,1.25-3.29,1.25-5.59,0-5.26-1.71-7.9-5.14-7.9Z"/><path d="m329.62,69.21l-8.64-26.87h8l2.33,8.85c.57,2.23,1.04,4.23,1.43,6.02.39,1.78.62,3.01.69,3.68l.16,1.01c.25-2.12,1.11-5.69,2.6-10.71l2.6-8.85h6.68l2.54,8.85c.64,2.26,1.17,4.28,1.59,6.07.42,1.78.69,3.01.79,3.68l.16.95c.25-2.08,1.08-5.65,2.49-10.71l2.49-8.85h7.63l-8.59,26.87h-7.95l-2.33-8.8c-.5-1.91-.93-3.69-1.3-5.35-.37-1.66-.61-2.84-.71-3.55l-.16-1.06c-.35,2.37-1.1,5.69-2.23,9.96l-2.33,8.8h-7.95Z"/><rect class="cls-2" x="21.66" y="21.96" width="56.05" height="56.05" rx="9.05" ry="9.05" transform="translate(99.37 99.98) rotate(180)"/><circle class="cls-1" cx="49.69" cy="49.99" r="2.26"/><path class="cls-1" d="m61.25,49.97s.05.04.08.06c-.38-.32-.74-.68-1.15-1.09l-.87-.87c-1.18-1.18-3.21-3.21-5.4-5.39l-2.92,2.74c2.22,2.21,4.29,4.28,5.49,5.48l.86.86c.36.37.72.71,1.08,1.03.23-.23,2.73-2.71,2.83-2.81Z"/><path class="cls-1" d="m52.58,41.36c-1.53-1.52-3.08-3.05-4.41-4.37-1.56-1.54-3.55-2.38-5.59-2.38h-10.12c-1.1,0-2,.9-2,2s.9,2,2,2h10.12c.7,0,1.75.21,2.79,1.23,1.31,1.29,2.82,2.78,4.32,4.27l2.9-2.76Z"/><path class="cls-1" d="m67.95,51.65s-.03,0-.04,0c-2.58,0-4.07-.24-5.16-.71-.29.36-2.38,2.58-2.84,3,1.72,1.09,3.95,1.71,8,1.71,1.16.03,2.04-.88,2.03-2,0-1.1-.9-2-2-2Z"/><path class="cls-1" d="m49.5,61.67l-2.87-2.79h0c-.44.43-.86.85-1.27,1.25-1.04,1.02-2.09,1.23-2.79,1.23h-10.12c-1.1,0-2,.9-2,2s.9,2,2,2h10.12c2.04,0,4.03-.85,5.59-2.38.44-.43.89-.88,1.37-1.35l-.04.04Z"/><path class="cls-1" d="m67.95,44.32c-6.32,0-8.19,1.43-10.51,3.79l-.98.98c-1.93,1.93-6.1,6.1-9.55,9.51l2.86,2.79c3.45-3.41,7.59-7.56,9.51-9.48l1-1c1.7-1.73,2.56-2.59,7.66-2.59,1.1,0,2-.9,2-2s-.9-2-2-2Z"/><path class="cls-1" d="m65.75,69.76c-8.07,0-10.66-2.85-12.56-4.94-.25-.27-.48-.53-.73-.78-1.45-1.45-5.31-5.21-9.04-8.85l-.94-.91c-2.3-2.24-2.99-2.24-3.55-2.24h-8.01c-1.1,0-2-.9-2-2s.9-2,2-2h8.01c1.82,0,3.44.55,6.34,3.38l.94.91c3.74,3.65,7.61,7.42,9.08,8.88.29.29.57.6.86.91,1.67,1.84,3.4,3.73,10.12,3.63,1.11-.06,2.01.86,2.03,1.97.02,1.1-.86,2.01-1.97,2.03-.2,0-.39,0-.59,0Z"/><path class="cls-1" d="m34,52.04h-3.08c-1.1,0-2-.9-2-2s.9-2,2-2h3.08c3.76,0,5.61-.03,6.47-.82,4.15-3.76,11.49-10.78,13.07-12.36,2.77-2.77,5.43-3.45,12.92-3.3,1.1.02,1.98.93,1.96,2.04s-.93,2.02-2.04,1.96c-7.39-.14-8.47.59-10.01,2.13-1.65,1.65-9.08,8.75-13.21,12.5-2.05,1.85-4.72,1.85-9.16,1.85Z"/></svg>