<svg width="171" height="73" viewBox="0 0 171 73" fill="none" xmlns="http://www.w3.org/2000/svg">
<path fill-rule="evenodd" clip-rule="evenodd" d="M6 0C2.68629 0 0 2.68629 0 6V27C4.97056 27 9 31.0294 9 36C9 40.9706 4.97056 45 0 45V67C0 70.3137 2.68629 73 6 73H165C168.314 73 171 70.3137 171 67V45C166.029 45 162 40.9706 162 36C162 31.0294 166.029 27 171 27V6C171 2.68629 168.314 0 165 0H6ZM14 36H17.6V34.5H14V36ZM24.8 36H32V34.5H24.8V36ZM39.2 36H46.4V34.5H39.2V36ZM53.6 36H60.8V34.5H53.6V36ZM68 36H75.2V34.5H68V36ZM82.4 36H89.6V34.5H82.4V36ZM96.8 36H104V34.5H96.8V36ZM111.2 36H118.4V34.5H111.2V36ZM125.6 36H132.8L132.8 34.5H125.6V36ZM140 36H147.2V34.5H140V36ZM154.4 36H158V34.5H154.4V36Z" fill="white"/>
<path d="M65.3906 16.3945V15H71.9609V16.3945H69.5117V23H67.8398V16.3945H65.3906ZM74.7344 15V23H73.043V15H74.7344ZM83.1846 17.8008H81.4736C81.4424 17.5794 81.3786 17.3828 81.2822 17.2109C81.1859 17.0365 81.0622 16.888 80.9111 16.7656C80.7601 16.6432 80.5856 16.5495 80.3877 16.4844C80.1924 16.4193 79.9801 16.3867 79.751 16.3867C79.3369 16.3867 78.9762 16.4896 78.6689 16.6953C78.3617 16.8984 78.1234 17.1953 77.9541 17.5859C77.7848 17.974 77.7002 18.4453 77.7002 19C77.7002 19.5703 77.7848 20.0495 77.9541 20.4375C78.126 20.8255 78.3656 21.1185 78.6729 21.3164C78.9801 21.5143 79.3356 21.6133 79.7393 21.6133C79.9658 21.6133 80.1755 21.5833 80.3682 21.5234C80.5635 21.4635 80.7367 21.3763 80.8877 21.2617C81.0387 21.1445 81.1637 21.0026 81.2627 20.8359C81.3643 20.6693 81.4346 20.4792 81.4736 20.2656L83.1846 20.2734C83.1403 20.6406 83.0296 20.9948 82.8525 21.3359C82.6781 21.6745 82.4424 21.9779 82.1455 22.2461C81.8512 22.5117 81.4997 22.7227 81.0908 22.8789C80.6846 23.0326 80.2249 23.1094 79.7119 23.1094C78.9984 23.1094 78.3604 22.9479 77.7979 22.625C77.238 22.3021 76.7952 21.8346 76.4697 21.2227C76.1468 20.6107 75.9854 19.8698 75.9854 19C75.9854 18.1276 76.1494 17.3854 76.4775 16.7734C76.8057 16.1615 77.251 15.6953 77.8135 15.375C78.376 15.0521 79.0088 14.8906 79.7119 14.8906C80.1755 14.8906 80.6051 14.9557 81.001 15.0859C81.3994 15.2161 81.7523 15.4062 82.0596 15.6562C82.3669 15.9036 82.6169 16.207 82.8096 16.5664C83.0049 16.9258 83.1299 17.3372 83.1846 17.8008ZM84.3975 23V15H86.0889V18.5273H86.1943L89.0732 15H91.1006L88.1318 18.582L91.1357 23H89.1123L86.9209 19.7109L86.0889 20.7266V23H84.3975ZM91.9814 23V15H97.3721V16.3945H93.6729V18.3008H97.0947V19.6953H93.6729V21.6055H97.3877V23H91.9814ZM98.4121 16.3945V15H104.982V16.3945H102.533V23H100.861V16.3945H98.4121Z" fill="#989898"/>
<path d="M41.4964 51.326H39.1058C39.0376 50.9339 38.9119 50.5866 38.7287 50.2841C38.5455 49.9773 38.3175 49.7173 38.0447 49.5043C37.772 49.2912 37.4609 49.1314 37.1115 49.0249C36.7663 48.9141 36.3935 48.8587 35.9929 48.8587C35.2813 48.8587 34.6506 49.0376 34.1009 49.3956C33.5511 49.7493 33.1207 50.2692 32.8097 50.9553C32.4986 51.6371 32.343 52.4702 32.343 53.4545C32.343 54.456 32.4986 55.2997 32.8097 55.9858C33.125 56.6676 33.5554 57.1832 34.1009 57.5327C34.6506 57.8778 35.2791 58.0504 35.9865 58.0504C36.3786 58.0504 36.745 57.9993 37.0859 57.897C37.4311 57.7905 37.7401 57.6349 38.0128 57.4304C38.2898 57.2259 38.522 56.9744 38.7095 56.6761C38.9013 56.3778 39.0334 56.0369 39.1058 55.6534L41.4964 55.6662C41.407 56.2884 41.2131 56.8722 40.9148 57.4176C40.6207 57.9631 40.2351 58.4446 39.7578 58.8622C39.2805 59.2756 38.7223 59.5994 38.0831 59.8338C37.4439 60.0639 36.7344 60.179 35.9545 60.179C34.804 60.179 33.777 59.9126 32.8736 59.38C31.9702 58.8473 31.2585 58.0781 30.7386 57.0724C30.2188 56.0668 29.9588 54.8608 29.9588 53.4545C29.9588 52.044 30.2209 50.8381 30.745 49.8366C31.2692 48.831 31.983 48.0618 32.8864 47.5291C33.7898 46.9964 34.8125 46.7301 35.9545 46.7301C36.6832 46.7301 37.3608 46.8324 37.9872 47.0369C38.6136 47.2415 39.1719 47.5419 39.6619 47.9382C40.152 48.3303 40.5547 48.8118 40.87 49.3828C41.1896 49.9496 41.3984 50.5973 41.4964 51.326ZM47.4885 60.1918C46.5297 60.1918 45.6988 59.9808 44.9956 59.5589C44.2925 59.1371 43.7471 58.5469 43.3593 57.7884C42.9758 57.0298 42.784 56.1435 42.784 55.1293C42.784 54.1151 42.9758 53.2266 43.3593 52.4638C43.7471 51.701 44.2925 51.1087 44.9956 50.6868C45.6988 50.2649 46.5297 50.054 47.4885 50.054C48.4474 50.054 49.2783 50.2649 49.9814 50.6868C50.6846 51.1087 51.2279 51.701 51.6114 52.4638C51.9992 53.2266 52.1931 54.1151 52.1931 55.1293C52.1931 56.1435 51.9992 57.0298 51.6114 57.7884C51.2279 58.5469 50.6846 59.1371 49.9814 59.5589C49.2783 59.9808 48.4474 60.1918 47.4885 60.1918ZM47.5013 58.3381C48.0212 58.3381 48.4559 58.1953 48.8053 57.9098C49.1547 57.62 49.4147 57.2322 49.5851 56.7464C49.7599 56.2607 49.8472 55.7195 49.8472 55.1229C49.8472 54.522 49.7599 53.9787 49.5851 53.4929C49.4147 53.0028 49.1547 52.6129 48.8053 52.3232C48.4559 52.0334 48.0212 51.8885 47.5013 51.8885C46.9687 51.8885 46.5255 52.0334 46.1718 52.3232C45.8224 52.6129 45.5603 53.0028 45.3856 53.4929C45.2151 53.9787 45.1299 54.522 45.1299 55.1229C45.1299 55.7195 45.2151 56.2607 45.3856 56.7464C45.5603 57.2322 45.8224 57.62 46.1718 57.9098C46.5255 58.1953 46.9687 58.3381 47.5013 58.3381ZM53.797 60V50.1818H56.0087V51.8501H56.1238C56.3283 51.2876 56.6671 50.8487 57.1401 50.5334C57.6131 50.2138 58.1777 50.054 58.834 50.054C59.4988 50.054 60.0591 50.2159 60.5151 50.5398C60.9753 50.8594 61.2992 51.2962 61.4867 51.8501H61.589C61.8063 51.3047 62.1728 50.87 62.6884 50.5462C63.2083 50.218 63.824 50.054 64.5357 50.054C65.4391 50.054 66.1763 50.3395 66.7473 50.9105C67.3184 51.4815 67.6039 52.3146 67.6039 53.4098V60H65.2836V53.7678C65.2836 53.1584 65.1216 52.7131 64.7978 52.4318C64.4739 52.1463 64.0776 52.0036 63.6088 52.0036C63.0506 52.0036 62.6138 52.1783 62.2985 52.5277C61.9874 52.8729 61.8318 53.3224 61.8318 53.8764V60H59.5627V53.6719C59.5627 53.1648 59.4093 52.7599 59.1024 52.4574C58.7999 52.1548 58.4036 52.0036 57.9135 52.0036C57.5811 52.0036 57.2786 52.0888 57.0059 52.2592C56.7331 52.4254 56.5158 52.6619 56.3539 52.9688C56.1919 53.2713 56.111 53.625 56.111 54.0298V60H53.797ZM69.5913 60V50.1818H71.9053V60H69.5913ZM70.7547 48.7884C70.3882 48.7884 70.0729 48.6669 69.8087 48.424C69.5445 48.1768 69.4124 47.8807 69.4124 47.5355C69.4124 47.1861 69.5445 46.8899 69.8087 46.647C70.0729 46.3999 70.3882 46.2763 70.7547 46.2763C71.1254 46.2763 71.4408 46.3999 71.7007 46.647C71.9649 46.8899 72.097 47.1861 72.097 47.5355C72.097 47.8807 71.9649 48.1768 71.7007 48.424C71.4408 48.6669 71.1254 48.7884 70.7547 48.7884ZM76.2386 54.2472V60H73.9247V50.1818H76.1364V51.8501H76.2514C76.4773 51.3004 76.8373 50.8636 77.3317 50.5398C77.8302 50.2159 78.446 50.054 79.179 50.054C79.8565 50.054 80.4467 50.1989 80.9496 50.4886C81.4567 50.7784 81.8487 51.1982 82.1257 51.7479C82.4069 52.2976 82.5454 52.9645 82.5412 53.7486V60H80.2273V54.1065C80.2273 53.4503 80.0568 52.9368 79.7159 52.5661C79.3792 52.1953 78.9126 52.0099 78.316 52.0099C77.9112 52.0099 77.5511 52.0994 77.2358 52.2784C76.9247 52.4531 76.6797 52.7067 76.5007 53.0391C76.326 53.3714 76.2386 53.7741 76.2386 54.2472ZM88.8033 63.8864C87.9724 63.8864 87.2586 63.7734 86.662 63.5476C86.0654 63.326 85.586 63.0277 85.2238 62.6527C84.8616 62.2777 84.6102 61.8622 84.4695 61.4062L86.5533 60.9013C86.6471 61.093 86.7835 61.2827 86.9624 61.4702C87.1414 61.6619 87.3822 61.8196 87.6847 61.9432C87.9915 62.071 88.3772 62.1349 88.8417 62.1349C89.4979 62.1349 90.0413 61.9751 90.4717 61.6555C90.9021 61.3402 91.1173 60.8203 91.1173 60.0959V58.2358H91.0022C90.8829 58.4744 90.7082 58.7195 90.4781 58.9709C90.2522 59.2223 89.9518 59.4332 89.5768 59.6037C89.206 59.7741 88.7394 59.8594 88.1769 59.8594C87.4227 59.8594 86.7387 59.6825 86.1251 59.3288C85.5157 58.9709 85.0299 58.4382 84.6677 57.7308C84.3097 57.0192 84.1308 56.1286 84.1308 55.0589C84.1308 53.9808 84.3097 53.071 84.6677 52.3295C85.0299 51.5838 85.5178 51.0192 86.1315 50.6357C86.7451 50.2479 87.429 50.054 88.1833 50.054C88.7586 50.054 89.2316 50.152 89.6023 50.348C89.9773 50.5398 90.2756 50.772 90.4972 51.0447C90.7188 51.3132 90.8871 51.5668 91.0022 51.8054H91.13V50.1818H93.412V60.1598C93.412 60.9993 93.2117 61.6939 92.8112 62.2436C92.4106 62.7933 91.863 63.2045 91.1684 63.4773C90.4738 63.75 89.6854 63.8864 88.8033 63.8864ZM88.8225 58.044C89.3126 58.044 89.7302 57.9247 90.0754 57.6861C90.4205 57.4474 90.6826 57.1044 90.8616 56.657C91.0406 56.2095 91.13 55.6726 91.13 55.0462C91.13 54.4283 91.0406 53.8871 90.8616 53.4226C90.6869 52.9581 90.4269 52.598 90.0817 52.3423C89.7408 52.0824 89.3211 51.9524 88.8225 51.9524C88.3069 51.9524 87.8765 52.0866 87.5313 52.3551C87.1862 52.6236 86.9262 52.9922 86.7515 53.4609C86.5768 53.9254 86.4894 54.4538 86.4894 55.0462C86.4894 55.647 86.5768 56.1733 86.7515 56.625C86.9305 57.0724 87.1925 57.4219 87.5377 57.6733C87.8871 57.9205 88.3154 58.044 88.8225 58.044ZM106.745 50.5078C106.685 49.9496 106.434 49.5149 105.991 49.2038C105.552 48.8928 104.981 48.7372 104.278 48.7372C103.783 48.7372 103.359 48.8118 103.006 48.9609C102.652 49.1101 102.381 49.3125 102.194 49.5682C102.006 49.8239 101.91 50.1158 101.906 50.4439C101.906 50.7166 101.968 50.9531 102.092 51.1534C102.219 51.3537 102.392 51.5241 102.609 51.6648C102.827 51.8011 103.067 51.9162 103.332 52.0099C103.596 52.1037 103.862 52.1825 104.131 52.2464L105.358 52.5533C105.852 52.6683 106.327 52.8239 106.783 53.0199C107.243 53.2159 107.655 53.4631 108.017 53.7614C108.383 54.0597 108.673 54.4197 108.886 54.8416C109.099 55.2635 109.206 55.7578 109.206 56.3246C109.206 57.0916 109.01 57.767 108.618 58.3509C108.226 58.9304 107.659 59.3842 106.918 59.7124C106.18 60.0362 105.288 60.1982 104.239 60.1982C103.221 60.1982 102.337 60.0405 101.587 59.7251C100.841 59.4098 100.257 58.9496 99.8351 58.3445C99.4175 57.7393 99.1917 57.0021 99.1576 56.1328H101.491C101.525 56.5888 101.665 56.968 101.913 57.2706C102.16 57.5732 102.481 57.799 102.878 57.9482C103.278 58.0973 103.726 58.1719 104.22 58.1719C104.736 58.1719 105.187 58.0952 105.575 57.9418C105.967 57.7841 106.274 57.5668 106.496 57.2898C106.717 57.0085 106.83 56.6804 106.834 56.3054C106.83 55.9645 106.73 55.6832 106.534 55.4616C106.338 55.2358 106.063 55.0483 105.709 54.8991C105.36 54.7457 104.951 54.6094 104.482 54.4901L102.993 54.1065C101.915 53.8295 101.062 53.4098 100.436 52.8473C99.8138 52.2805 99.5027 51.5284 99.5027 50.5909C99.5027 49.8196 99.7115 49.1442 100.129 48.5646C100.551 47.9851 101.124 47.5355 101.849 47.2159C102.573 46.892 103.393 46.7301 104.31 46.7301C105.239 46.7301 106.052 46.892 106.751 47.2159C107.454 47.5355 108.006 47.9808 108.407 48.5518C108.807 49.1186 109.014 49.7706 109.027 50.5078H106.745ZM115.14 60.1918C114.182 60.1918 113.351 59.9808 112.648 59.5589C111.944 59.1371 111.399 58.5469 111.011 57.7884C110.628 57.0298 110.436 56.1435 110.436 55.1293C110.436 54.1151 110.628 53.2266 111.011 52.4638C111.399 51.701 111.944 51.1087 112.648 50.6868C113.351 50.2649 114.182 50.054 115.14 50.054C116.099 50.054 116.93 50.2649 117.633 50.6868C118.336 51.1087 118.88 51.701 119.263 52.4638C119.651 53.2266 119.845 54.1151 119.845 55.1293C119.845 56.1435 119.651 57.0298 119.263 57.7884C118.88 58.5469 118.336 59.1371 117.633 59.5589C116.93 59.9808 116.099 60.1918 115.14 60.1918ZM115.153 58.3381C115.673 58.3381 116.108 58.1953 116.457 57.9098C116.807 57.62 117.067 57.2322 117.237 56.7464C117.412 56.2607 117.499 55.7195 117.499 55.1229C117.499 54.522 117.412 53.9787 117.237 53.4929C117.067 53.0028 116.807 52.6129 116.457 52.3232C116.108 52.0334 115.673 51.8885 115.153 51.8885C114.621 51.8885 114.177 52.0334 113.824 52.3232C113.474 52.6129 113.212 53.0028 113.037 53.4929C112.867 53.9787 112.782 54.522 112.782 55.1229C112.782 55.7195 112.867 56.2607 113.037 56.7464C113.212 57.2322 113.474 57.62 113.824 57.9098C114.177 58.1953 114.621 58.3381 115.153 58.3381ZM125.732 60.1918C124.773 60.1918 123.942 59.9808 123.239 59.5589C122.536 59.1371 121.99 58.5469 121.602 57.7884C121.219 57.0298 121.027 56.1435 121.027 55.1293C121.027 54.1151 121.219 53.2266 121.602 52.4638C121.99 51.701 122.536 51.1087 123.239 50.6868C123.942 50.2649 124.773 50.054 125.732 50.054C126.69 50.054 127.521 50.2649 128.224 50.6868C128.928 51.1087 129.471 51.701 129.854 52.4638C130.242 53.2266 130.436 54.1151 130.436 55.1293C130.436 56.1435 130.242 57.0298 129.854 57.7884C129.471 58.5469 128.928 59.1371 128.224 59.5589C127.521 59.9808 126.69 60.1918 125.732 60.1918ZM125.744 58.3381C126.264 58.3381 126.699 58.1953 127.048 57.9098C127.398 57.62 127.658 57.2322 127.828 56.7464C128.003 56.2607 128.09 55.7195 128.09 55.1229C128.09 54.522 128.003 53.9787 127.828 53.4929C127.658 53.0028 127.398 52.6129 127.048 52.3232C126.699 52.0334 126.264 51.8885 125.744 51.8885C125.212 51.8885 124.769 52.0334 124.415 52.3232C124.065 52.6129 123.803 53.0028 123.629 53.4929C123.458 53.9787 123.373 54.522 123.373 55.1229C123.373 55.7195 123.458 56.2607 123.629 56.7464C123.803 57.2322 124.065 57.62 124.415 57.9098C124.769 58.1953 125.212 58.3381 125.744 58.3381ZM134.354 54.2472V60H132.04V50.1818H134.252V51.8501H134.367C134.593 51.3004 134.953 50.8636 135.447 50.5398C135.946 50.2159 136.561 50.054 137.294 50.054C137.972 50.054 138.562 50.1989 139.065 50.4886C139.572 50.7784 139.964 51.1982 140.241 51.7479C140.522 52.2976 140.661 52.9645 140.657 53.7486V60H138.343V54.1065C138.343 53.4503 138.172 52.9368 137.831 52.5661C137.495 52.1953 137.028 52.0099 136.431 52.0099C136.027 52.0099 135.667 52.0994 135.351 52.2784C135.04 52.4531 134.795 52.7067 134.616 53.0391C134.441 53.3714 134.354 53.7741 134.354 54.2472Z" fill="#234735"/>
</svg>
